<svg width="134" height="30" viewBox="0 0 134 30" fill="none" xmlns="http://www.w3.org/2000/svg">
<path fill-rule="evenodd" clip-rule="evenodd" d="M24.5716 2.63721L24.738 3.77371H27.0052L26.3509 0.725552H23.3146L21.4608 3.77371H23.946C23.9403 3.77371 24.5716 2.63721 24.5716 2.63721ZM27.0281 8.68107L26.1844 4.60715H23.9173L24.0837 5.74365H22.4709L23.1252 4.60715H20.64L18.1835 8.68107H20.8581L21.4321 7.62617H24.3822L24.5486 8.68107H27.0281ZM34.0705 8.17985C34.8626 7.84764 35.4652 7.34641 35.8727 6.74028C36.2802 6.12831 36.4983 5.43475 36.4983 4.60715H33.9041C33.9041 4.64793 33.9112 4.68288 33.9184 4.71784L33.9184 4.71788C33.9256 4.75285 33.9328 4.78782 33.9328 4.82862C33.9328 5.41144 33.7434 5.85439 33.3301 6.18659C32.9226 6.5188 32.4003 6.68782 31.746 6.68782H30.7645L31.172 4.60715H28.6581L27.8489 8.68107H31.2868C32.3544 8.68107 33.2785 8.51205 34.0705 8.17985ZM32.2166 2.7188H33.2268C33.7491 2.7188 34.1279 2.82954 34.3747 3.02187C34.5641 3.19089 34.7019 3.43567 34.7305 3.77371H37.3191V3.74457C37.3191 2.74794 36.9919 1.9961 36.3606 1.47156C35.735 0.970337 34.8052 0.696411 33.5482 0.696411H30.1102L29.4846 3.77371H31.9698L32.2166 2.7188ZM41.0899 6.12831L42.3469 4.60132H37.9791L38.5818 6.01758L38.0365 8.68107H40.5734L41.0899 6.12831ZM43.1676 3.77371L45.7332 0.725552H43.0012L41.0096 3.24917L40.0511 0.725552H37.4281L38.7941 3.77371H43.1676ZM7.09478 2.49733H8.18529C8.54114 2.49733 8.8109 2.54979 8.94864 2.63721C9.11509 2.7188 9.16675 2.88782 9.16675 3.10929C9.16675 3.4415 9.0003 3.66298 8.67315 3.77371H11.4339C11.5257 3.50561 11.5716 3.22586 11.5716 2.94028C11.5716 2.24672 11.3248 1.69304 10.8082 1.30255C10.2917 0.912055 9.60869 0.719724 8.73054 0.719724H5.01708L4.66123 2.4915H7.09478V2.49733ZM19.6815 0.725552H13.3509L12.9663 2.52647H19.3257L19.6815 0.725552ZM16.1345 4.04764L16.2149 3.65715H12.7999L12.7195 4.04764L12.444 5.43475H15.859L16.1345 4.04764ZM17.8793 6.88015H11.4339L11.0837 8.68107H17.5292C17.5235 8.68107 17.8793 6.88015 17.8793 6.88015ZM14.4414 16.9455H10.8886L11.2961 14.9231H8.75924L7.94423 18.997H14.0339C14.0281 18.997 14.4414 16.9455 14.4414 16.9455ZM9.57999 14.0897H12.1169L12.7195 11.0415H10.2056L9.57999 14.0897ZM18.0974 17.9421H21.0188L21.2082 18.997H23.6935L22.8211 14.9173H20.5826L20.7491 16.0538H19.1363L19.7619 14.9173H17.3054L14.8489 18.997H17.5235L18.0974 17.9421ZM19.9857 11.0357L18.1261 14.0838H20.5826L21.2082 12.9473L21.3977 14.0838H23.6361L23.0105 11.0357H19.9857ZM25.6334 16.3335L25.0882 18.997H27.625L28.1416 16.4443L29.3985 14.9173H25.0021C25.0078 14.9173 25.6334 16.3335 25.6334 16.3335ZM30.0586 11.0357L28.067 13.5593L27.1085 11.0357H24.4855L25.8228 14.0838H30.2193L32.7849 11.0357H30.0586ZM5.26388 12.7025C5.61973 12.7025 5.88948 12.755 6.02723 12.8424C6.19368 12.924 6.24533 13.0639 6.24533 13.2854C6.24533 13.8099 5.86079 14.0605 5.06873 14.0897H8.5067C8.64445 13.7866 8.69611 13.4252 8.69611 13.0348C8.69611 12.3121 8.44931 11.7584 7.98441 11.397C7.49081 11.0357 6.78485 10.8433 5.82635 10.8433H2.30229L1.91774 12.7025H5.26388ZM7.72613 14.9173H0.844449L-0.00499892 18.997H2.42282L2.88772 16.8056H3.95527C5.18352 16.8056 6.14202 16.555 6.84798 16.0305C7.23253 15.7449 7.53672 15.3602 7.72613 14.9173ZM5.56807 6.34979H6.76763L7.69743 8.70439H10.372L9.11509 5.95929C9.63165 5.73782 10.0449 5.43475 10.3146 5.04426C10.4237 4.90439 10.5041 4.7412 10.5614 4.57218H3.54776L2.72701 8.68107H5.07447L5.56807 6.34979ZM40.0224 11.0648H33.663L33.3071 12.8657H39.6436L40.0224 11.0648ZM32.7619 15.8906H36.1769L36.5041 14.1188H33.089L32.7619 15.8906ZM31.4246 19.0203H37.8701L38.2259 17.2194H31.7804L31.4246 19.0203ZM47.3977 11.6185C46.8811 11.228 46.1981 11.0357 45.32 11.0357H41.6065L41.2506 12.8075H44.7747C45.1306 12.8075 45.4003 12.8599 45.5381 12.9473C45.7045 13.0289 45.7562 13.1979 45.7562 13.4194C45.7562 13.7516 45.5897 13.9731 45.2626 14.0838H48.0175C48.1094 13.8157 48.1553 13.536 48.1553 13.2504C48.161 12.5627 47.8913 12.009 47.3977 11.6185ZM46.9041 15.3369C47.0131 15.197 47.0935 15.0338 47.1509 14.8648H40.1372L39.3164 18.997H41.6639L42.1575 16.6424H43.357L44.2868 18.997H46.9615L45.7045 16.2519C46.2211 16.0305 46.6343 15.7216 46.9041 15.3369ZM17.3341 23.7062H23.6705L24.055 21.8762H17.6899L17.3341 23.7062ZM20.531 24.9302H17.116L16.7601 26.7019H20.1751L20.531 24.9302ZM15.4515 29.8375H21.8683L22.2528 28.0366H15.8074L15.4515 29.8375ZM6.73893 24.9302H10.8082L10.0965 21.882H7.37028C7.37028 21.8762 6.73893 24.9302 6.73893 24.9302ZM16.6511 21.8762H13.7584L11.8184 24.9243H16.0484L16.6511 21.8762ZM10.263 26.9525L9.9875 25.7578H5.92392L5.10317 29.8375H7.37028L8.08198 26.3989L8.81664 29.8375H10.6475L12.8056 26.3173L12.0939 29.8375H14.4127L15.2334 25.7636H10.9977C10.9977 25.7578 10.263 26.9525 10.263 26.9525ZM92.1909 14.7208C92.1162 14.7953 92.0785 14.8885 92.0785 15V15.112C92.0785 15.224 92.1156 15.3172 92.1909 15.3911C92.2657 15.4656 92.3593 15.5031 92.4712 15.5031C92.4712 15.5031 93.2154 15.5827 94.0977 15.166V14.6094H92.4712C92.3593 14.6088 92.2657 14.6463 92.1909 14.7208ZM110.589 12.4297H111.935C112.234 12.4297 112.384 12.5786 112.384 12.8765V15.1115C112.384 15.4094 112.234 15.5584 111.935 15.5584H110.589C110.29 15.5584 110.14 15.4094 110.14 15.1115V12.8765C110.14 12.5786 110.29 12.4297 110.589 12.4297ZM83.2168 12.541H81.4779V15.4468H83.1603C83.4594 15.4468 83.6089 15.2978 83.6089 14.9999V12.9321C83.6089 12.8201 83.5712 12.7274 83.497 12.6524C83.4223 12.5785 83.3287 12.541 83.2168 12.541ZM129.979 9.22875C130.596 9.22875 131.18 9.33848 131.713 9.5551C132.804 9.99856 133.507 11.0492 133.503 12.2324C133.503 12.3484 133.503 12.4723 133.503 12.5974V18.7729H120.711H117.039C115.994 18.7729 115.27 18.421 114.795 18.0503C114.321 18.421 113.596 18.7729 112.552 18.7729H109.972C108.689 18.7729 107.889 18.2425 107.442 17.7979C107.307 17.6625 107.163 17.4937 107.028 17.289V18.6609H101.968C101.713 19.1112 101.41 19.4899 101.063 19.7946C100.398 20.3774 99.5462 20.673 98.5292 20.673H95.6443V18.6615H88.1807C87.3469 18.6615 86.5941 18.4932 85.9898 17.9622C85.5149 18.3243 84.7999 18.6615 83.7777 18.6615H83.1899V20.561H77.8025V9.21511H83.8902C84.2337 9.21511 84.5613 9.25775 84.87 9.34076V7.42703H90.2575V9.21511H112.552C113.596 9.21511 114.322 9.56704 114.796 9.93773C115.27 9.56704 115.995 9.21511 117.039 9.21511H126.264C126.861 9.21511 127.423 9.36805 127.931 9.60797C128.532 9.38283 129.247 9.22875 129.979 9.22875ZM85.096 16.4811C85.4134 16.1644 85.5726 15.7267 85.5726 15.1678V12.5974C85.5726 12.0908 85.4191 11.6849 85.1126 11.379C84.8056 11.0737 84.3981 10.9207 83.8896 10.9207H79.5146V18.8559H81.4778V16.9558H83.7777C84.3387 16.9558 84.7782 16.7978 85.096 16.4811ZM88.1807 17.0673H89.4967V15.5032H88.938C88.8256 15.5032 88.732 15.4657 88.6572 15.3912C88.5825 15.3173 88.5454 15.2241 88.5454 15.1121V9.13267H86.5822V15.3906C86.5822 15.8978 86.7351 16.3037 87.0421 16.609C87.3486 16.9149 87.7281 17.0673 88.1807 17.0673ZM94.0983 16.9558H96.0615H96.0626V12.5974C96.0626 12.0908 95.9091 11.6849 95.6026 11.379C95.2956 11.0737 94.8881 10.9207 94.3796 10.9207H90.6775V12.3728H93.7062C93.8181 12.3728 93.9117 12.4103 93.9864 12.4848C94.0612 12.5593 94.0989 12.652 94.0989 12.764V13.2108H91.7989C91.2899 13.2108 90.8824 13.3638 90.5759 13.6691C90.2689 13.975 90.1159 14.3809 90.1159 14.8875V15.3906C90.1159 15.8978 90.2689 16.3037 90.5759 16.609C90.8829 16.9149 91.2904 17.0673 91.7989 17.0673H92.1916C92.4455 17.0673 92.7577 17.0133 93.1281 16.9052C93.4813 16.8026 93.7241 16.643 94.0514 16.4278L94.0983 16.397V16.9558ZM99.9314 18.5148C100.275 18.2129 100.556 17.7677 100.773 17.1793L103.017 11.0322H100.942L99.7636 14.8318L98.3614 11.0322H96.2858L98.5857 16.5084C98.705 16.7915 98.7215 17.0116 98.6359 17.1679C98.5497 17.3243 98.3648 17.4027 98.0806 17.4027H97.3564V18.9674H98.5292C99.1199 18.9674 99.5873 18.8167 99.9314 18.5148ZM106.774 12.5962H107.728V10.9213H107.223C105.657 10.9213 105.316 11.7593 105.316 11.7593V11.0327H103.353V16.9558H105.316V14.0273C105.316 13.2285 105.973 12.5849 106.774 12.5962ZM113.87 16.5925C114.188 16.2759 114.347 15.8381 114.347 15.2792V12.7088C114.347 12.1499 114.188 11.7122 113.87 11.3955C113.552 11.0794 113.113 10.9207 112.552 10.9207H109.972C109.411 10.9207 108.971 11.0788 108.653 11.3955C108.336 11.7122 108.177 12.1499 108.177 12.7088V15.2792C108.177 15.8381 108.336 16.2759 108.653 16.5925C108.971 16.9092 109.411 17.0673 109.972 17.0673H112.552C113.113 17.0673 113.552 16.9092 113.87 16.5925ZM120.938 16.5925C121.255 16.2759 121.414 15.8381 121.414 15.2792V12.7088C121.414 12.1499 121.256 11.7122 120.938 11.3955C120.62 11.0794 120.18 10.9207 119.619 10.9207H117.039C116.478 10.9207 116.039 11.0788 115.721 11.3955C115.403 11.7122 115.244 12.1499 115.244 12.7088V15.2792C115.244 15.8381 115.403 16.2759 115.721 16.5925C116.039 16.9092 116.478 17.0673 117.039 17.0673H119.619C120.18 17.0673 120.62 16.9092 120.938 16.5925ZM131.791 16.9558V12.5974C131.791 12.5327 131.791 12.4684 131.791 12.4053L131.791 12.2278C131.793 11.752 131.509 11.3147 131.067 11.1351C129.712 10.5847 128.09 11.3136 127.808 11.5916C126.545 10.2953 124.662 11.3187 124.387 11.5916V11.0327H122.424V16.9558H124.387V12.9982C124.387 12.7463 124.592 12.5417 124.845 12.5417H125.667C125.92 12.5417 126.125 12.7458 126.125 12.9982V16.9553H128.089V12.9959C128.089 12.7446 128.293 12.5411 128.545 12.5411H129.371C129.623 12.5411 129.828 12.7446 129.828 12.9959V16.9558H131.791ZM119.002 12.4297H117.656C117.357 12.4297 117.207 12.5786 117.207 12.8765V15.1115C117.207 15.4094 117.357 15.5584 117.656 15.5584H119.002C119.301 15.5584 119.451 15.4094 119.451 15.1115V12.8765C119.451 12.5786 119.301 12.4297 119.002 12.4297ZM61.2534 11.4579C61.1846 11.4775 61.101 11.5119 61.0027 11.5611C60.9143 11.6004 60.6832 11.6839 60.3097 11.8117C59.9361 11.9297 59.7199 12.0182 59.6609 12.0772C59.5921 12.1263 59.5773 12.2 59.6167 12.2983C59.6462 12.3868 59.8034 12.6277 60.0885 13.0209C60.3638 13.3944 60.58 13.6893 60.7373 13.9056C60.8749 14.112 61.0666 14.3627 61.3124 14.6576C61.5581 14.9623 61.7007 15.1393 61.74 15.1884C61.7793 15.2376 61.8137 15.2917 61.8432 15.3506C61.8825 15.4096 61.7892 15.6062 61.5631 15.9405C61.3075 16.314 61.1059 16.6138 60.9585 16.8399C60.7717 17.1152 60.6439 17.3118 60.5751 17.4297C60.4965 17.5575 60.3933 17.7247 60.2655 17.9311C60.1377 18.1277 60.0639 18.285 60.0443 18.4029L60.0295 18.5799H62.1971C62.8164 17.6657 63.1605 17.2086 63.2293 17.2086C63.3079 17.2086 63.4505 17.3413 63.6569 17.6067C63.883 17.8918 64.0845 18.1375 64.2615 18.344L64.5416 18.6831C65.8097 18.6733 66.4979 18.6487 66.606 18.6094C66.7141 18.5602 66.7633 18.5062 66.7534 18.4472C66.7534 18.3882 66.6797 18.2407 66.5323 18.0048C66.3848 17.7689 66.0801 17.302 65.618 16.604C65.1462 15.8962 64.8955 15.5325 64.866 15.5128C64.8365 15.4834 64.7825 15.4047 64.7038 15.2769C64.6449 15.1786 64.6154 15.1098 64.6154 15.0705C64.6252 15.0213 64.6743 14.923 64.7628 14.7756C64.8709 14.5888 65.0676 14.2791 65.3526 13.8466C65.6377 13.4141 65.854 13.0798 66.0014 12.8439C66.1685 12.5687 66.2963 12.3573 66.3848 12.2099C66.4929 12.0329 66.547 11.9346 66.547 11.915C66.547 11.8855 66.5274 11.8461 66.488 11.797C66.4585 11.738 66.2423 11.6692 65.8392 11.5906C65.446 11.5119 65.1314 11.4824 64.8955 11.5021C64.7284 11.5119 64.6154 11.5365 64.5564 11.5758C64.4974 11.6151 64.3942 11.738 64.2467 11.9445C64.0501 12.2197 63.9027 12.4507 63.8044 12.6375C63.7061 12.8144 63.6028 12.9619 63.4947 13.0798C63.3964 13.1978 63.3079 13.2568 63.2293 13.2568C63.1605 13.247 63.0818 13.1831 62.9934 13.0651C62.8754 12.9078 62.7624 12.7604 62.6542 12.6227C62.5264 12.4556 62.4625 12.3622 62.4625 12.3426C62.4625 12.3131 62.32 12.1509 62.0349 11.856C61.7498 11.5611 61.568 11.4185 61.4893 11.4284C61.4107 11.4284 61.332 11.4382 61.2534 11.4579Z" fill="black"/>
</svg>
