<svg width="14" height="14" viewBox="0 0 14 14" fill="none" xmlns="http://www.w3.org/2000/svg">
<path d="M7.16321 0.580017C5.48405 0.583212 3.87457 1.25167 2.68722 2.43902C1.49988 3.62637 0.831414 5.23585 0.828219 6.91501C0.822389 8.47391 1.39722 9.97914 2.44068 11.1373L0.976318 12.4611C0.908769 12.5225 0.861325 12.6029 0.840195 12.6917C0.819065 12.7805 0.825233 12.8736 0.857891 12.9588C0.890549 13.0441 0.948177 13.1175 1.02323 13.1694C1.09829 13.2214 1.18728 13.2495 1.27856 13.25H7.16321C8.84336 13.25 10.4547 12.5826 11.6427 11.3945C12.8308 10.2065 13.4982 8.59515 13.4982 6.91501C13.4982 5.23486 12.8308 3.62353 11.6427 2.43549C10.4547 1.24745 8.84336 0.580017 7.16321 0.580017ZM4.50953 7.83382C4.3278 7.83382 4.15016 7.77994 3.99906 7.67898C3.84796 7.57802 3.73019 7.43452 3.66065 7.26662C3.59111 7.09873 3.57291 6.91399 3.60837 6.73576C3.64382 6.55752 3.73133 6.39381 3.85983 6.26531C3.98832 6.13681 4.15204 6.0493 4.33027 6.01385C4.50851 5.9784 4.69325 5.99659 4.86114 6.06613C5.02903 6.13568 5.17253 6.25344 5.27349 6.40454C5.37445 6.55564 5.42834 6.73328 5.42834 6.91501C5.42834 7.15869 5.33154 7.3924 5.15923 7.56471C4.98692 7.73702 4.75321 7.83382 4.50953 7.83382ZM7.06649 7.83382C6.88477 7.83382 6.70713 7.77994 6.55603 7.67898C6.40493 7.57802 6.28716 7.43452 6.21762 7.26662C6.14808 7.09873 6.12988 6.91399 6.16533 6.73576C6.20079 6.55752 6.28829 6.39381 6.41679 6.26531C6.54529 6.13681 6.70901 6.0493 6.88724 6.01385C7.06547 5.9784 7.25022 5.99659 7.41811 6.06613C7.586 6.13568 7.7295 6.25344 7.83046 6.40454C7.93142 6.55564 7.98531 6.73328 7.98531 6.91501C7.98531 7.03567 7.96154 7.15515 7.91537 7.26662C7.86919 7.3781 7.80151 7.47939 7.71619 7.56471C7.63087 7.65003 7.52958 7.71771 7.41811 7.76388C7.30663 7.81006 7.18715 7.83382 7.06649 7.83382ZM9.62346 7.83382C9.44174 7.83382 9.26409 7.77994 9.11299 7.67898C8.9619 7.57802 8.84413 7.43452 8.77459 7.26662C8.70504 7.09873 8.68685 6.91399 8.7223 6.73576C8.75775 6.55752 8.84526 6.39381 8.97376 6.26531C9.10226 6.13681 9.26598 6.0493 9.44421 6.01385C9.62244 5.9784 9.80718 5.99659 9.97508 6.06613C10.143 6.13568 10.2865 6.25344 10.3874 6.40454C10.4884 6.55564 10.5423 6.73328 10.5423 6.91501C10.5419 7.15857 10.4449 7.39204 10.2727 7.56427C10.1005 7.73649 9.86702 7.83343 9.62346 7.83382Z" fill="black"/>
</svg>
