<svg width="25" height="25" viewBox="0 0 25 25" fill="none" xmlns="http://www.w3.org/2000/svg">
  <circle cx="12.9677" cy="12.4484" r="12.0322" fill="white"/>
  <path d="M13.1288 8.80555C12.5543 8.80987 12.0803 8.22121 12.0728 7.64518C12.0654 7.06899 12.5263 6.7227 13.101 6.71823C13.6761 6.71375 14.1496 7.30257 14.158 7.8786C14.1646 8.45511 13.7041 8.80108 13.1288 8.80555Z" fill="black"/>
  <path d="M11.6056 16.0748C11.343 16.5029 11.0058 17.376 10.8203 18.0128C10.633 18.6556 9.59678 18.5022 9.74275 17.8524C9.84682 17.3882 10.1007 16.034 10.7636 14.9376C11.4554 13.7938 12.276 12.9507 12.276 12.9507C12.1625 12.1962 11.5937 10.1672 11.5937 10.1672C11.5937 10.1672 9.57862 9.82143 8.62848 7.8652C8.2671 7.12114 9.06829 6.87142 9.45488 7.31475C9.93893 7.86936 10.245 8.63644 11.3631 9.01966C12.2358 9.31878 14.4612 9.15779 14.9209 9.21087C17.252 9.47978 17.4768 11.6272 17.3804 12.6835C17.3203 13.3432 16.4121 13.3464 16.3452 12.6704C16.2591 11.7967 16.1712 10.7374 15.2938 10.419C15.3978 11.3196 15.8421 12.7574 15.8421 12.7574C15.9492 14.0589 14.7728 14.1534 14.7001 15.445C14.6693 15.988 15.1158 17.0235 15.4784 17.5212C15.9024 18.1033 14.9914 18.3779 14.4845 17.9159C13.9776 17.4539 13.5839 16.7587 13.3196 15.9784C13.0011 15.0388 13.427 14.0543 13.427 14.0543C12.5989 14.6294 12.0843 15.2944 11.6056 16.0748Z" fill="black"/>
</svg>
