<svg width="56" height="23" viewBox="0 0 56 23" fill="none" xmlns="http://www.w3.org/2000/svg">
  <path d="M48.2799 15.7581C49.3465 14.6463 50.2798 9.47467 50.351 9.06564C50.3544 9.04582 50.3566 9.02583 50.3578 9.00576C50.368 8.85209 50.3838 8.23516 49.9917 8.14251C49.5397 8.03517 49.3499 8.67696 49.3499 8.67696C49.3499 8.67696 49.0177 9.76393 48.6618 10.6554C48.6402 10.7101 48.5987 10.7545 48.5456 10.7796C48.4925 10.8048 48.4319 10.8089 48.3759 10.791L48.3217 10.7729C48.2702 10.7561 48.2261 10.7218 48.1971 10.6761C48.168 10.6303 48.1558 10.5759 48.1624 10.5221C48.2629 9.74359 48.5793 7.20694 48.5793 7.00808C48.5793 6.77306 48.5996 6.18664 48.0234 6.17421C47.4471 6.16178 47.359 6.85893 47.359 6.85893C47.359 6.85893 47.0065 9.06564 46.7861 10.0826C46.7737 10.1381 46.7416 10.1871 46.6956 10.2206C46.6496 10.2541 46.5931 10.2697 46.5364 10.2645C46.4796 10.259 46.4267 10.2331 46.3877 10.1915C46.3486 10.1499 46.3259 10.0955 46.324 10.0385L46.211 6.64086V6.616C46.2178 6.51205 46.2404 5.78891 45.5331 5.78891C44.8902 5.78891 44.8551 6.616 44.8551 6.616C44.8551 6.616 44.8314 8.59673 44.8687 9.90629C44.8697 9.94315 44.862 9.97971 44.8463 10.0131C44.8306 10.0464 44.8073 10.0756 44.7783 10.0984C44.6786 10.1665 44.5842 10.242 44.4958 10.3244C44.4868 10.3334 44.4868 10.3018 44.4823 10.2893C44.4212 10.1357 44.0314 8.95265 43.4122 7.51428C43.219 7.06232 42.9603 7.00921 42.6947 7.11542C42.4292 7.22163 42.3377 7.56739 42.3332 7.82161C42.3332 8.53233 43.1682 10.6215 43.6314 11.7266C43.6494 11.7703 43.6538 11.8183 43.6439 11.8645C43.634 11.9107 43.6104 11.9528 43.5761 11.9853C43.4043 12.1503 43.4043 12.1164 43.1783 12.3503L43.1614 12.3424L43.1309 12.3243C42.693 12.042 42.2051 11.8461 41.6937 11.7469C41.5633 11.7215 41.4282 11.7393 41.3089 11.7975C41.1895 11.8557 41.0924 11.9512 41.0321 12.0696C40.9719 12.1879 40.9518 12.3227 40.9749 12.4534C40.9981 12.5842 41.0631 12.7039 41.1603 12.7943C41.6722 13.2644 42.2902 13.8881 43.2043 14.7468C43.2364 14.7765 43.2649 14.8098 43.2891 14.8463C44.4472 16.5298 45.8562 16.6134 46.15 16.6112C46.15 16.6146 47.4528 16.6191 48.2799 15.7581Z" fill="white"/>
  <rect x="1.16357" y="0.613068" width="53.5" height="21.1744" rx="4.5" stroke="white"/>
  <path d="M22.9759 13.2003H22.0399L21.3139 10.2843H21.3019L20.5879 13.2003H19.6339L18.4999 8.91629H19.4419L20.1199 11.8323H20.1319L20.8759 8.91629H21.7579L22.4899 11.8683H22.5019L23.2039 8.91629H24.1279L22.9759 13.2003ZM24.2133 11.0523C24.2253 10.8523 24.2753 10.6863 24.3633 10.5543C24.4513 10.4223 24.5633 10.3163 24.6993 10.2363C24.8353 10.1563 24.9873 10.1003 25.1553 10.0683C25.3273 10.0323 25.4993 10.0143 25.6713 10.0143C25.8273 10.0143 25.9853 10.0263 26.1453 10.0503C26.3053 10.0703 26.4513 10.1123 26.5833 10.1763C26.7153 10.2403 26.8233 10.3303 26.9073 10.4463C26.9913 10.5583 27.0333 10.7083 27.0333 10.8963V12.5103C27.0333 12.6503 27.0413 12.7843 27.0573 12.9123C27.0733 13.0403 27.1013 13.1363 27.1413 13.2003H26.2773C26.2613 13.1523 26.2473 13.1043 26.2353 13.0563C26.2273 13.0043 26.2213 12.9523 26.2173 12.9003C26.0813 13.0403 25.9213 13.1383 25.7373 13.1943C25.5533 13.2503 25.3653 13.2783 25.1733 13.2783C25.0253 13.2783 24.8873 13.2603 24.7593 13.2243C24.6313 13.1883 24.5193 13.1323 24.4233 13.0563C24.3273 12.9803 24.2513 12.8843 24.1953 12.7683C24.1433 12.6523 24.1173 12.5143 24.1173 12.3543C24.1173 12.1783 24.1473 12.0343 24.2073 11.9223C24.2713 11.8063 24.3513 11.7143 24.4473 11.6463C24.5473 11.5783 24.6593 11.5283 24.7833 11.4963C24.9113 11.4603 25.0393 11.4323 25.1673 11.4123C25.2953 11.3923 25.4213 11.3763 25.5453 11.3643C25.6693 11.3523 25.7793 11.3343 25.8753 11.3103C25.9713 11.2863 26.0473 11.2523 26.1033 11.2083C26.1593 11.1603 26.1853 11.0923 26.1813 11.0043C26.1813 10.9123 26.1653 10.8403 26.1333 10.7883C26.1053 10.7323 26.0653 10.6903 26.0133 10.6623C25.9653 10.6303 25.9073 10.6103 25.8393 10.6023C25.7753 10.5903 25.7053 10.5843 25.6293 10.5843C25.4613 10.5843 25.3293 10.6203 25.2333 10.6923C25.1373 10.7643 25.0813 10.8843 25.0653 11.0523H24.2133ZM26.1813 11.6823C26.1453 11.7143 26.0993 11.7403 26.0433 11.7603C25.9913 11.7763 25.9333 11.7903 25.8693 11.8023C25.8093 11.8143 25.7453 11.8243 25.6773 11.8323C25.6093 11.8403 25.5413 11.8503 25.4733 11.8623C25.4093 11.8743 25.3453 11.8903 25.2813 11.9103C25.2213 11.9303 25.1673 11.9583 25.1193 11.9943C25.0753 12.0263 25.0393 12.0683 25.0113 12.1203C24.9833 12.1723 24.9693 12.2383 24.9693 12.3183C24.9693 12.3943 24.9833 12.4583 25.0113 12.5103C25.0393 12.5623 25.0773 12.6043 25.1253 12.6363C25.1733 12.6643 25.2293 12.6843 25.2933 12.6963C25.3573 12.7083 25.4233 12.7143 25.4913 12.7143C25.6593 12.7143 25.7893 12.6863 25.8813 12.6303C25.9733 12.5743 26.0413 12.5083 26.0853 12.4323C26.1293 12.3523 26.1553 12.2723 26.1633 12.1923C26.1753 12.1123 26.1813 12.0483 26.1813 12.0003V11.6823ZM29.4106 13.2003H28.4626L27.4006 10.0983H28.2946L28.9486 12.2163H28.9606L29.6146 10.0983H30.4606L29.4106 13.2003ZM32.8998 11.3163C32.8598 11.1003 32.7878 10.9363 32.6838 10.8243C32.5838 10.7123 32.4298 10.6563 32.2218 10.6563C32.0858 10.6563 31.9718 10.6803 31.8798 10.7283C31.7918 10.7723 31.7198 10.8283 31.6638 10.8963C31.6118 10.9643 31.5738 11.0363 31.5498 11.1123C31.5298 11.1883 31.5178 11.2563 31.5138 11.3163H32.8998ZM31.5138 11.8563C31.5258 12.1323 31.5958 12.3323 31.7238 12.4563C31.8518 12.5803 32.0358 12.6423 32.2758 12.6423C32.4478 12.6423 32.5958 12.6003 32.7198 12.5163C32.8438 12.4283 32.9198 12.3363 32.9478 12.2403H33.6978C33.5778 12.6123 33.3938 12.8783 33.1458 13.0383C32.8978 13.1983 32.5978 13.2783 32.2458 13.2783C32.0018 13.2783 31.7818 13.2403 31.5858 13.1643C31.3898 13.0843 31.2238 12.9723 31.0878 12.8283C30.9518 12.6843 30.8458 12.5123 30.7698 12.3123C30.6978 12.1123 30.6618 11.8923 30.6618 11.6523C30.6618 11.4203 30.6998 11.2043 30.7758 11.0043C30.8518 10.8043 30.9598 10.6323 31.0998 10.4883C31.2398 10.3403 31.4058 10.2243 31.5978 10.1403C31.7938 10.0563 32.0098 10.0143 32.2458 10.0143C32.5098 10.0143 32.7398 10.0663 32.9358 10.1703C33.1318 10.2703 33.2918 10.4063 33.4158 10.5783C33.5438 10.7503 33.6358 10.9463 33.6918 11.1663C33.7478 11.3863 33.7678 11.6163 33.7518 11.8563H31.5138Z" fill="white"/>
  <path d="M10.6328 13.2003H9.78076V10.4763H8.72476V9.83429C8.87276 9.83829 9.01476 9.82829 9.15076 9.80429C9.29076 9.77629 9.41476 9.73029 9.52276 9.66629C9.63476 9.59829 9.72876 9.51029 9.80476 9.40229C9.88076 9.29429 9.93076 9.16029 9.95476 9.00029H10.6328V13.2003Z" fill="white"/>
</svg>
