<svg width="55" height="23" viewBox="0 0 55 23" fill="none" xmlns="http://www.w3.org/2000/svg">
  <path d="M45.4645 6.99278C44.89 6.9971 44.416 6.40844 44.4085 5.83241C44.4011 5.25622 44.862 4.90993 45.4367 4.90545C46.0118 4.90097 46.4853 5.48979 46.4937 6.06582C46.5003 6.64233 46.0398 6.9883 45.4645 6.99278Z" fill="white"/>
  <path d="M43.9413 14.262C43.6787 14.6902 43.3414 15.5632 43.1559 16.2C42.9687 16.8429 41.9325 16.6894 42.0784 16.0397C42.1825 15.5754 42.4364 14.2212 43.0993 13.1248C43.7911 11.9811 44.6117 11.1379 44.6117 11.1379C44.4982 10.3834 43.9294 8.35446 43.9294 8.35446C43.9294 8.35446 41.9143 8.00866 40.9642 6.05242C40.6028 5.30837 41.404 5.05864 41.7906 5.50198C42.2746 6.05658 42.5806 6.82366 43.6988 7.20688C44.5715 7.50601 46.7969 7.34501 47.2565 7.39809C49.5877 7.667 49.8125 9.81444 49.7161 10.8707C49.656 11.5304 48.7478 11.5336 48.6809 10.8576C48.5948 9.98391 48.5069 8.92458 47.6295 8.60627C47.7335 9.50684 48.1778 10.9446 48.1778 10.9446C48.2849 12.2461 47.1084 12.3406 47.0358 13.6323C47.005 14.1752 47.4514 15.2107 47.8141 15.7084C48.2381 16.2905 47.3271 16.5652 46.8202 16.1031C46.3132 15.6411 45.9196 14.946 45.6552 14.1656C45.3368 13.226 45.7627 12.2415 45.7627 12.2415C44.9346 12.8166 44.42 13.4817 43.9413 14.262Z" fill="white"/>
  <rect x="0.77124" y="0.613068" width="53.5" height="21.1744" rx="4.5" stroke="white"/>
  <path d="M18.4456 12.4083H19.2856C19.4216 12.4083 19.5536 12.3863 19.6816 12.3423C19.8096 12.2983 19.9236 12.2263 20.0236 12.1263C20.1236 12.0223 20.2036 11.8883 20.2636 11.7243C20.3236 11.5603 20.3536 11.3603 20.3536 11.1243C20.3536 10.9083 20.3316 10.7143 20.2876 10.5423C20.2476 10.3663 20.1796 10.2163 20.0836 10.0923C19.9876 9.96829 19.8596 9.87429 19.6996 9.81029C19.5436 9.74229 19.3496 9.70829 19.1176 9.70829H18.4456V12.4083ZM17.5036 8.91629H19.3516C19.6276 8.91629 19.8836 8.96029 20.1196 9.04829C20.3596 9.13629 20.5656 9.26829 20.7376 9.44429C20.9136 9.62029 21.0496 9.84029 21.1456 10.1043C21.2456 10.3683 21.2956 10.6783 21.2956 11.0343C21.2956 11.3463 21.2556 11.6343 21.1756 11.8983C21.0956 12.1623 20.9736 12.3903 20.8096 12.5823C20.6496 12.7743 20.4476 12.9263 20.2036 13.0383C19.9636 13.1463 19.6796 13.2003 19.3516 13.2003H17.5036V8.91629ZM21.8249 11.0523C21.8369 10.8523 21.8869 10.6863 21.9749 10.5543C22.0629 10.4223 22.1749 10.3163 22.3109 10.2363C22.4469 10.1563 22.5989 10.1003 22.7669 10.0683C22.9389 10.0323 23.1109 10.0143 23.2829 10.0143C23.4389 10.0143 23.5969 10.0263 23.7569 10.0503C23.9169 10.0703 24.0629 10.1123 24.1949 10.1763C24.3269 10.2403 24.4349 10.3303 24.5189 10.4463C24.6029 10.5583 24.6449 10.7083 24.6449 10.8963V12.5103C24.6449 12.6503 24.6529 12.7843 24.6689 12.9123C24.6849 13.0403 24.7129 13.1363 24.7529 13.2003H23.8889C23.8729 13.1523 23.8589 13.1043 23.8469 13.0563C23.8389 13.0043 23.8329 12.9523 23.8289 12.9003C23.6929 13.0403 23.5329 13.1383 23.3489 13.1943C23.1649 13.2503 22.9769 13.2783 22.7849 13.2783C22.6369 13.2783 22.4989 13.2603 22.3709 13.2243C22.2429 13.1883 22.1309 13.1323 22.0349 13.0563C21.9389 12.9803 21.8629 12.8843 21.8069 12.7683C21.7549 12.6523 21.7289 12.5143 21.7289 12.3543C21.7289 12.1783 21.7589 12.0343 21.8189 11.9223C21.8829 11.8063 21.9629 11.7143 22.0589 11.6463C22.1589 11.5783 22.2709 11.5283 22.3949 11.4963C22.5229 11.4603 22.6509 11.4323 22.7789 11.4123C22.9069 11.3923 23.0329 11.3763 23.1569 11.3643C23.2809 11.3523 23.3909 11.3343 23.4869 11.3103C23.5829 11.2863 23.6589 11.2523 23.7149 11.2083C23.7709 11.1603 23.7969 11.0923 23.7929 11.0043C23.7929 10.9123 23.7769 10.8403 23.7449 10.7883C23.7169 10.7323 23.6769 10.6903 23.6249 10.6623C23.5769 10.6303 23.5189 10.6103 23.4509 10.6023C23.3869 10.5903 23.3169 10.5843 23.2409 10.5843C23.0729 10.5843 22.9409 10.6203 22.8449 10.6923C22.7489 10.7643 22.6929 10.8843 22.6769 11.0523H21.8249ZM23.7929 11.6823C23.7569 11.7143 23.7109 11.7403 23.6549 11.7603C23.6029 11.7763 23.5449 11.7903 23.4809 11.8023C23.4209 11.8143 23.3569 11.8243 23.2889 11.8323C23.2209 11.8403 23.1529 11.8503 23.0849 11.8623C23.0209 11.8743 22.9569 11.8903 22.8929 11.9103C22.8329 11.9303 22.7789 11.9583 22.7309 11.9943C22.6869 12.0263 22.6509 12.0683 22.6229 12.1203C22.5949 12.1723 22.5809 12.2383 22.5809 12.3183C22.5809 12.3943 22.5949 12.4583 22.6229 12.5103C22.6509 12.5623 22.6889 12.6043 22.7369 12.6363C22.7849 12.6643 22.8409 12.6843 22.9049 12.6963C22.9689 12.7083 23.0349 12.7143 23.1029 12.7143C23.2709 12.7143 23.4009 12.6863 23.4929 12.6303C23.5849 12.5743 23.6529 12.5083 23.6969 12.4323C23.7409 12.3523 23.7669 12.2723 23.7749 12.1923C23.7869 12.1123 23.7929 12.0483 23.7929 12.0003V11.6823ZM25.3062 10.0983H26.1162V10.5303H26.1342C26.2422 10.3503 26.3822 10.2203 26.5542 10.1403C26.7262 10.0563 26.9022 10.0143 27.0822 10.0143C27.3102 10.0143 27.4962 10.0463 27.6402 10.1103C27.7882 10.1703 27.9042 10.2563 27.9882 10.3683C28.0722 10.4763 28.1302 10.6103 28.1622 10.7703C28.1982 10.9263 28.2162 11.1003 28.2162 11.2923V13.2003H27.3642V11.4483C27.3642 11.1923 27.3242 11.0023 27.2442 10.8783C27.1642 10.7503 27.0222 10.6863 26.8182 10.6863C26.5862 10.6863 26.4182 10.7563 26.3142 10.8963C26.2102 11.0323 26.1582 11.2583 26.1582 11.5743V13.2003H25.3062V10.0983ZM30.9748 11.1903C30.9188 10.8343 30.7088 10.6563 30.3448 10.6563C30.2088 10.6563 30.0948 10.6883 30.0028 10.7523C29.9108 10.8123 29.8348 10.8923 29.7748 10.9923C29.7188 11.0883 29.6788 11.1963 29.6548 11.3163C29.6308 11.4323 29.6188 11.5483 29.6188 11.6643C29.6188 11.7763 29.6308 11.8903 29.6548 12.0063C29.6788 12.1223 29.7168 12.2283 29.7688 12.3243C29.8248 12.4163 29.8988 12.4923 29.9908 12.5523C30.0828 12.6123 30.1948 12.6423 30.3268 12.6423C30.5308 12.6423 30.6868 12.5863 30.7948 12.4743C30.9068 12.3583 30.9768 12.2043 31.0048 12.0123H31.8268C31.7708 12.4243 31.6108 12.7383 31.3468 12.9543C31.0828 13.1703 30.7448 13.2783 30.3328 13.2783C30.1008 13.2783 29.8868 13.2403 29.6908 13.1643C29.4988 13.0843 29.3348 12.9743 29.1988 12.8343C29.0628 12.6943 28.9568 12.5283 28.8808 12.3363C28.8048 12.1403 28.7668 11.9263 28.7668 11.6943C28.7668 11.4543 28.8008 11.2323 28.8688 11.0283C28.9408 10.8203 29.0448 10.6423 29.1808 10.4943C29.3168 10.3423 29.4828 10.2243 29.6788 10.1403C29.8748 10.0563 30.0988 10.0143 30.3508 10.0143C30.5348 10.0143 30.7108 10.0383 30.8788 10.0863C31.0508 10.1343 31.2028 10.2083 31.3348 10.3083C31.4708 10.4043 31.5808 10.5263 31.6648 10.6743C31.7488 10.8183 31.7968 10.9903 31.8088 11.1903H30.9748ZM34.3961 11.3163C34.3561 11.1003 34.2841 10.9363 34.1801 10.8243C34.0801 10.7123 33.9261 10.6563 33.7181 10.6563C33.5821 10.6563 33.4681 10.6803 33.3761 10.7283C33.2881 10.7723 33.2161 10.8283 33.1601 10.8963C33.1081 10.9643 33.0701 11.0363 33.0461 11.1123C33.0261 11.1883 33.0141 11.2563 33.0101 11.3163H34.3961ZM33.0101 11.8563C33.0221 12.1323 33.0921 12.3323 33.2201 12.4563C33.3481 12.5803 33.5321 12.6423 33.7721 12.6423C33.9441 12.6423 34.0921 12.6003 34.2161 12.5163C34.3401 12.4283 34.4161 12.3363 34.4441 12.2403H35.1941C35.0741 12.6123 34.8901 12.8783 34.6421 13.0383C34.3941 13.1983 34.0941 13.2783 33.7421 13.2783C33.4981 13.2783 33.2781 13.2403 33.0821 13.1643C32.8861 13.0843 32.7201 12.9723 32.5841 12.8283C32.4481 12.6843 32.3421 12.5123 32.2661 12.3123C32.1941 12.1123 32.1581 11.8923 32.1581 11.6523C32.1581 11.4203 32.1961 11.2043 32.2721 11.0043C32.3481 10.8043 32.4561 10.6323 32.5961 10.4883C32.7361 10.3403 32.9021 10.2243 33.0941 10.1403C33.2901 10.0563 33.5061 10.0143 33.7421 10.0143C34.0061 10.0143 34.2361 10.0663 34.4321 10.1703C34.6281 10.2703 34.7881 10.4063 34.9121 10.5783C35.0401 10.7503 35.1321 10.9463 35.1881 11.1663C35.2441 11.3863 35.2641 11.6163 35.2481 11.8563H33.0101Z" fill="white"/>
  <path d="M9.25643 10.6983C9.34843 10.7063 9.44643 10.7063 9.55043 10.6983C9.65443 10.6903 9.75043 10.6683 9.83843 10.6323C9.93043 10.5923 10.0044 10.5363 10.0604 10.4643C10.1204 10.3923 10.1504 10.2963 10.1504 10.1763C10.1504 9.99629 10.0904 9.85829 9.97043 9.76229C9.85043 9.66629 9.71243 9.61829 9.55643 9.61829C9.34043 9.61829 9.17643 9.69029 9.06443 9.83429C8.95643 9.97429 8.90443 10.1523 8.90843 10.3683H8.09843C8.10643 10.1523 8.14443 9.95629 8.21243 9.78029C8.28443 9.60029 8.38243 9.44629 8.50643 9.31829C8.63443 9.19029 8.78643 9.09229 8.96243 9.02429C9.13843 8.95229 9.33443 8.91629 9.55043 8.91629C9.71843 8.91629 9.88643 8.94229 10.0544 8.99429C10.2224 9.04229 10.3724 9.11629 10.5044 9.21629C10.6404 9.31629 10.7504 9.43829 10.8344 9.58229C10.9184 9.72629 10.9604 9.89229 10.9604 10.0803C10.9604 10.2843 10.9104 10.4643 10.8104 10.6203C10.7144 10.7763 10.5684 10.8823 10.3724 10.9383V10.9503C10.6044 11.0023 10.7864 11.1143 10.9184 11.2863C11.0504 11.4583 11.1164 11.6643 11.1164 11.9043C11.1164 12.1243 11.0724 12.3203 10.9844 12.4923C10.9004 12.6643 10.7864 12.8083 10.6424 12.9243C10.4984 13.0403 10.3324 13.1283 10.1444 13.1883C9.95643 13.2483 9.76043 13.2783 9.55643 13.2783C9.32043 13.2783 9.10443 13.2443 8.90843 13.1763C8.71643 13.1083 8.55243 13.0103 8.41643 12.8823C8.28043 12.7503 8.17443 12.5903 8.09843 12.4023C8.02643 12.2143 7.99243 11.9983 7.99643 11.7543H8.80643C8.81043 11.8663 8.82843 11.9743 8.86043 12.0783C8.89243 12.1783 8.93843 12.2663 8.99843 12.3423C9.05843 12.4143 9.13243 12.4723 9.22043 12.5163C9.31243 12.5603 9.42043 12.5823 9.54443 12.5823C9.73643 12.5823 9.89843 12.5243 10.0304 12.4083C10.1624 12.2883 10.2284 12.1263 10.2284 11.9223C10.2284 11.7623 10.1964 11.6403 10.1324 11.5563C10.0724 11.4723 9.99443 11.4123 9.89843 11.3763C9.80243 11.3363 9.69643 11.3143 9.58043 11.3103C9.46843 11.3023 9.36043 11.2983 9.25643 11.2983V10.6983Z" fill="white"/>
</svg>
