<svg width="56" height="23" viewBox="0 0 56 23" fill="none" xmlns="http://www.w3.org/2000/svg">
  <path d="M46.1605 6.99278C45.5861 6.9971 45.1121 6.40844 45.1046 5.83241C45.0971 5.25622 45.5581 4.90993 46.1327 4.90545C46.7078 4.90097 47.1814 5.48979 47.1897 6.06582C47.1963 6.64233 46.7358 6.9883 46.1605 6.99278Z" fill="white"/>
  <path d="M44.6374 14.262C44.3747 14.6902 44.0375 15.5632 43.852 16.2C43.6648 16.8429 42.6285 16.6894 42.7745 16.0397C42.8786 15.5754 43.1324 14.2212 43.7954 13.1248C44.4871 11.9811 45.3078 11.1379 45.3078 11.1379C45.1943 10.3834 44.6254 8.35446 44.6254 8.35446C44.6254 8.35446 42.6104 8.00866 41.6602 6.05242C41.2988 5.30837 42.1 5.05864 42.4866 5.50198C42.9707 6.05658 43.2767 6.82366 44.3948 7.20688C45.2676 7.50601 47.4929 7.34501 47.9526 7.39809C50.2837 7.667 50.5085 9.81444 50.4121 10.8707C50.3521 11.5304 49.4438 11.5336 49.3769 10.8576C49.2908 9.98391 49.203 8.92458 48.3255 8.60627C48.4296 9.50684 48.8739 10.9446 48.8739 10.9446C48.9809 12.2461 47.8045 12.3406 47.7318 13.6323C47.7011 14.1752 48.1475 15.2107 48.5101 15.7084C48.9341 16.2905 48.0231 16.5652 47.5162 16.1031C47.0093 15.6411 46.6156 14.946 46.3513 14.1656C46.0329 13.226 46.4588 12.2415 46.4588 12.2415C45.6307 12.8166 45.1161 13.4817 44.6374 14.262Z" fill="white"/>
  <rect x="1.46729" y="0.613068" width="53.5" height="21.1744" rx="4.5" stroke="white"/>
  <path d="M19.1416 12.4083H19.9816C20.1176 12.4083 20.2496 12.3863 20.3776 12.3423C20.5056 12.2983 20.6196 12.2263 20.7196 12.1263C20.8196 12.0223 20.8996 11.8883 20.9596 11.7243C21.0196 11.5603 21.0496 11.3603 21.0496 11.1243C21.0496 10.9083 21.0276 10.7143 20.9836 10.5423C20.9436 10.3663 20.8756 10.2163 20.7796 10.0923C20.6836 9.96829 20.5556 9.87429 20.3956 9.81029C20.2396 9.74229 20.0456 9.70829 19.8136 9.70829H19.1416V12.4083ZM18.1996 8.91629H20.0476C20.3236 8.91629 20.5796 8.96029 20.8156 9.04829C21.0556 9.13629 21.2616 9.26829 21.4336 9.44429C21.6096 9.62029 21.7456 9.84029 21.8416 10.1043C21.9416 10.3683 21.9916 10.6783 21.9916 11.0343C21.9916 11.3463 21.9516 11.6343 21.8716 11.8983C21.7916 12.1623 21.6696 12.3903 21.5056 12.5823C21.3456 12.7743 21.1436 12.9263 20.8996 13.0383C20.6596 13.1463 20.3756 13.2003 20.0476 13.2003H18.1996V8.91629ZM22.5209 11.0523C22.5329 10.8523 22.5829 10.6863 22.6709 10.5543C22.7589 10.4223 22.8709 10.3163 23.0069 10.2363C23.1429 10.1563 23.2949 10.1003 23.4629 10.0683C23.6349 10.0323 23.8069 10.0143 23.9789 10.0143C24.1349 10.0143 24.2929 10.0263 24.4529 10.0503C24.6129 10.0703 24.7589 10.1123 24.8909 10.1763C25.0229 10.2403 25.1309 10.3303 25.2149 10.4463C25.2989 10.5583 25.3409 10.7083 25.3409 10.8963V12.5103C25.3409 12.6503 25.3489 12.7843 25.3649 12.9123C25.3809 13.0403 25.4089 13.1363 25.4489 13.2003H24.5849C24.5689 13.1523 24.5549 13.1043 24.5429 13.0563C24.5349 13.0043 24.5289 12.9523 24.5249 12.9003C24.3889 13.0403 24.2289 13.1383 24.0449 13.1943C23.8609 13.2503 23.6729 13.2783 23.4809 13.2783C23.3329 13.2783 23.1949 13.2603 23.0669 13.2243C22.9389 13.1883 22.8269 13.1323 22.7309 13.0563C22.6349 12.9803 22.5589 12.8843 22.5029 12.7683C22.4509 12.6523 22.4249 12.5143 22.4249 12.3543C22.4249 12.1783 22.4549 12.0343 22.5149 11.9223C22.5789 11.8063 22.6589 11.7143 22.7549 11.6463C22.8549 11.5783 22.9669 11.5283 23.0909 11.4963C23.2189 11.4603 23.3469 11.4323 23.4749 11.4123C23.6029 11.3923 23.7289 11.3763 23.8529 11.3643C23.9769 11.3523 24.0869 11.3343 24.1829 11.3103C24.2789 11.2863 24.3549 11.2523 24.4109 11.2083C24.4669 11.1603 24.4929 11.0923 24.4889 11.0043C24.4889 10.9123 24.4729 10.8403 24.4409 10.7883C24.4129 10.7323 24.3729 10.6903 24.3209 10.6623C24.2729 10.6303 24.2149 10.6103 24.1469 10.6023C24.0829 10.5903 24.0129 10.5843 23.9369 10.5843C23.7689 10.5843 23.6369 10.6203 23.5409 10.6923C23.4449 10.7643 23.3889 10.8843 23.3729 11.0523H22.5209ZM24.4889 11.6823C24.4529 11.7143 24.4069 11.7403 24.3509 11.7603C24.2989 11.7763 24.2409 11.7903 24.1769 11.8023C24.1169 11.8143 24.0529 11.8243 23.9849 11.8323C23.9169 11.8403 23.8489 11.8503 23.7809 11.8623C23.7169 11.8743 23.6529 11.8903 23.5889 11.9103C23.5289 11.9303 23.4749 11.9583 23.4269 11.9943C23.3829 12.0263 23.3469 12.0683 23.3189 12.1203C23.2909 12.1723 23.2769 12.2383 23.2769 12.3183C23.2769 12.3943 23.2909 12.4583 23.3189 12.5103C23.3469 12.5623 23.3849 12.6043 23.4329 12.6363C23.4809 12.6643 23.5369 12.6843 23.6009 12.6963C23.6649 12.7083 23.7309 12.7143 23.7989 12.7143C23.9669 12.7143 24.0969 12.6863 24.1889 12.6303C24.2809 12.5743 24.3489 12.5083 24.3929 12.4323C24.4369 12.3523 24.4629 12.2723 24.4709 12.1923C24.4829 12.1123 24.4889 12.0483 24.4889 12.0003V11.6823ZM26.0022 10.0983H26.8122V10.5303H26.8302C26.9382 10.3503 27.0782 10.2203 27.2502 10.1403C27.4222 10.0563 27.5982 10.0143 27.7782 10.0143C28.0062 10.0143 28.1922 10.0463 28.3362 10.1103C28.4842 10.1703 28.6002 10.2563 28.6842 10.3683C28.7682 10.4763 28.8262 10.6103 28.8582 10.7703C28.8942 10.9263 28.9122 11.1003 28.9122 11.2923V13.2003H28.0602V11.4483C28.0602 11.1923 28.0202 11.0023 27.9402 10.8783C27.8602 10.7503 27.7182 10.6863 27.5142 10.6863C27.2822 10.6863 27.1142 10.7563 27.0102 10.8963C26.9062 11.0323 26.8542 11.2583 26.8542 11.5743V13.2003H26.0022V10.0983ZM31.6709 11.1903C31.6149 10.8343 31.4049 10.6563 31.0409 10.6563C30.9049 10.6563 30.7909 10.6883 30.6989 10.7523C30.6069 10.8123 30.5309 10.8923 30.4709 10.9923C30.4149 11.0883 30.3749 11.1963 30.3509 11.3163C30.3269 11.4323 30.3149 11.5483 30.3149 11.6643C30.3149 11.7763 30.3269 11.8903 30.3509 12.0063C30.3749 12.1223 30.4129 12.2283 30.4649 12.3243C30.5209 12.4163 30.5949 12.4923 30.6869 12.5523C30.7789 12.6123 30.8909 12.6423 31.0229 12.6423C31.2269 12.6423 31.3829 12.5863 31.4909 12.4743C31.6029 12.3583 31.6729 12.2043 31.7009 12.0123H32.5229C32.4669 12.4243 32.3069 12.7383 32.0429 12.9543C31.7789 13.1703 31.4409 13.2783 31.0289 13.2783C30.7969 13.2783 30.5829 13.2403 30.3869 13.1643C30.1949 13.0843 30.0309 12.9743 29.8949 12.8343C29.7589 12.6943 29.6529 12.5283 29.5769 12.3363C29.5009 12.1403 29.4629 11.9263 29.4629 11.6943C29.4629 11.4543 29.4969 11.2323 29.5649 11.0283C29.6369 10.8203 29.7409 10.6423 29.8769 10.4943C30.0129 10.3423 30.1789 10.2243 30.3749 10.1403C30.5709 10.0563 30.7949 10.0143 31.0469 10.0143C31.2309 10.0143 31.4069 10.0383 31.5749 10.0863C31.7469 10.1343 31.8989 10.2083 32.0309 10.3083C32.1669 10.4043 32.2769 10.5263 32.3609 10.6743C32.4449 10.8183 32.4929 10.9903 32.5049 11.1903H31.6709ZM35.0922 11.3163C35.0522 11.1003 34.9802 10.9363 34.8762 10.8243C34.7762 10.7123 34.6222 10.6563 34.4142 10.6563C34.2782 10.6563 34.1642 10.6803 34.0722 10.7283C33.9842 10.7723 33.9122 10.8283 33.8562 10.8963C33.8042 10.9643 33.7662 11.0363 33.7422 11.1123C33.7222 11.1883 33.7102 11.2563 33.7062 11.3163H35.0922ZM33.7062 11.8563C33.7182 12.1323 33.7882 12.3323 33.9162 12.4563C34.0442 12.5803 34.2282 12.6423 34.4682 12.6423C34.6402 12.6423 34.7882 12.6003 34.9122 12.5163C35.0362 12.4283 35.1122 12.3363 35.1402 12.2403H35.8902C35.7702 12.6123 35.5862 12.8783 35.3382 13.0383C35.0902 13.1983 34.7902 13.2783 34.4382 13.2783C34.1942 13.2783 33.9742 13.2403 33.7782 13.1643C33.5822 13.0843 33.4162 12.9723 33.2802 12.8283C33.1442 12.6843 33.0382 12.5123 32.9622 12.3123C32.8902 12.1123 32.8542 11.8923 32.8542 11.6523C32.8542 11.4203 32.8922 11.2043 32.9682 11.0043C33.0442 10.8043 33.1522 10.6323 33.2922 10.4883C33.4322 10.3403 33.5982 10.2243 33.7902 10.1403C33.9862 10.0563 34.2022 10.0143 34.4382 10.0143C34.7022 10.0143 34.9322 10.0663 35.1282 10.1703C35.3242 10.2703 35.4842 10.4063 35.6082 10.5783C35.7362 10.7503 35.8282 10.9463 35.8842 11.1663C35.9402 11.3863 35.9602 11.6163 35.9442 11.8563H33.7062Z" fill="white"/>
  <path d="M8.80647 10.6143C8.79847 10.3743 8.82647 10.1523 8.89047 9.94829C8.95447 9.74029 9.05047 9.56029 9.17847 9.40829C9.30647 9.25229 9.46647 9.13229 9.65847 9.04829C9.85447 8.96029 10.0785 8.91629 10.3305 8.91629C10.5225 8.91629 10.7045 8.94629 10.8765 9.00629C11.0525 9.06629 11.2065 9.15229 11.3385 9.26429C11.4705 9.37629 11.5745 9.51429 11.6505 9.67829C11.7305 9.84229 11.7705 10.0263 11.7705 10.2303C11.7705 10.4423 11.7365 10.6243 11.6685 10.7763C11.6005 10.9283 11.5105 11.0643 11.3985 11.1843C11.2865 11.3003 11.1585 11.4063 11.0145 11.5023C10.8745 11.5983 10.7325 11.6943 10.5885 11.7903C10.4445 11.8823 10.3045 11.9823 10.1685 12.0903C10.0325 12.1983 9.91247 12.3243 9.80847 12.4683H11.7945V13.2003H8.71047C8.71047 12.9563 8.74447 12.7443 8.81247 12.5643C8.88447 12.3843 8.98047 12.2243 9.10047 12.0843C9.22047 11.9403 9.36047 11.8083 9.52047 11.6883C9.68447 11.5683 9.85647 11.4463 10.0365 11.3223C10.1285 11.2583 10.2265 11.1943 10.3305 11.1303C10.4345 11.0623 10.5285 10.9883 10.6125 10.9083C10.7005 10.8283 10.7725 10.7383 10.8285 10.6383C10.8885 10.5383 10.9185 10.4243 10.9185 10.2963C10.9185 10.0923 10.8585 9.93429 10.7385 9.82229C10.6225 9.70629 10.4725 9.64829 10.2885 9.64829C10.1645 9.64829 10.0585 9.67829 9.97047 9.73829C9.88647 9.79429 9.81847 9.87029 9.76647 9.96629C9.71447 10.0583 9.67647 10.1623 9.65247 10.2783C9.63247 10.3903 9.62247 10.5023 9.62247 10.6143H8.80647Z" fill="white"/>
</svg>
