<svg width="33" height="32" viewBox="0 0 33 32" fill="none" xmlns="http://www.w3.org/2000/svg">
<circle cx="16.4893" cy="15.8507" r="15.75" fill="white"/>
<g clip-path="url(#clip0_87_387)">
<path d="M16.4892 8.22571C14.0867 8.22571 12.1392 10.1733 12.1392 12.5757V16.2007C12.1392 18.6031 14.0867 20.5507 16.4892 20.5507C18.8916 20.5507 20.8392 18.6031 20.8392 16.2007V12.5757C20.8392 10.1733 18.8916 8.22571 16.4892 8.22571Z" fill="black"/>
<path d="M23.0143 15.4757C23.4147 15.4757 23.7393 15.8003 23.7393 16.2007C23.7393 20.2047 20.4933 23.4507 16.4893 23.4507C12.4852 23.4507 9.23926 20.2047 9.23926 16.2007C9.23926 15.8003 9.56385 15.4757 9.96426 15.4757C10.3647 15.4757 10.6893 15.8003 10.6893 16.2007C10.6893 19.404 13.286 22.0007 16.4893 22.0007C19.6925 22.0007 22.2893 19.404 22.2893 16.2007C22.2893 15.8003 22.6138 15.4757 23.0143 15.4757Z" fill="black"/>
<path d="M15.0392 24.1757C14.6388 24.1757 14.3142 24.5003 14.3142 24.9007C14.3142 25.3011 14.6388 25.6257 15.0392 25.6257H17.9392C18.3396 25.6257 18.6642 25.3011 18.6642 24.9007C18.6642 24.5003 18.3396 24.1757 17.9392 24.1757H15.0392Z" fill="black"/>
</g>
<defs>
<clipPath id="clip0_87_387">
<rect width="14.5" height="21.75" fill="white" transform="translate(9.23926 8.22571)"/>
</clipPath>
</defs>
</svg>
