<svg width="32" height="33" viewBox="0 0 32 33" fill="none" xmlns="http://www.w3.org/2000/svg">
  <circle cx="15.9785" cy="16.6257" r="15.75" fill="white"/>
  <path opacity="0.5" d="M19.7591 21.6157C18.8578 22.1257 17.8623 22.4472 16.8329 22.5606V26.025H15.1242V22.5606C13.3908 22.3663 11.7749 21.5887 10.5415 20.3553C9.30812 19.122 8.53051 17.506 8.33622 15.7726H10.0578C10.191 16.6948 10.5377 17.5732 11.0705 18.3377C11.6032 19.1022 12.3071 19.7316 13.1262 20.1759C13.9452 20.6202 14.8567 20.867 15.788 20.8967C16.7193 20.9264 17.6447 20.7381 18.4904 20.3469L17.1652 19.0226C16.5289 19.2067 15.8585 19.2402 15.207 19.1205C14.5555 19.0009 13.9407 18.7314 13.4112 18.3333C12.8818 17.9352 12.4522 17.4194 12.1564 16.8267C11.8605 16.2341 11.7066 15.5807 11.7067 14.9183V13.5632L6.91626 8.77367L8.1252 7.56476L25.0408 24.4812L23.8319 25.6893L19.7591 21.6157ZM22.2795 19.3268L21.0466 18.0948C21.4815 17.4028 21.778 16.6167 21.8984 15.7726H23.6208C23.4798 17.0513 23.0185 18.2738 22.2795 19.3268ZM19.7933 16.8415L12.2919 9.34013C12.766 8.5303 13.4936 7.8991 14.3622 7.54402C15.2308 7.18898 16.1922 7.12981 17.0978 7.37568C18.0034 7.62156 18.8029 8.15878 19.3727 8.90436C19.9425 9.64996 20.2509 10.5624 20.2504 11.5008L20.2512 14.9183C20.2522 15.5863 20.0959 16.2451 19.795 16.8415H19.7933Z" fill="black"/>
</svg>
