<svg width="32" height="33" viewBox="0 0 32 33" fill="none" xmlns="http://www.w3.org/2000/svg">
<circle cx="15.9893" cy="16.6257" r="15.75" fill="white"/>
<g opacity="0.5">
<path d="M16.2954 9.48658C16.5944 9.6104 16.7893 9.90212 16.7893 10.2257V23.0257C16.7893 23.3493 16.5944 23.641 16.2954 23.7648C15.9965 23.8887 15.6524 23.8202 15.4236 23.5914L12.4579 20.6257H10.3893C9.06378 20.6257 7.98926 19.5512 7.98926 18.2257V15.0257C7.98926 13.7002 9.06378 12.6257 10.3893 12.6257H12.4579L15.4236 9.66C15.6524 9.4312 15.9965 9.36276 16.2954 9.48658Z" fill="black"/>
<path d="M18.955 13.66C18.6426 13.3476 18.1361 13.3476 17.8237 13.66C17.5113 13.9724 17.5113 14.4789 17.8237 14.7914L19.658 16.6257L17.8237 18.46C17.5113 18.7724 17.5113 19.279 17.8237 19.5914C18.1361 19.9038 18.6426 19.9038 18.955 19.5914L20.7893 17.757L22.6237 19.5914C22.9361 19.9038 23.4426 19.9038 23.755 19.5914C24.0674 19.279 24.0674 18.7724 23.755 18.46L21.9207 16.6257L23.755 14.7914C24.0674 14.4789 24.0674 13.9724 23.755 13.66C23.4426 13.3476 22.9361 13.3476 22.6237 13.66L20.7893 15.4943L18.955 13.66Z" fill="black"/>
</g>
</svg>
