<svg width="32" height="32" viewBox="0 0 32 32" fill="none" xmlns="http://www.w3.org/2000/svg">
<circle cx="15.9893" cy="15.8507" r="15.75" fill="white"/>
<path d="M17.077 7.89774C17.38 8.01962 17.5785 8.31339 17.5785 8.63993V23.0399C17.5785 23.3664 17.38 23.6602 17.077 23.782C16.7742 23.904 16.4275 23.8295 16.2014 23.5939L12.2775 19.8399H10.3785C9.05303 19.8399 7.97852 18.7654 7.97852 17.4399V14.2399C7.97852 12.9144 9.05302 11.8399 10.3785 11.8399H12.2775L16.2014 8.0859C16.4275 7.85034 16.7742 7.77586 17.077 7.89774Z" fill="black"/>
<path d="M19.9785 11.84C19.5366 11.84 19.1785 12.1981 19.1785 12.64C19.1785 13.0818 19.5366 13.44 19.9785 13.44C21.304 13.44 22.3785 14.5144 22.3785 15.84C22.3785 17.1655 21.304 18.2399 19.9785 18.2399C19.5366 18.2399 19.1785 18.5981 19.1785 19.0399C19.1785 19.4818 19.5366 19.8399 19.9785 19.8399C22.1876 19.8399 23.9784 18.0491 23.9784 15.84C23.9784 13.6308 22.1876 11.84 19.9785 11.84Z" fill="black"/>
</svg>
