<svg width="25" height="25" viewBox="0 0 25 25" fill="none" xmlns="http://www.w3.org/2000/svg">
  <circle cx="12.9033" cy="12.4484" r="12.0322" fill="white"/>
  <path d="M15.9075 18.5693C17.2524 17.1675 18.4291 10.6471 18.5188 10.1314C18.5231 10.1064 18.5259 10.0812 18.5274 10.0559C18.5402 9.8621 18.5602 9.08427 18.0658 8.96745C17.496 8.83212 17.2566 9.64129 17.2566 9.64129C17.2566 9.64129 16.8378 11.0118 16.3891 12.1358C16.3619 12.2047 16.3095 12.2606 16.2426 12.2924C16.1757 12.3241 16.0992 12.3292 16.0286 12.3067L15.9602 12.2839C15.8953 12.2627 15.8398 12.2195 15.8031 12.1618C15.7665 12.1041 15.751 12.0355 15.7594 11.9677C15.8862 10.9861 16.2851 7.78788 16.2851 7.53715C16.2851 7.24083 16.3107 6.50146 15.5842 6.48579C14.8576 6.47012 14.7465 7.3491 14.7465 7.3491C14.7465 7.3491 14.302 10.1314 14.0242 11.4135C14.0086 11.4835 13.968 11.5453 13.91 11.5876C13.8521 11.6298 13.7808 11.6494 13.7094 11.6429C13.6377 11.636 13.5711 11.6033 13.5218 11.5509C13.4725 11.4984 13.444 11.4299 13.4415 11.3579L13.2991 7.07415V7.04281C13.3076 6.91175 13.3361 6 12.4443 6C11.6337 6 11.5896 7.04281 11.5896 7.04281C11.5896 7.04281 11.5596 9.54014 11.6067 11.1913C11.6079 11.2377 11.5982 11.2838 11.5784 11.3259C11.5586 11.3679 11.5293 11.4048 11.4927 11.4334C11.367 11.5193 11.2479 11.6146 11.1365 11.7184C11.1251 11.7298 11.1251 11.6899 11.1194 11.6742C11.0425 11.4805 10.551 9.98889 9.77034 8.17537C9.52673 7.60553 9.2005 7.53857 8.86571 7.67249C8.53093 7.8064 8.41554 8.24233 8.40984 8.56287C8.40984 9.45894 9.46262 12.093 10.0467 13.4863C10.0694 13.5414 10.0748 13.602 10.0624 13.6602C10.0499 13.7185 10.0201 13.7716 9.97691 13.8125C9.76037 14.0205 9.76037 13.9778 9.47545 14.2727L9.45408 14.2627L9.41561 14.2399C8.86347 13.884 8.24841 13.6369 7.60351 13.5119C7.43917 13.48 7.26888 13.5024 7.11839 13.5757C6.96791 13.6491 6.84542 13.7696 6.76945 13.9188C6.69348 14.068 6.66817 14.2378 6.69733 14.4027C6.7265 14.5676 6.80856 14.7185 6.9311 14.8326C7.57645 15.4252 8.35571 16.2116 9.50821 17.2943C9.5487 17.3316 9.58457 17.3737 9.61506 17.4196C11.0753 19.5423 12.8518 19.6477 13.2222 19.6449C13.2222 19.6491 14.8647 19.6548 15.9075 18.5693Z" fill="black"/>
</svg>
