<svg width="204" height="263" viewBox="0 0 204 263" fill="none" xmlns="http://www.w3.org/2000/svg">
<path fill-rule="evenodd" clip-rule="evenodd" d="M29.1431 0H58.2859V29.1429H29.1431V0ZM0 0.00235281L29.1431 0V29.1429L0 29.1452V0.00235281ZM58.2859 29.1429H29.1431V58.2894H58.2859V29.1429ZM29.1431 87.428H58.2859V116.571H29.1431V87.428ZM58.2859 0V29.1429H87.428H116.571V0H58.2859ZM58.2859 58.2894L87.4301 58.2908V87.428H116.571V116.571H87.428V87.4337H58.2873L58.2859 58.2894ZM87.428 116.571H58.2859L58.2873 145.715H87.4301L87.428 116.571ZM116.571 29.1429H87.428L87.4301 58.2908L116.571 58.2894V29.1429ZM116.571 145.716L87.4301 145.715H58.2873V174.859H116.571V145.716ZM116.571 58.2894L174.857 58.2908V116.571H145.714V87.4337H116.572L116.571 58.2894ZM145.714 116.571H116.571V145.716L145.715 145.715L145.714 116.571ZM116.572 174.854H145.714L145.715 145.715L174.857 145.716V174.859H145.715V203.995H174.857V233.138H116.572V174.854ZM174.857 58.2908H204V116.571H174.857V58.2908ZM174.857 203.995V233.138H204V145.716H174.857L174.857 174.854L174.857 174.859V203.995ZM174.857 116.571H204V145.716H174.857V116.571ZM0 29.1452L29.1431 29.1429V58.2894H0V29.1452ZM29.1431 58.2894H0V116.571H29.1431L29.1429 87.4337L29.1431 87.428V58.2894ZM29.1431 116.571H0V145.715H29.1429L29.1431 116.571ZM29.1429 145.715H58.2873V174.859H29.1431L29.1429 145.715ZM0 145.715H29.1429V174.854L29.1431 174.859L29.1429 233.138H0V145.715ZM29.1429 233.149H0V262.292H29.1429V233.149Z" fill="white"/>
</svg>
