<svg width="29" height="29" viewBox="0 0 29 29" fill="none" xmlns="http://www.w3.org/2000/svg">
<path d="M28.123 11.2907C28.123 9.6761 28.123 8.28463 27.9655 7.09882C27.7249 5.32229 27.1254 4.00521 26.0752 2.95505C25.0251 1.90488 23.708 1.30541 21.9315 1.06475C20.7456 0.907227 19.3542 0.907227 17.7395 0.907227H10.5065C8.89192 0.907227 7.50045 0.907227 6.31464 1.06475C4.53811 1.30541 3.22541 1.90488 2.17087 2.95505C1.1207 4.00521 0.516859 5.32229 0.280572 7.09882C0.123047 8.28463 0.123047 9.6761 0.123047 11.2907V14.5856C0.123047 16.2002 0.123047 17.5917 0.280572 18.7775C0.516859 20.554 1.1207 21.8711 2.17087 22.9213C3.22103 23.9715 4.53811 24.5709 6.31464 24.8116C6.94474 24.8947 7.74986 24.9385 8.2837 24.956L10.9004 27.5726C11.7624 28.4347 12.9044 28.9072 14.1252 28.9072C15.346 28.9072 16.4881 28.4347 17.3501 27.5726L19.9668 24.956C20.5094 24.9385 21.3057 24.8947 21.9358 24.8116C23.708 24.5709 25.0251 23.9715 26.0796 22.9213C27.1298 21.8711 27.7336 20.554 27.9699 18.7775C28.1274 17.5917 28.1274 16.2002 28.1274 14.5856V11.2907H28.123ZM24.6225 14.5856C24.6225 16.0733 24.6225 17.3554 24.4956 18.3137C24.325 19.5739 23.9486 20.099 23.5986 20.449C23.2485 20.7991 22.7235 21.1754 21.4633 21.346C20.8988 21.4204 20.0149 21.4598 19.3717 21.4729C18.6016 21.4729 18.129 21.8405 17.7264 22.2431L14.8691 25.1048C14.4622 25.5117 13.7796 25.5117 13.3726 25.1048L10.5109 22.2431C10.1127 21.8449 9.63578 21.4773 8.86566 21.4773C8.22681 21.4642 7.33855 21.4248 6.77846 21.3504C5.51827 21.1798 4.99318 20.7991 4.64313 20.4534C4.29307 20.1034 3.91676 19.5783 3.74611 18.3181C3.61922 17.3642 3.61922 16.0777 3.61922 14.59V11.2951C3.61922 9.80737 3.61922 8.52529 3.74611 7.57139C3.91676 6.3112 4.29307 5.78611 4.64313 5.43606C4.99318 5.086 5.51827 4.7097 6.77846 4.53904C7.73236 4.41215 9.01444 4.41215 10.5065 4.41215H17.7395C19.2273 4.41215 20.5137 4.41215 21.4633 4.53904C22.7235 4.7097 23.2485 5.09038 23.5986 5.43606C23.9486 5.78611 24.325 6.3112 24.4956 7.57139C24.6225 8.52529 24.6225 9.81174 24.6225 11.2995V14.5944V14.5856Z" fill="white"/>
<path d="M9.74528 14.9051C10.7119 14.9051 11.4956 14.1215 11.4956 13.1548C11.4956 12.1882 10.7119 11.4045 9.74528 11.4045C8.77863 11.4045 7.99501 12.1882 7.99501 13.1548C7.99501 14.1215 8.77863 14.9051 9.74528 14.9051Z" fill="white"/>
<path d="M18.4964 14.9051C19.463 14.9051 20.2466 14.1215 20.2466 13.1548C20.2466 12.1882 19.463 11.4045 18.4964 11.4045C17.5297 11.4045 16.7461 12.1882 16.7461 13.1548C16.7461 14.1215 17.5297 14.9051 18.4964 14.9051Z" fill="white"/>
</svg>
