<svg width="39" height="39" viewBox="0 0 39 39" fill="none" xmlns="http://www.w3.org/2000/svg">
<circle cx="19.6748" cy="19.3867" r="18.9014" fill="#AC72FF"/>
<circle cx="19.6748" cy="19.3867" r="18.9014" fill="url(#paint0_linear_1_221)" fill-opacity="0.4"/>
<path d="M19.5059 10.2064C17.1469 10.2064 14.8845 11.1434 13.2165 12.8115C11.5484 14.4797 10.6113 16.7421 10.6113 19.101C10.6113 21.4598 11.5484 23.7224 13.2165 25.3904C14.8847 27.0585 17.1471 27.9956 19.5059 27.9956C21.8648 27.9956 24.1274 27.0585 25.7954 25.3904C27.4635 23.7222 28.4006 21.4598 28.4006 19.101C28.4006 17.5395 27.9895 16.0057 27.2089 14.6534C26.4282 13.3012 25.3054 12.1784 23.9532 11.3977C22.601 10.6171 21.0671 10.2061 19.5056 10.2061L19.5059 10.2064ZM19.5059 12.4301C19.9728 12.4301 20.9902 14.0257 21.335 17.0165C20.1227 16.8317 18.8892 16.8317 17.677 17.0165C18.0217 14.0255 19.0391 12.4301 19.506 12.4301H19.5059ZM13.2185 21.325C13.8723 20.7947 14.5905 20.3492 15.3559 19.9992C15.4071 21.6843 15.7222 23.351 16.2899 24.9386C14.8601 24.1483 13.7681 22.8634 13.2184 21.325H13.2185ZM15.3922 17.592C14.4931 17.9117 13.6348 18.3362 12.8349 18.8566C12.9243 16.5149 14.236 14.392 16.2899 13.264C15.786 14.6566 15.4835 16.1139 15.3921 17.5921L15.3922 17.592ZM19.506 25.7721C18.9502 25.7721 17.6047 23.5011 17.5603 19.2926C18.8449 19.0374 20.1673 19.0374 21.4518 19.2926C21.4073 23.501 20.0619 25.7721 19.506 25.7721ZM22.7222 24.9382V24.9384C23.29 23.3498 23.6051 21.6821 23.6561 19.9961C24.4218 20.3472 25.14 20.7935 25.7936 21.3248C25.2439 22.8632 24.1519 24.1481 22.7221 24.9384L22.7222 24.9382ZM23.6199 17.592C23.5286 16.1137 23.2261 14.6564 22.7222 13.2639C24.7761 14.392 26.0878 16.5149 26.1771 18.8565C25.3773 18.3361 24.519 17.9116 23.6198 17.5919L23.6199 17.592Z" fill="black"/>
<defs>
<linearGradient id="paint0_linear_1_221" x1="11.656" y1="6.53462" x2="30.508" y2="15.4946" gradientUnits="userSpaceOnUse">
<stop stop-color="#7717FF"/>
<stop offset="1" stop-color="#A15FFF" stop-opacity="0"/>
</linearGradient>
</defs>
</svg>
