        <svg  viewBox="0 0 1366 177" fill="none" xmlns="http://www.w3.org/2000/svg">
<rect x="-0.181641" y="0.932617" width="1366" height="175.965" fill="url(#paint0_linear_0_1)"/>
<path d="M621.312 112.251H613.827V111.165L616.882 108.063C617.45 107.491 617.926 106.98 618.312 106.532C618.702 106.084 618.999 105.644 619.202 105.212C619.405 104.774 619.507 104.295 619.507 103.774C619.507 103.129 619.314 102.636 618.929 102.298C618.549 101.954 618.046 101.782 617.421 101.782C616.874 101.782 616.39 101.876 615.968 102.063C615.546 102.251 615.114 102.517 614.671 102.86L613.976 101.985C614.278 101.73 614.606 101.504 614.96 101.306C615.319 101.108 615.702 100.951 616.109 100.837C616.52 100.722 616.957 100.665 617.421 100.665C618.124 100.665 618.731 100.787 619.241 101.032C619.752 101.277 620.145 101.626 620.421 102.079C620.702 102.532 620.843 103.071 620.843 103.696C620.843 104.3 620.723 104.863 620.484 105.384C620.244 105.899 619.908 106.412 619.476 106.923C619.043 107.428 618.538 107.965 617.96 108.532L615.476 111.009V111.063H621.312V112.251ZM630.37 106.524C630.37 107.451 630.3 108.28 630.159 109.009C630.019 109.738 629.797 110.355 629.495 110.86C629.193 111.366 628.803 111.751 628.324 112.017C627.844 112.277 627.269 112.407 626.597 112.407C625.748 112.407 625.045 112.175 624.488 111.712C623.935 111.248 623.521 110.579 623.245 109.704C622.975 108.824 622.839 107.764 622.839 106.524C622.839 105.306 622.962 104.259 623.206 103.384C623.456 102.504 623.857 101.829 624.409 101.36C624.962 100.886 625.691 100.649 626.597 100.649C627.456 100.649 628.165 100.884 628.722 101.353C629.279 101.816 629.693 102.488 629.964 103.368C630.235 104.243 630.37 105.295 630.37 106.524ZM624.144 106.524C624.144 107.587 624.225 108.472 624.386 109.181C624.547 109.889 624.808 110.42 625.167 110.774C625.532 111.123 626.008 111.298 626.597 111.298C627.185 111.298 627.659 111.123 628.019 110.774C628.383 110.425 628.646 109.897 628.808 109.188C628.975 108.48 629.058 107.592 629.058 106.524C629.058 105.478 628.977 104.603 628.816 103.899C628.654 103.191 628.394 102.66 628.034 102.306C627.675 101.946 627.196 101.767 626.597 101.767C625.998 101.767 625.519 101.946 625.159 102.306C624.8 102.66 624.54 103.191 624.378 103.899C624.222 104.603 624.144 105.478 624.144 106.524ZM639.304 112.251H631.82V111.165L634.874 108.063C635.442 107.491 635.919 106.98 636.304 106.532C636.695 106.084 636.992 105.644 637.195 105.212C637.398 104.774 637.499 104.295 637.499 103.774C637.499 103.129 637.307 102.636 636.921 102.298C636.541 101.954 636.039 101.782 635.414 101.782C634.867 101.782 634.382 101.876 633.96 102.063C633.539 102.251 633.106 102.517 632.664 102.86L631.968 101.985C632.27 101.73 632.598 101.504 632.953 101.306C633.312 101.108 633.695 100.951 634.101 100.837C634.512 100.722 634.95 100.665 635.414 100.665C636.117 100.665 636.723 100.787 637.234 101.032C637.744 101.277 638.137 101.626 638.414 102.079C638.695 102.532 638.835 103.071 638.835 103.696C638.835 104.3 638.716 104.863 638.476 105.384C638.236 105.899 637.9 106.412 637.468 106.923C637.036 107.428 636.531 107.965 635.953 108.532L633.468 111.009V111.063H639.304V112.251ZM648.871 109.603H647.16V112.251H645.894V109.603H640.371V108.509L645.808 100.767H647.16V108.431H648.871V109.603ZM645.894 108.431V104.696C645.894 104.41 645.897 104.152 645.902 103.923C645.907 103.688 645.915 103.472 645.925 103.274C645.936 103.071 645.944 102.879 645.949 102.696C645.959 102.514 645.967 102.334 645.972 102.157H645.91C645.811 102.366 645.696 102.587 645.566 102.821C645.441 103.05 645.313 103.256 645.183 103.438L641.66 108.431H645.894ZM657.566 100.829C659.04 100.829 660.116 101.118 660.793 101.696C661.475 102.269 661.816 103.092 661.816 104.165C661.816 104.649 661.736 105.11 661.574 105.548C661.418 105.98 661.163 106.363 660.809 106.696C660.454 107.024 659.988 107.285 659.41 107.478C658.837 107.665 658.134 107.759 657.301 107.759H655.91V112.251H654.582V100.829H657.566ZM657.441 101.962H655.91V106.618H657.152C657.881 106.618 658.488 106.54 658.973 106.384C659.462 106.228 659.829 105.975 660.074 105.626C660.319 105.272 660.441 104.803 660.441 104.22C660.441 103.459 660.199 102.894 659.715 102.524C659.23 102.149 658.473 101.962 657.441 101.962ZM665.156 112.251H663.852V100.095H665.156V112.251ZM670.942 103.548C671.962 103.548 672.72 103.777 673.215 104.235C673.71 104.694 673.957 105.425 673.957 106.431V112.251H673.012L672.762 110.985H672.699C672.46 111.298 672.21 111.561 671.949 111.774C671.689 111.983 671.387 112.142 671.043 112.251C670.705 112.355 670.288 112.407 669.793 112.407C669.272 112.407 668.809 112.316 668.403 112.134C668.002 111.951 667.684 111.675 667.449 111.306C667.22 110.936 667.106 110.467 667.106 109.899C667.106 109.045 667.444 108.389 668.121 107.931C668.798 107.472 669.83 107.222 671.215 107.181L672.692 107.118V106.595C672.692 105.855 672.533 105.337 672.215 105.04C671.897 104.743 671.449 104.595 670.871 104.595C670.423 104.595 669.996 104.66 669.59 104.79C669.184 104.92 668.798 105.074 668.434 105.251L668.035 104.267C668.421 104.069 668.864 103.899 669.364 103.759C669.864 103.618 670.39 103.548 670.942 103.548ZM672.676 108.032L671.371 108.087C670.304 108.129 669.551 108.303 669.114 108.61C668.676 108.918 668.457 109.353 668.457 109.915C668.457 110.405 668.606 110.767 668.903 111.001C669.199 111.235 669.593 111.353 670.082 111.353C670.843 111.353 671.465 111.142 671.949 110.72C672.434 110.298 672.676 109.665 672.676 108.821V108.032ZM675.118 103.688H676.508L678.399 108.657C678.508 108.949 678.61 109.23 678.704 109.501C678.797 109.767 678.881 110.022 678.954 110.267C679.026 110.511 679.084 110.748 679.125 110.978H679.18C679.253 110.717 679.357 110.376 679.493 109.954C679.628 109.527 679.774 109.092 679.93 108.649L681.719 103.688H683.118L679.391 113.509C679.193 114.035 678.961 114.493 678.696 114.884C678.435 115.274 678.118 115.574 677.743 115.782C677.368 115.996 676.914 116.103 676.383 116.103C676.138 116.103 675.922 116.087 675.735 116.056C675.547 116.03 675.386 115.998 675.25 115.962V114.923C675.365 114.949 675.503 114.972 675.664 114.993C675.831 115.014 676.003 115.024 676.18 115.024C676.503 115.024 676.782 114.962 677.016 114.837C677.256 114.717 677.461 114.54 677.633 114.306C677.805 114.071 677.954 113.793 678.079 113.47L678.547 112.267L675.118 103.688ZM688.215 103.532C688.387 103.532 688.567 103.543 688.754 103.563C688.942 103.579 689.109 103.603 689.254 103.634L689.09 104.837C688.95 104.8 688.794 104.772 688.622 104.751C688.45 104.73 688.288 104.72 688.137 104.72C687.794 104.72 687.468 104.79 687.161 104.931C686.859 105.066 686.593 105.264 686.364 105.524C686.135 105.78 685.955 106.09 685.825 106.454C685.695 106.813 685.629 107.215 685.629 107.657V112.251H684.325V103.688H685.403L685.544 105.267H685.598C685.775 104.949 685.989 104.66 686.239 104.399C686.489 104.134 686.778 103.923 687.106 103.767C687.439 103.61 687.809 103.532 688.215 103.532ZM698.094 107.954C698.094 108.657 698.003 109.285 697.821 109.837C697.639 110.389 697.376 110.855 697.032 111.235C696.688 111.616 696.272 111.907 695.782 112.11C695.298 112.308 694.748 112.407 694.134 112.407C693.561 112.407 693.035 112.308 692.555 112.11C692.081 111.907 691.67 111.616 691.321 111.235C690.977 110.855 690.709 110.389 690.516 109.837C690.329 109.285 690.235 108.657 690.235 107.954C690.235 107.017 690.394 106.22 690.712 105.563C691.029 104.902 691.482 104.399 692.071 104.056C692.665 103.707 693.37 103.532 694.188 103.532C694.969 103.532 695.652 103.707 696.235 104.056C696.824 104.405 697.279 104.91 697.602 105.571C697.93 106.228 698.094 107.022 698.094 107.954ZM691.579 107.954C691.579 108.642 691.67 109.238 691.852 109.743C692.035 110.248 692.316 110.639 692.696 110.915C693.076 111.191 693.566 111.329 694.165 111.329C694.759 111.329 695.245 111.191 695.626 110.915C696.011 110.639 696.295 110.248 696.477 109.743C696.66 109.238 696.751 108.642 696.751 107.954C696.751 107.272 696.66 106.683 696.477 106.188C696.295 105.688 696.014 105.303 695.634 105.032C695.253 104.761 694.761 104.626 694.157 104.626C693.266 104.626 692.613 104.92 692.196 105.509C691.785 106.097 691.579 106.912 691.579 107.954ZM707.559 107.954C707.559 108.657 707.468 109.285 707.286 109.837C707.104 110.389 706.841 110.855 706.497 111.235C706.153 111.616 705.737 111.907 705.247 112.11C704.763 112.308 704.213 112.407 703.599 112.407C703.026 112.407 702.5 112.308 702.02 112.11C701.546 111.907 701.135 111.616 700.786 111.235C700.442 110.855 700.174 110.389 699.981 109.837C699.794 109.285 699.7 108.657 699.7 107.954C699.7 107.017 699.859 106.22 700.177 105.563C700.494 104.902 700.947 104.399 701.536 104.056C702.13 103.707 702.835 103.532 703.653 103.532C704.434 103.532 705.117 103.707 705.7 104.056C706.289 104.405 706.744 104.91 707.067 105.571C707.395 106.228 707.559 107.022 707.559 107.954ZM701.044 107.954C701.044 108.642 701.135 109.238 701.317 109.743C701.5 110.248 701.781 110.639 702.161 110.915C702.541 111.191 703.031 111.329 703.63 111.329C704.224 111.329 704.71 111.191 705.091 110.915C705.476 110.639 705.76 110.248 705.942 109.743C706.125 109.238 706.216 108.642 706.216 107.954C706.216 107.272 706.125 106.683 705.942 106.188C705.76 105.688 705.479 105.303 705.099 105.032C704.718 104.761 704.226 104.626 703.622 104.626C702.731 104.626 702.078 104.92 701.661 105.509C701.25 106.097 701.044 106.912 701.044 107.954ZM718.939 103.532C719.881 103.532 720.592 103.78 721.071 104.274C721.551 104.764 721.79 105.553 721.79 106.642V112.251H720.509V106.704C720.509 106.011 720.358 105.493 720.056 105.149C719.759 104.8 719.316 104.626 718.728 104.626C717.899 104.626 717.298 104.866 716.923 105.345C716.548 105.824 716.36 106.53 716.36 107.462V112.251H715.071V106.704C715.071 106.241 715.004 105.855 714.868 105.548C714.738 105.241 714.54 105.011 714.274 104.86C714.014 104.704 713.683 104.626 713.282 104.626C712.715 104.626 712.259 104.743 711.915 104.978C711.571 105.212 711.321 105.561 711.165 106.024C711.014 106.483 710.939 107.048 710.939 107.72V112.251H709.642V103.688H710.689L710.884 104.899H710.954C711.126 104.603 711.342 104.353 711.603 104.149C711.863 103.946 712.155 103.793 712.478 103.688C712.801 103.584 713.144 103.532 713.509 103.532C714.16 103.532 714.704 103.655 715.142 103.899C715.584 104.139 715.905 104.506 716.103 105.001H716.173C716.454 104.506 716.84 104.139 717.329 103.899C717.819 103.655 718.355 103.532 718.939 103.532ZM728.486 112.251V100.829H729.814V112.251H728.486ZM736.654 103.532C737.669 103.532 738.438 103.782 738.959 104.282C739.479 104.777 739.74 105.574 739.74 106.673V112.251H738.459V106.759C738.459 106.045 738.294 105.511 737.966 105.157C737.643 104.803 737.146 104.626 736.474 104.626C735.526 104.626 734.86 104.894 734.474 105.431C734.089 105.967 733.896 106.746 733.896 107.767V112.251H732.599V103.688H733.646L733.841 104.923H733.912C734.094 104.621 734.326 104.368 734.607 104.165C734.888 103.957 735.203 103.8 735.552 103.696C735.901 103.587 736.268 103.532 736.654 103.532ZM745.681 112.407C744.911 112.407 744.231 112.248 743.642 111.931C743.054 111.613 742.595 111.129 742.267 110.478C741.939 109.826 741.775 109.006 741.775 108.017C741.775 106.98 741.947 106.134 742.291 105.478C742.64 104.816 743.119 104.326 743.728 104.009C744.338 103.691 745.03 103.532 745.806 103.532C746.233 103.532 746.645 103.576 747.041 103.665C747.442 103.748 747.77 103.855 748.025 103.985L747.634 105.071C747.374 104.967 747.072 104.873 746.728 104.79C746.39 104.707 746.072 104.665 745.775 104.665C745.181 104.665 744.687 104.793 744.291 105.048C743.9 105.303 743.606 105.678 743.408 106.173C743.215 106.668 743.119 107.277 743.119 108.001C743.119 108.694 743.213 109.285 743.4 109.774C743.593 110.264 743.877 110.639 744.252 110.899C744.632 111.155 745.106 111.282 745.674 111.282C746.127 111.282 746.536 111.235 746.9 111.142C747.265 111.043 747.595 110.928 747.892 110.798V111.954C747.606 112.1 747.286 112.212 746.931 112.29C746.582 112.368 746.166 112.407 745.681 112.407ZM749.568 111.438C749.568 111.074 749.657 110.816 749.834 110.665C750.011 110.509 750.227 110.431 750.482 110.431C750.748 110.431 750.972 110.509 751.154 110.665C751.336 110.816 751.428 111.074 751.428 111.438C751.428 111.798 751.336 112.061 751.154 112.228C750.972 112.389 750.748 112.47 750.482 112.47C750.227 112.47 750.011 112.389 749.834 112.228C749.657 112.061 749.568 111.798 749.568 111.438Z" fill="#858898"/>
<path fill-rule="evenodd" clip-rule="evenodd" d="M678.121 29.5713H683.737V35.1875H678.121V29.5713ZM672.505 29.5717L678.121 29.5713V35.1875L672.505 35.188V29.5717ZM683.737 35.1875H678.121V40.8045H683.737V35.1875ZM678.121 46.4199H683.737V52.0362H678.121V46.4199ZM683.737 29.5713V35.1875H689.354H694.97V29.5713H683.737ZM683.737 40.8045L689.354 40.8048V46.4199H694.97V52.0362H689.354L689.354 46.4199H683.737V40.8045ZM689.354 52.0362H683.737L683.738 57.6527H689.354L689.354 52.0362ZM694.97 35.1875H689.354L689.354 40.8048L694.97 40.8045V35.1875ZM694.97 57.653L689.354 57.6527H683.738V63.2692H694.97V57.653ZM694.97 40.8045L706.202 40.8048V52.0362H700.586V46.421L694.97 46.4199V40.8045ZM700.586 52.0362H694.97V57.653L700.586 57.6527L700.586 52.0362ZM694.97 63.2692L700.586 63.2681L700.586 57.6527L706.202 57.653V63.2692L700.586 63.2681L700.586 68.8842H706.202V74.5005H694.97L694.97 63.2692ZM706.202 40.8048H711.819V52.0362H706.202V40.8048ZM706.202 68.8842V74.5005H711.819V57.653H706.202V63.2692V68.8842ZM706.202 52.0362H711.819V57.653H706.202V52.0362ZM672.505 35.188L678.121 35.1875V40.8045H672.505V35.188ZM678.121 40.8045H672.505V52.0362H678.121V46.4199V40.8045ZM678.121 52.0362H672.505V57.6527H678.121L678.121 52.0362ZM678.121 57.6527H683.738V63.2692H678.121L678.121 57.6527ZM672.505 57.6527H678.121L678.121 63.2692H672.505V57.6527Z" fill="white"/>
<defs>
<linearGradient id="paint0_linear_0_1" x1="682.818" y1="274.657" x2="682.818" y2="63.2537" gradientUnits="userSpaceOnUse">
<stop stop-color="#D9D9D9" stop-opacity="0.33"/>
<stop offset="1" stop-color="#D9D9D9" stop-opacity="0"/>
</linearGradient>
</defs>
</svg>