          <svg width="69" height="27" viewBox="0 0 69 27" fill="none" xmlns="http://www.w3.org/2000/svg">
<path d="M32.2145 21.0886H29.5745V6.80862H37.2745V8.94862H32.2145V13.1486H36.9345V15.2886H32.2145V21.0886ZM48.5327 15.6486C48.5327 16.5553 48.4193 17.3553 48.1927 18.0486C47.966 18.742 47.6327 19.3353 47.1927 19.8286C46.766 20.3086 46.246 20.6753 45.6327 20.9286C45.0193 21.1686 44.3327 21.2886 43.5727 21.2886C42.866 21.2886 42.206 21.1686 41.5927 20.9286C40.9927 20.6753 40.4727 20.3086 40.0327 19.8286C39.606 19.3353 39.2727 18.742 39.0327 18.0486C38.7927 17.3553 38.6727 16.5553 38.6727 15.6486C38.6727 14.4486 38.866 13.4353 39.2527 12.6086C39.6527 11.7686 40.226 11.1353 40.9727 10.7086C41.7193 10.2686 42.606 10.0486 43.6327 10.0486C44.5927 10.0486 45.4393 10.2686 46.1727 10.7086C46.906 11.1353 47.4793 11.7686 47.8927 12.6086C48.3193 13.4353 48.5327 14.4486 48.5327 15.6486ZM41.3727 15.6486C41.3727 16.4086 41.4527 17.062 41.6127 17.6086C41.7727 18.142 42.0127 18.5486 42.3327 18.8286C42.666 19.1086 43.0927 19.2486 43.6127 19.2486C44.1327 19.2486 44.5527 19.1086 44.8727 18.8286C45.206 18.5486 45.446 18.142 45.5927 17.6086C45.7527 17.062 45.8327 16.4086 45.8327 15.6486C45.8327 14.8753 45.7527 14.2286 45.5927 13.7086C45.4327 13.1753 45.186 12.7753 44.8527 12.5086C44.5327 12.2286 44.1127 12.0886 43.5927 12.0886C42.806 12.0886 42.2393 12.3953 41.8927 13.0086C41.546 13.622 41.3727 14.502 41.3727 15.6486ZM56.1933 10.0486C56.3799 10.0486 56.5733 10.0553 56.7733 10.0686C56.9733 10.082 57.1399 10.1086 57.2733 10.1486L57.0333 12.4886C56.8999 12.462 56.7399 12.442 56.5533 12.4286C56.3799 12.402 56.1933 12.3886 55.9933 12.3886C55.6599 12.3886 55.3333 12.4553 55.0133 12.5886C54.6933 12.7086 54.4066 12.8953 54.1533 13.1486C53.8999 13.3886 53.6933 13.702 53.5333 14.0886C53.3866 14.4753 53.3133 14.9353 53.3133 15.4686V21.0886H50.6533V10.2486H52.6933L53.0533 12.1286H53.1933C53.3933 11.742 53.6399 11.3953 53.9333 11.0886C54.2399 10.7686 54.5799 10.5153 54.9533 10.3286C55.3399 10.142 55.7533 10.0486 56.1933 10.0486ZM61.4527 13.1086C61.4527 13.4553 61.4393 13.822 61.4127 14.2086C61.386 14.582 61.3527 14.9486 61.3127 15.3086H61.3927C61.4593 15.1486 61.5593 14.9753 61.6927 14.7886C61.826 14.5886 61.966 14.3953 62.1127 14.2086C62.2727 14.0086 62.426 13.8286 62.5727 13.6686L65.3927 10.2486H68.3927L64.4527 14.9286L68.6327 21.0886H65.5727L62.6327 16.4486L61.4527 17.4886V21.0886H58.8127V5.88862H61.4527V13.1086Z" fill="white"/>
<g clip-path="url(#clip0_1_616)">
<path d="M0.894531 16.9458L3.4132 16.9458C4.45424 16.9458 5.43434 16.544 6.16795 15.8185L13.4831 8.54337C14.6435 7.39322 16.1669 6.76044 17.7945 6.69009L17.7945 4.08862L21.6945 7.94577L17.7945 11.8029L17.7945 9.25925C16.8602 9.32693 15.9918 9.69866 15.3214 10.359L8.00896 17.6339C6.7801 18.8492 5.15 19.5172 3.4132 19.5172L0.894531 19.5172L0.894531 16.9458Z" fill="white"/>
<path d="M17.7948 19.4871C16.1674 19.4167 14.644 18.7815 13.4784 17.6313L12.0386 16.1975L13.8721 14.3743L15.3219 15.8157C15.9895 16.4787 16.8604 16.8502 17.795 16.9179L17.795 14.3743L21.6948 18.2314L17.7948 22.0886L17.7948 19.4871Z" fill="white"/>
</g>
<defs>
<clipPath id="clip0_1_616">
<rect width="18" height="26" fill="white" transform="matrix(-4.37114e-08 1 1 4.37114e-08 0.894531 4.08862)"/>
</clipPath>
</defs>
</svg>