<svg width="33" height="18" viewBox="0 0 33 18" fill="none" xmlns="http://www.w3.org/2000/svg">
<path fill-rule="evenodd" clip-rule="evenodd" d="M15.8297 12.3948C14.5635 15.2929 11.6718 17.3181 8.30701 17.3181C3.77527 17.3181 0.101562 13.6444 0.101562 9.11267C0.101562 4.58095 3.77527 0.907227 8.30701 0.907227H24.7179C29.2496 0.907227 32.9233 4.58095 32.9233 9.11267C32.9233 13.6444 29.2496 17.3181 24.7179 17.3181C21.3531 17.3181 18.4614 15.2929 17.1952 12.3948H15.8297ZM26.3584 5.8305C26.3584 6.73685 25.6236 7.47159 24.7173 7.47159C23.8109 7.47159 23.0762 6.73685 23.0762 5.8305C23.0762 4.92415 23.8109 4.18941 24.7173 4.18941C25.6236 4.18941 26.3584 4.92415 26.3584 5.8305ZM26.3581 9.1127C26.3581 10.0191 27.0929 10.7538 27.9992 10.7538C28.9056 10.7538 29.6403 10.0191 29.6403 9.1127C29.6403 8.20636 28.9056 7.47162 27.9992 7.47162C27.0929 7.47162 26.3581 8.20636 26.3581 9.1127ZM26.3584 12.3949C26.3584 13.3013 25.6236 14.036 24.7173 14.036C23.8109 14.036 23.0762 13.3013 23.0762 12.3949C23.0762 11.4886 23.8109 10.7538 24.7173 10.7538C25.6236 10.7538 26.3584 11.4886 26.3584 12.3949ZM19.794 9.1127C19.794 10.0191 20.5287 10.7538 21.4351 10.7538C22.3414 10.7538 23.0762 10.0191 23.0762 9.1127C23.0762 8.20636 22.3414 7.47162 21.4351 7.47162C20.5287 7.47162 19.794 8.20636 19.794 9.1127ZM6.66609 5.83077C6.66609 4.92443 7.40083 4.18968 8.30718 4.18968C9.21353 4.18968 9.94827 4.92443 9.94827 5.83077V7.47175H11.5891C12.4955 7.47175 13.2302 8.20649 13.2302 9.11284C13.2302 10.0192 12.4955 10.7539 11.5891 10.7539H9.94827V12.3951C9.94827 13.3015 9.21353 14.0362 8.30718 14.0362C7.40083 14.0362 6.66609 13.3015 6.66609 12.3951V10.7539H5.02478C4.11843 10.7539 3.38369 10.0192 3.38369 9.11284C3.38369 8.20649 4.11843 7.47175 5.02478 7.47175H6.66609V5.83077Z" fill="white"/>
</svg>
