<svg width="35" height="33" viewBox="0 0 35 33" fill="none" xmlns="http://www.w3.org/2000/svg">
<path d="M32.3023 22.3303C32.3023 22.3303 32.2511 22.0229 32.2219 22.0266L26.719 22.5644C26.5059 22.5851 26.3073 22.6812 26.159 22.8356C26.0107 22.9899 25.9225 23.1922 25.9104 23.406L25.7567 25.6012L21.4979 25.9086L21.2088 23.9182C21.1782 23.7044 21.0721 23.5087 20.9097 23.3664C20.7473 23.2241 20.5393 23.1447 20.3234 23.1425H14.5132C14.2973 23.1421 14.0885 23.2195 13.9252 23.3607C13.7618 23.5018 13.6549 23.6972 13.6241 23.9109L13.3351 25.9086L9.07619 25.6012L8.92252 23.406C8.91041 23.1922 8.82223 22.9899 8.67392 22.8356C8.52562 22.6812 8.32698 22.5851 8.11392 22.5644L2.60741 22.0266C2.57814 22.0229 2.55984 22.3303 2.53057 22.3303L2.52325 23.5377L7.18824 24.2987L7.33825 26.5123C7.35327 26.7296 7.44568 26.9344 7.59873 27.0895C7.75178 27.2445 7.95533 27.3396 8.17246 27.3575L14.0375 27.7782H14.1034C14.3191 27.7753 14.5267 27.6956 14.689 27.5535C14.8512 27.4113 14.9575 27.216 14.9888 27.0026L15.2852 24.9573H19.5477L19.8441 27.0026C19.8755 27.2166 19.9823 27.4124 20.1453 27.5546C20.3084 27.6969 20.5168 27.7762 20.7332 27.7782H20.7954L26.6641 27.3575C26.8806 27.3388 27.0833 27.2433 27.2356 27.0884C27.3879 26.9334 27.4798 26.7291 27.4947 26.5123L27.6483 24.2987L32.3097 23.534L32.3023 22.3303Z" fill="white"/>
<path d="M2.53157 13.3517V22.3377H2.57914L8.11127 22.8683C8.25123 22.8817 8.38195 22.9441 8.48036 23.0445C8.57877 23.1449 8.63854 23.2769 8.64911 23.4171L8.81742 25.8502L13.6434 26.1941L13.9763 23.9476C13.9974 23.8073 14.068 23.6792 14.1754 23.5866C14.2828 23.4939 14.4199 23.4429 14.5618 23.4427H20.3427C20.3427 23.4427 20.8842 23.6878 20.9281 23.9805L21.2574 26.2234L26.0651 25.8831L26.237 23.45C26.246 23.3099 26.3048 23.1776 26.4028 23.0769C26.5007 22.9763 26.6314 22.914 26.7712 22.9012L32.2777 22.367H32.3107V21.6535H32.4095V13.3517H32.3509C32.3509 13.3517 33.7559 11.4674 34.4035 10.421C33.5437 8.95744 32.49 7.64759 31.363 6.43652C30.322 6.95993 29.314 7.54643 28.3445 8.19275C27.8652 7.71344 27.3237 7.32561 26.7932 6.91582C26.2626 6.50603 25.6846 6.19138 25.1284 5.83281C25.2878 4.59836 25.3806 3.35622 25.4065 2.1118C23.9686 1.38735 22.4355 0.908047 20.8842 0.564118C20.263 1.62056 19.7023 2.71142 19.2048 3.83144C18.623 3.73631 18.034 3.69972 17.3717 3.69241H17.4705V3.65948C16.8786 3.66124 16.2878 3.70895 15.7033 3.80217C15.204 2.68051 14.6409 1.58839 14.0166 0.531189C12.4616 0.875118 10.9212 1.35808 9.47966 2.07887C9.51259 3.34848 9.59309 4.56686 9.76139 5.80354C9.20159 6.15845 8.61252 6.46579 8.08931 6.88655C7.5661 7.30731 7.01362 7.68417 6.53066 8.15982C5.55574 7.51615 4.5442 6.92974 3.50116 6.40359C2.37058 7.61831 1.31319 8.92451 0.449707 10.3917C1.08213 11.415 1.76978 12.4031 2.50962 13.3517H2.53157ZM27.3457 24.0318L27.1737 26.4685C27.1644 26.6104 27.104 26.7441 27.0038 26.845C26.9036 26.9458 26.7703 27.0071 26.6285 27.0174L20.7817 27.4345H20.7378C20.5962 27.4349 20.4592 27.384 20.3522 27.2912C20.2452 27.1983 20.1756 27.0698 20.1561 26.9295L19.8195 24.6574H15.0484L14.7154 26.9295C14.6928 27.0772 14.6156 27.2111 14.4991 27.3046C14.3826 27.3981 14.2352 27.4444 14.0861 27.4345L8.23933 27.0174C8.09752 27.0071 7.96423 26.9458 7.86403 26.845C7.76384 26.7441 7.7035 26.6104 7.69416 26.4685L7.5222 24.0318L2.58646 23.5561C2.59011 24.0866 2.59743 24.6684 2.59743 24.7855C2.59743 29.9956 9.20891 32.5019 17.423 32.5312H17.4449C25.6589 32.5019 32.2704 29.9956 32.2704 24.7855C32.2704 24.6647 32.2777 24.0866 32.2777 23.5561L27.3457 24.0318Z" fill="#478CBF"/>
<path d="M12.9457 17.0282C12.9464 17.6854 12.7522 18.3281 12.3876 18.8749C12.023 19.4217 11.5044 19.8481 10.8974 20.1001C10.2904 20.3521 9.62228 20.4184 8.97759 20.2907C8.3329 20.1629 7.7406 19.8468 7.27562 19.3823C6.81063 18.9178 6.49386 18.3259 6.36537 17.6813C6.23689 17.0368 6.30247 16.3686 6.55381 15.7614C6.80515 15.1541 7.23096 14.635 7.77738 14.2698C8.32379 13.9046 8.96625 13.7097 9.62347 13.7097C10.5039 13.7097 11.3484 14.0592 11.9713 14.6814C12.5943 15.3037 12.9447 16.1477 12.9457 17.0282ZM17.4204 20.6321C16.835 20.6321 16.363 20.2004 16.363 19.6662V16.6367C16.363 16.1062 16.835 15.6744 17.4204 15.6744C18.0058 15.6744 18.4815 16.1062 18.4815 16.6367V19.6662C18.4815 20.2004 18.0058 20.6321 17.4204 20.6321ZM21.9244 17.0282C21.9237 17.6854 22.1179 18.3281 22.4825 18.8749C22.8471 19.4217 23.3657 19.8481 23.9727 20.1001C24.5797 20.3521 25.2478 20.4184 25.8925 20.2907C26.5372 20.1629 27.1295 19.8468 27.5945 19.3823C28.0595 18.9178 28.3762 18.3259 28.5047 17.6813C28.6332 17.0368 28.5676 16.3686 28.3163 15.7614C28.0649 15.1541 27.6391 14.635 27.0927 14.2698C26.5463 13.9046 25.9038 13.7097 25.2466 13.7097C24.3661 13.7097 23.5217 14.0592 22.8988 14.6814C22.2758 15.3037 21.9254 16.1477 21.9244 17.0282Z" fill="white"/>
<path d="M22.7249 17.2259C22.7249 17.6616 22.8541 18.0874 23.0961 18.4496C23.3381 18.8118 23.6821 19.0942 24.0846 19.2609C24.4871 19.4276 24.93 19.4712 25.3572 19.3862C25.7845 19.3012 26.177 19.0914 26.485 18.7834C26.793 18.4754 27.0028 18.0829 27.0878 17.6556C27.1728 17.2284 27.1292 16.7855 26.9625 16.383C26.7958 15.9806 26.5134 15.6366 26.1512 15.3945C25.789 15.1525 25.3632 15.0233 24.9275 15.0233C24.6381 15.0228 24.3515 15.0795 24.0841 15.19C23.8166 15.3005 23.5736 15.4627 23.369 15.6674C23.1643 15.872 23.0021 16.115 22.8916 16.3825C22.7811 16.6499 22.7244 16.9365 22.7249 17.2259ZM12.1436 17.2259C12.1436 17.6616 12.0144 18.0874 11.7724 18.4496C11.5304 18.8118 11.1864 19.0942 10.7839 19.2609C10.3814 19.4276 9.93857 19.4712 9.5113 19.3862C9.08404 19.3012 8.69157 19.0914 8.38353 18.7834C8.07549 18.4754 7.86571 18.0829 7.78073 17.6556C7.69574 17.2284 7.73936 16.7855 7.90607 16.383C8.07278 15.9806 8.35509 15.6366 8.71731 15.3945C9.07953 15.1525 9.50538 15.0233 9.94101 15.0233C10.2304 15.0228 10.517 15.0795 10.7845 15.19C11.0519 15.3005 11.2949 15.4627 11.4996 15.6674C11.7042 15.872 11.8664 16.115 11.9769 16.3825C12.0875 16.6499 12.1441 16.9365 12.1436 17.2259Z" fill="#414042"/>
</svg>
