   <svg width="281" height="113" viewBox="0 0 281 113" fill="none" xmlns="http://www.w3.org/2000/svg">
<rect x="0.519531" y="0.697266" width="180.498" height="48.1982" rx="15.9442" fill="#AC72FF"/>
<rect x="100.395" y="64.1504" width="180.498" height="48.1982" rx="15.9442" fill="#292A2D"/>
<rect x="190.643" y="3.60449" width="84.4258" height="15.254" rx="7.627" fill="#292A2D"/>
<rect x="3.27148" y="67.314" width="84.4258" height="15.254" rx="7.627" fill="#292A2D"/>
<rect x="190.643" y="33.3848" width="84.4258" height="15.254" rx="7.627" fill="#292A2D"/>
<rect x="3.27148" y="97.0938" width="84.4258" height="15.254" rx="7.627" fill="#292A2D"/>
<path d="M157.91 25.8612C157.91 26.8261 157.797 27.7579 157.573 28.6567C157.361 29.5423 157.064 30.3684 156.681 31.1351C156.31 31.9017 155.874 32.5956 155.372 33.2169C154.87 33.8381 154.341 34.3536 153.786 34.7633H151.248C151.843 34.3404 152.411 33.8447 152.953 33.2763C153.495 32.708 153.971 32.0867 154.381 31.4126C154.79 30.7253 155.114 29.9983 155.352 29.2317C155.603 28.4519 155.729 27.6456 155.729 26.8128V24.9095C155.729 24.0768 155.603 23.2771 155.352 22.5105C155.114 21.7306 154.79 21.0036 154.381 20.3295C153.971 19.6422 153.495 19.0144 152.953 18.446C152.411 17.8776 151.843 17.382 151.248 16.959H153.786C154.341 17.382 154.87 17.9041 155.372 18.5253C155.874 19.1333 156.31 19.8206 156.681 20.5873C157.064 21.3539 157.361 22.1866 157.573 23.0854C157.797 23.971 157.91 24.8963 157.91 25.8612Z" fill="black"/>
<path d="M141.58 25.8612C141.58 24.8963 141.686 23.971 141.897 23.0854C142.122 22.1866 142.419 21.3539 142.79 20.5873C143.173 19.8206 143.616 19.1333 144.118 18.5253C144.62 17.9041 145.149 17.382 145.704 16.959H148.242C147.647 17.382 147.079 17.8776 146.537 18.446C145.995 19.0144 145.519 19.6422 145.109 20.3295C144.699 21.0036 144.369 21.7306 144.118 22.5105C143.88 23.2771 143.761 24.0768 143.761 24.9095V26.8128C143.761 27.6456 143.88 28.4519 144.118 29.2317C144.369 29.9983 144.699 30.7253 145.109 31.4126C145.519 32.0867 145.995 32.708 146.537 33.2763C147.079 33.8447 147.647 34.3404 148.242 34.7633H145.704C145.149 34.3536 144.62 33.8381 144.118 33.2169C143.616 32.5956 143.173 31.9017 142.79 31.1351C142.419 30.3684 142.122 29.5423 141.897 28.6567C141.686 27.7579 141.58 26.8261 141.58 25.8612Z" fill="black"/>
<path d="M127.748 32.0271V21.7965H130.286V23.6007H130.385C130.61 23.0456 130.953 22.5698 131.416 22.1732C131.892 21.7635 132.546 21.5586 133.379 21.5586C134.383 21.5586 135.196 21.8956 135.818 22.5698C136.452 23.2306 136.769 24.1823 136.769 25.4248V32.0271H134.231V25.7817C134.231 24.3013 133.59 23.5611 132.308 23.5611C132.044 23.5611 131.793 23.5941 131.555 23.6602C131.317 23.7263 131.099 23.8321 130.9 23.9774C130.715 24.1096 130.563 24.2748 130.444 24.4731C130.339 24.6714 130.286 24.9093 130.286 25.1869V32.0271H127.748Z" fill="black"/>
<path d="M121.153 20.2105C120.558 20.2105 120.135 20.085 119.884 19.8338C119.646 19.5827 119.527 19.2787 119.527 18.9218V18.446C119.527 18.0891 119.646 17.7851 119.884 17.5339C120.135 17.2828 120.558 17.1572 121.153 17.1572C121.748 17.1572 122.164 17.2828 122.402 17.5339C122.653 17.7851 122.779 18.0891 122.779 18.446V18.9218C122.779 19.2787 122.653 19.5827 122.402 19.8338C122.164 20.085 121.748 20.2105 121.153 20.2105ZM116.514 30.0247H119.884V23.7992H116.514V21.7967H122.422V30.0247H125.555V32.0272H116.514V30.0247Z" fill="black"/>
<path d="M108.828 32.265C108.049 32.265 107.348 32.1394 106.727 31.8883C106.119 31.6372 105.597 31.2803 105.16 30.8177C104.737 30.355 104.407 29.7933 104.169 29.1324C103.944 28.4715 103.832 27.7313 103.832 26.9118C103.832 26.0923 103.944 25.3521 104.169 24.6912C104.407 24.0303 104.737 23.4686 105.16 23.0059C105.597 22.5433 106.119 22.1864 106.727 21.9353C107.348 21.6842 108.049 21.5586 108.828 21.5586C109.595 21.5586 110.289 21.6842 110.91 21.9353C111.531 22.1864 112.053 22.5433 112.476 23.0059C112.913 23.4686 113.243 24.0303 113.468 24.6912C113.706 25.3521 113.825 26.0923 113.825 26.9118C113.825 27.7313 113.706 28.4715 113.468 29.1324C113.243 29.7933 112.913 30.355 112.476 30.8177C112.053 31.2803 111.531 31.6372 110.91 31.8883C110.289 32.1394 109.595 32.265 108.828 32.265ZM108.828 30.322C109.555 30.322 110.13 30.1039 110.553 29.6677C110.976 29.2183 111.188 28.564 111.188 27.7049V26.1187C111.188 25.2596 110.976 24.6119 110.553 24.1757C110.13 23.7263 109.555 23.5016 108.828 23.5016C108.101 23.5016 107.526 23.7263 107.103 24.1757C106.68 24.6119 106.469 25.2596 106.469 26.1187V27.7049C106.469 28.564 106.68 29.2183 107.103 29.6677C107.526 30.1039 108.101 30.322 108.828 30.322Z" fill="black"/>
<path d="M97.4952 32.2651C95.6844 32.2651 94.3427 31.6438 93.4704 30.4014C92.6112 29.1589 92.1816 27.3943 92.1816 25.1076C92.1816 22.8342 92.6112 21.0762 93.4704 19.8337C94.3427 18.578 95.6844 17.9502 97.4952 17.9502C98.1825 17.9502 98.7839 18.0427 99.2994 18.2278C99.8281 18.4128 100.284 18.6706 100.667 19.001C101.051 19.3182 101.368 19.7082 101.619 20.1708C101.87 20.6202 102.069 21.1159 102.214 21.6578L99.8347 22.3319C99.7422 22.0147 99.6365 21.7173 99.5175 21.4397C99.3986 21.1621 99.2465 20.9242 99.0615 20.7259C98.8897 20.5144 98.6716 20.3558 98.4072 20.2501C98.1429 20.1311 97.8256 20.0717 97.4555 20.0717C96.5567 20.0717 95.9091 20.4153 95.5125 21.1026C95.1292 21.79 94.9376 22.7284 94.9376 23.918V26.2972C94.9376 27.4868 95.1292 28.4253 95.5125 29.1126C95.9091 29.7999 96.5567 30.1436 97.4555 30.1436C97.8256 30.1436 98.1429 30.0907 98.4072 29.985C98.6716 29.866 98.8897 29.7074 99.0615 29.5092C99.2465 29.2977 99.3986 29.0531 99.5175 28.7756C99.6365 28.498 99.7422 28.2006 99.8347 27.8834L102.214 28.5575C102.069 29.0994 101.87 29.6017 101.619 30.0643C101.368 30.5137 101.051 30.9036 100.667 31.2341C100.284 31.5513 99.8281 31.8024 99.2994 31.9875C98.7839 32.1725 98.1825 32.2651 97.4952 32.2651Z" fill="black"/>
<path d="M86.1435 32.0275C85.1654 32.0275 84.445 31.7698 83.9824 31.2543C83.5198 30.7388 83.2885 30.0713 83.2885 29.2518V23.7994H80.3145V21.7969H82.3368C82.7465 21.7969 83.0373 21.7176 83.2092 21.559C83.381 21.3872 83.4669 21.0898 83.4669 20.6668V18.1885H85.8263V21.7969H89.9899V23.7994H85.8263V30.025H89.9899V32.0275H86.1435Z" fill="black"/>
<path d="M69.2988 30.025H71.8366V23.7994H69.2988V21.7969H74.3745V24.5924H74.5331C74.6256 24.2356 74.7512 23.8919 74.9098 23.5615C75.0816 23.2178 75.2931 22.9204 75.5442 22.6692C75.8086 22.4049 76.1258 22.1934 76.4959 22.0348C76.866 21.8762 77.3088 21.7969 77.8243 21.7969H78.9346V24.1761H76.833C76.0663 24.1761 75.4649 24.4008 75.0287 24.8502C74.5926 25.2996 74.3745 25.8746 74.3745 26.5751V30.025H77.9234V32.0274H69.2988V30.025Z" fill="black"/>
<path d="M62.3064 32.265C61.4869 32.265 60.7599 32.1394 60.1255 31.8883C59.491 31.6372 58.9557 31.2803 58.5195 30.8177C58.0965 30.355 57.7727 29.7999 57.548 29.1522C57.3233 28.4913 57.2109 27.7511 57.2109 26.9316C57.2109 26.0989 57.3233 25.3521 57.548 24.6912C57.7859 24.0303 58.1164 23.4686 58.5393 23.0059C58.9623 22.5433 59.4712 22.1864 60.066 21.9353C60.674 21.6842 61.3547 21.5586 62.1081 21.5586C62.8483 21.5586 63.5158 21.6842 64.1106 21.9353C64.7054 22.1732 65.2077 22.5169 65.6175 22.9663C66.0404 23.4157 66.3643 23.9576 66.589 24.5921C66.8137 25.2265 66.926 25.9271 66.926 26.6937V27.5264H59.7488V27.7842C59.7488 28.5244 59.9801 29.1258 60.4427 29.5884C60.9053 30.0378 61.553 30.2625 62.3857 30.2625C63.0202 30.2625 63.5621 30.1369 64.0115 29.8858C64.4741 29.6214 64.8574 29.2778 65.1614 28.8548L66.6088 30.3022C66.2387 30.8441 65.6968 31.3067 64.983 31.69C64.2825 32.0733 63.3903 32.265 62.3064 32.265ZM62.128 23.4223C61.4142 23.4223 60.8392 23.647 60.403 24.0964C59.9668 24.5458 59.7488 25.1406 59.7488 25.8808V26.0196H64.3882V25.8412C64.3882 25.101 64.1833 24.5128 63.7736 24.0766C63.377 23.6404 62.8285 23.4223 62.128 23.4223Z" fill="black"/>
<path d="M50.3397 32.265C49.2162 32.265 48.2446 32.0932 47.4251 31.7495C46.6056 31.3926 45.9646 30.9168 45.502 30.322L46.989 28.9738C47.4119 29.4364 47.8944 29.7933 48.4363 30.0444C48.9915 30.2956 49.6325 30.4211 50.3595 30.4211C50.9939 30.4211 51.5028 30.3154 51.8861 30.1039C52.2695 29.8924 52.4611 29.5686 52.4611 29.1324C52.4611 28.7623 52.3289 28.5112 52.0646 28.379C51.8134 28.2468 51.4764 28.1477 51.0534 28.0816L49.4078 27.8238C48.9848 27.7577 48.5685 27.6652 48.1587 27.5463C47.7622 27.4141 47.4053 27.2356 47.0881 27.0109C46.7841 26.7862 46.5396 26.502 46.3545 26.1584C46.1695 25.8015 46.0769 25.3719 46.0769 24.8696C46.0769 23.799 46.4735 22.9795 47.2665 22.4111C48.0728 21.8428 49.1765 21.5586 50.5776 21.5586C51.5689 21.5586 52.4082 21.6974 53.0956 21.975C53.7961 22.2525 54.3711 22.6425 54.8205 23.1447L53.4921 24.6119C53.2013 24.2947 52.8114 24.0171 52.3223 23.7792C51.8465 23.528 51.2385 23.4025 50.4983 23.4025C49.2029 23.4025 48.5553 23.8056 48.5553 24.6119C48.5553 24.982 48.6874 25.2397 48.9518 25.3851C49.2162 25.5173 49.5598 25.6165 49.9828 25.6825L51.6086 25.9403C52.0448 26.0064 52.4611 26.1055 52.8577 26.2377C53.2674 26.3567 53.6243 26.5285 53.9283 26.7532C54.2455 26.9779 54.4967 27.2621 54.6817 27.6057C54.8668 27.9494 54.9593 28.3724 54.9593 28.8746C54.9593 29.9321 54.5495 30.7648 53.73 31.3728C52.9237 31.9676 51.7936 32.265 50.3397 32.265Z" fill="black"/>
<path d="M34.2285 32.0271V21.7965H36.7663V23.6007H36.8655C37.0902 23.0456 37.4338 22.5698 37.8965 22.1732C38.3723 21.7635 39.0266 21.5586 39.8593 21.5586C40.8638 21.5586 41.6767 21.8956 42.298 22.5698C42.9324 23.2306 43.2497 24.1823 43.2497 25.4248V32.0271H40.7118V25.7817C40.7118 24.3013 40.0708 23.5611 38.7887 23.5611C38.5243 23.5611 38.2732 23.5941 38.0352 23.6602C37.7973 23.7263 37.5792 23.8321 37.381 23.9774C37.1959 24.1096 37.0439 24.2748 36.9249 24.4731C36.8192 24.6714 36.7663 24.9093 36.7663 25.1869V32.0271H34.2285Z" fill="black"/>
<path d="M27.6336 20.2105C27.0388 20.2105 26.6158 20.085 26.3647 19.8338C26.1268 19.5827 26.0078 19.2787 26.0078 18.9218V18.446C26.0078 18.0891 26.1268 17.7851 26.3647 17.5339C26.6158 17.2828 27.0388 17.1572 27.6336 17.1572C28.2284 17.1572 28.6447 17.2828 28.8827 17.5339C29.1338 17.7851 29.2594 18.0891 29.2594 18.446V18.9218C29.2594 19.2787 29.1338 19.5827 28.8827 19.8338C28.6447 20.085 28.2284 20.2105 27.6336 20.2105ZM22.9941 30.0247H26.3647V23.7992H22.9941V21.7967H28.9025V30.0247H32.0351V32.0272H22.9941V30.0247Z" fill="black"/>
<path d="M268.422 89.3133C268.422 90.2782 268.309 91.2101 268.084 92.1089C267.873 92.9945 267.576 93.8206 267.192 94.5872C266.822 95.3538 266.386 96.0478 265.884 96.669C265.381 97.2903 264.853 97.8057 264.298 98.2155H261.76C262.355 97.7925 262.923 97.2969 263.465 96.7285C264.007 96.1601 264.483 95.5389 264.892 94.8648C265.302 94.1775 265.626 93.4505 265.864 92.6839C266.115 91.904 266.241 91.0977 266.241 90.265V88.3616C266.241 87.5289 266.115 86.7292 265.864 85.9626C265.626 85.1828 265.302 84.4558 264.892 83.7817C264.483 83.0943 264.007 82.4665 263.465 81.8981C262.923 81.3298 262.355 80.8341 261.76 80.4111H264.298C264.853 80.8341 265.381 81.3562 265.884 81.9774C266.386 82.5855 266.822 83.2728 267.192 84.0394C267.576 84.806 267.873 85.6388 268.084 86.5376C268.309 87.4232 268.422 88.3484 268.422 89.3133Z" fill="white"/>
<path d="M252.092 89.3133C252.092 88.3484 252.198 87.4232 252.409 86.5376C252.634 85.6388 252.931 84.806 253.301 84.0394C253.685 83.2728 254.127 82.5855 254.63 81.9774C255.132 81.3562 255.661 80.8341 256.216 80.4111H258.754C258.159 80.8341 257.59 81.3298 257.048 81.8981C256.507 82.4665 256.031 83.0943 255.621 83.7817C255.211 84.4558 254.881 85.1828 254.63 85.9626C254.392 86.7292 254.273 87.5289 254.273 88.3616V90.265C254.273 91.0977 254.392 91.904 254.63 92.6839C254.881 93.4505 255.211 94.1775 255.621 94.8648C256.031 95.5389 256.507 96.1601 257.048 96.7285C257.59 97.2969 258.159 97.7925 258.754 98.2155H256.216C255.661 97.8057 255.132 97.2903 254.63 96.669C254.127 96.0478 253.685 95.3538 253.301 94.5872C252.931 93.8206 252.634 92.9945 252.409 92.1089C252.198 91.2101 252.092 90.2782 252.092 89.3133Z" fill="white"/>
<path d="M238.26 95.4792V85.2487H240.798V87.0529H240.897C241.121 86.4977 241.465 86.0219 241.928 85.6254C242.404 85.2156 243.058 85.0107 243.891 85.0107C244.895 85.0107 245.708 85.3478 246.329 86.0219C246.964 86.6828 247.281 87.6345 247.281 88.8769V95.4792H244.743V89.2338C244.743 87.7534 244.102 87.0132 242.82 87.0132C242.556 87.0132 242.304 87.0463 242.066 87.1124C241.829 87.1785 241.61 87.2842 241.412 87.4296C241.227 87.5618 241.075 87.727 240.956 87.9253C240.85 88.1235 240.798 88.3615 240.798 88.639V95.4792H238.26Z" fill="white"/>
<path d="M231.665 83.6627C231.07 83.6627 230.647 83.5371 230.396 83.286C230.158 83.0348 230.039 82.7308 230.039 82.374V81.8981C230.039 81.5412 230.158 81.2372 230.396 80.9861C230.647 80.7349 231.07 80.6094 231.665 80.6094C232.26 80.6094 232.676 80.7349 232.914 80.9861C233.165 81.2372 233.291 81.5412 233.291 81.8981V82.374C233.291 82.7308 233.165 83.0348 232.914 83.286C232.676 83.5371 232.26 83.6627 231.665 83.6627ZM227.025 93.4769H230.396V87.2513H227.025V85.2488H232.934V93.4769H236.066V95.4794H227.025V93.4769Z" fill="white"/>
<path d="M219.342 95.7172C218.562 95.7172 217.862 95.5916 217.24 95.3404C216.632 95.0893 216.11 94.7324 215.674 94.2698C215.251 93.8072 214.921 93.2454 214.683 92.5845C214.458 91.9236 214.346 91.1835 214.346 90.3639C214.346 89.5444 214.458 88.8042 214.683 88.1434C214.921 87.4825 215.251 86.9207 215.674 86.4581C216.11 85.9955 216.632 85.6386 217.24 85.3874C217.862 85.1363 218.562 85.0107 219.342 85.0107C220.109 85.0107 220.803 85.1363 221.424 85.3874C222.045 85.6386 222.567 85.9955 222.99 86.4581C223.426 86.9207 223.757 87.4825 223.981 88.1434C224.219 88.8042 224.338 89.5444 224.338 90.3639C224.338 91.1835 224.219 91.9236 223.981 92.5845C223.757 93.2454 223.426 93.8072 222.99 94.2698C222.567 94.7324 222.045 95.0893 221.424 95.3404C220.803 95.5916 220.109 95.7172 219.342 95.7172ZM219.342 93.7741C220.069 93.7741 220.644 93.556 221.067 93.1199C221.49 92.6705 221.701 92.0162 221.701 91.157V89.5709C221.701 88.7117 221.49 88.0641 221.067 87.6279C220.644 87.1785 220.069 86.9538 219.342 86.9538C218.615 86.9538 218.04 87.1785 217.617 87.6279C217.194 88.0641 216.983 88.7117 216.983 89.5709V91.157C216.983 92.0162 217.194 92.6705 217.617 93.1199C218.04 93.556 218.615 93.7741 219.342 93.7741Z" fill="white"/>
<path d="M211.655 81.6406V91.6928C211.655 92.314 211.55 92.8757 211.338 93.378C211.127 93.8671 210.823 94.2834 210.426 94.6271C210.043 94.9708 209.574 95.2417 209.018 95.44C208.476 95.625 207.868 95.7176 207.194 95.7176C205.886 95.7176 204.855 95.3871 204.101 94.7262C203.361 94.0653 202.885 93.1864 202.674 92.0893L205.113 91.5738C205.231 92.1554 205.443 92.6378 205.747 93.0211C206.064 93.3912 206.547 93.5763 207.194 93.5763C207.789 93.5763 208.245 93.4045 208.562 93.0608C208.88 92.7039 209.038 92.1488 209.038 91.3954V83.7819H204.359V81.6406H211.655Z" fill="white"/>
<path d="M191.5 93.4771H194.038V87.2515H191.5V85.249H196.576V88.0446H196.734C196.827 87.6877 196.952 87.344 197.111 87.0136C197.283 86.6699 197.494 86.3725 197.745 86.1214C198.01 85.857 198.327 85.6456 198.697 85.4869C199.067 85.3283 199.51 85.249 200.025 85.249H201.136V87.6282H199.034C198.268 87.6282 197.666 87.8529 197.23 88.3023C196.794 88.7517 196.576 89.3267 196.576 90.0273V93.4771H200.125V95.4796H191.5V93.4771Z" fill="white"/>
<path d="M184.51 95.7172C183.69 95.7172 182.963 95.5916 182.329 95.3404C181.694 95.0893 181.159 94.7324 180.723 94.2698C180.3 93.8072 179.976 93.252 179.751 92.6044C179.526 91.9435 179.414 91.2033 179.414 90.3838C179.414 89.5511 179.526 88.8042 179.751 88.1434C179.989 87.4825 180.319 86.9207 180.742 86.4581C181.165 85.9955 181.674 85.6386 182.269 85.3874C182.877 85.1363 183.558 85.0107 184.311 85.0107C185.051 85.0107 185.719 85.1363 186.314 85.3874C186.909 85.6254 187.411 85.969 187.821 86.4184C188.244 86.8678 188.567 87.4098 188.792 88.0442C189.017 88.6787 189.129 89.3792 189.129 90.1459V90.9786H181.952V91.2363C181.952 91.9765 182.183 92.5779 182.646 93.0406C183.108 93.49 183.756 93.7147 184.589 93.7147C185.223 93.7147 185.765 93.5891 186.215 93.338C186.677 93.0736 187.061 92.7299 187.365 92.307L188.812 93.7543C188.442 94.2962 187.9 94.7589 187.186 95.1422C186.486 95.5255 185.593 95.7172 184.51 95.7172ZM184.331 86.8745C183.617 86.8745 183.042 87.0992 182.606 87.5486C182.17 87.998 181.952 88.5928 181.952 89.333V89.4717H186.591V89.2933C186.591 88.5531 186.386 87.9649 185.977 87.5287C185.58 87.0925 185.032 86.8745 184.331 86.8745Z" fill="white"/>
<path d="M175.378 85.249H177.955L173.058 97.3036C172.78 98.0042 172.41 98.5329 171.948 98.8898C171.485 99.2599 170.831 99.4449 169.985 99.4449H168.121V97.4424H170.56L171.333 95.3805L167.209 85.249H169.905L171.472 89.5316L172.562 92.7832H172.701L173.791 89.5316L175.378 85.249Z" fill="white"/>
<path d="M164.658 95.4792C164.036 95.4792 163.554 95.3272 163.21 95.0232C162.88 94.706 162.681 94.2698 162.615 93.7147H162.516C162.331 94.3491 161.968 94.8448 161.426 95.2017C160.884 95.5453 160.216 95.7172 159.423 95.7172C158.392 95.7172 157.573 95.4462 156.965 94.9043C156.357 94.3623 156.053 93.6089 156.053 92.644C156.053 90.582 157.566 89.5511 160.593 89.5511H162.397V88.8769C162.397 88.2293 162.239 87.7402 161.921 87.4098C161.604 87.0793 161.089 86.9141 160.375 86.9141C159.727 86.9141 159.205 87.0397 158.809 87.2908C158.412 87.5419 158.075 87.8658 157.797 88.2623L156.35 87.0331C156.667 86.4647 157.176 85.9889 157.877 85.6055C158.591 85.209 159.509 85.0107 160.633 85.0107C161.981 85.0107 163.032 85.328 163.785 85.9624C164.552 86.5837 164.935 87.5155 164.935 88.758V93.5759H166.145V95.4792H164.658ZM160.276 93.9724C160.884 93.9724 161.386 93.8336 161.783 93.556C162.192 93.2653 162.397 92.8753 162.397 92.3863V91.0182H160.653C159.265 91.0182 158.571 91.4544 158.571 92.3268V92.7233C158.571 93.1331 158.723 93.4437 159.027 93.6552C159.331 93.8667 159.747 93.9724 160.276 93.9724Z" fill="white"/>
<path d="M144.68 93.4769H147.931V82.8101H144.68V80.8076H150.469V93.4769H153.74V95.4794H144.68V93.4769Z" fill="white"/>
<path d="M133.148 95.4797V81.6406H138.403C139.751 81.6406 140.782 82.0239 141.495 82.7906C142.209 83.5572 142.566 84.6014 142.566 85.9232C142.566 87.245 142.209 88.2892 141.495 89.0558C140.782 89.8224 139.751 90.2058 138.403 90.2058H135.746V95.4797H133.148ZM135.746 88.0843H137.867C138.568 88.0843 139.07 87.9455 139.374 87.6679C139.678 87.3771 139.83 86.9211 139.83 86.2999V85.5465C139.83 84.9252 139.678 84.4758 139.374 84.1983C139.07 83.9075 138.568 83.7621 137.867 83.7621H135.746V88.0843Z" fill="white"/>
<path d="M121.359 95.4792V85.2487H123.897V87.0529H123.996C124.221 86.4977 124.565 86.0219 125.027 85.6254C125.503 85.2156 126.157 85.0107 126.99 85.0107C127.995 85.0107 128.808 85.3478 129.429 86.0219C130.063 86.6828 130.381 87.6345 130.381 88.8769V95.4792H127.843V89.2338C127.843 87.7534 127.202 87.0132 125.92 87.0132C125.655 87.0132 125.404 87.0463 125.166 87.1124C124.928 87.1785 124.71 87.2842 124.512 87.4296C124.327 87.5618 124.175 87.727 124.056 87.9253C123.95 88.1235 123.897 88.3615 123.897 88.639V95.4792H121.359Z" fill="white"/>
<path d="M114.131 95.7172C113.351 95.7172 112.651 95.5916 112.029 95.3404C111.421 95.0893 110.899 94.7324 110.463 94.2698C110.04 93.8072 109.71 93.2454 109.472 92.5845C109.247 91.9236 109.135 91.1835 109.135 90.3639C109.135 89.5444 109.247 88.8042 109.472 88.1434C109.71 87.4825 110.04 86.9207 110.463 86.4581C110.899 85.9955 111.421 85.6386 112.029 85.3874C112.651 85.1363 113.351 85.0107 114.131 85.0107C114.898 85.0107 115.592 85.1363 116.213 85.3874C116.834 85.6386 117.356 85.9955 117.779 86.4581C118.215 86.9207 118.546 87.4825 118.771 88.1434C119.008 88.8042 119.127 89.5444 119.127 90.3639C119.127 91.1835 119.008 91.9236 118.771 92.5845C118.546 93.2454 118.215 93.8072 117.779 94.2698C117.356 94.7324 116.834 95.0893 116.213 95.3404C115.592 95.5916 114.898 95.7172 114.131 95.7172ZM114.131 93.7741C114.858 93.7741 115.433 93.556 115.856 93.1199C116.279 92.6705 116.49 92.0162 116.49 91.157V89.5709C116.49 88.7117 116.279 88.0641 115.856 87.6279C115.433 87.1785 114.858 86.9538 114.131 86.9538C113.404 86.9538 112.829 87.1785 112.406 87.6279C111.983 88.0641 111.772 88.7117 111.772 89.5709V91.157C111.772 92.0162 111.983 92.6705 112.406 93.1199C112.829 93.556 113.404 93.7741 114.131 93.7741Z" fill="white"/>
</svg>
