<svg width="106" height="26" viewBox="0 0 106 26" fill="none" xmlns="http://www.w3.org/2000/svg">
<path d="M27.464 14.064C27.323 14.2045 27.252 14.3803 27.252 14.5905V14.8018C27.252 15.0131 27.3219 15.1889 27.464 15.3284C27.605 15.4688 27.7816 15.5396 27.9926 15.5396C27.9926 15.5396 29.3963 15.6898 31.0606 14.9037V13.8538H27.9926C27.7816 13.8527 27.605 13.9235 27.464 14.064Z" fill="white"/>
<path d="M64.7076 9.74194H62.1681C61.6041 9.74194 61.322 10.0229 61.322 10.5849V14.8006C61.322 15.3625 61.6041 15.6435 62.1681 15.6435H64.7076C65.2717 15.6435 65.5537 15.3625 65.5537 14.8006V10.5849C65.5537 10.0229 65.2717 9.74194 64.7076 9.74194Z" fill="white"/>
<path d="M10.5365 9.95215H7.25647V15.4333H10.43C10.994 15.4333 11.2761 15.1523 11.2761 14.5904V10.69C11.2761 10.4787 11.205 10.3039 11.0651 10.1623C10.9241 10.0229 10.7475 9.95215 10.5365 9.95215Z" fill="white"/>
<path d="M102.013 4.31998C101.008 3.91139 99.9065 3.70441 98.7417 3.70441C97.3617 3.70441 96.0117 3.99504 94.8782 4.41972C93.9201 3.96716 92.8608 3.67868 91.7348 3.67868C91.1772 3.67868 74.3345 3.67868 74.3345 3.67868C72.3645 3.67868 70.9974 4.34251 70.1028 5.04172C69.2082 4.34251 67.84 3.67868 65.8711 3.67868H23.817V0.305908H13.655V3.91568C13.0726 3.75911 12.4547 3.67868 11.8066 3.67868H0.32373V25.0799H10.4858V21.497H11.5946C13.5226 21.497 14.8714 20.861 15.767 20.1779C16.907 21.1795 18.3269 21.497 19.8997 21.497H33.978V25.2912H39.4196C41.338 25.2912 42.9451 24.7335 44.1993 23.6343C44.8538 23.0595 45.4243 22.3453 45.9066 21.4959H55.4507V18.9081C55.7048 19.2942 55.976 19.6127 56.2322 19.868C57.0741 20.7066 58.5844 21.7072 61.0032 21.7072H65.8701C67.84 21.7072 69.2072 21.0433 70.1017 20.3441C70.9963 21.0433 72.3634 21.7072 74.3334 21.7072H81.2606H105.389V10.0585C105.389 9.82258 105.389 9.58879 105.39 9.37002C105.397 7.13831 104.07 5.15647 102.013 4.31998ZM14.9801 14.9069C14.9801 15.9611 14.6798 16.7869 14.0813 17.3842C13.4817 17.9816 12.6528 18.2797 11.5946 18.2797H7.25632V21.8637H3.5532V6.89594H11.8056C12.7647 6.89594 13.5333 7.18442 14.1125 7.76032C14.6905 8.33728 14.9801 9.10299 14.9801 10.0585V14.9069ZM22.3821 18.4899C22.3821 18.4899 20.7523 18.4899 19.8997 18.4899C19.046 18.4899 18.3302 18.2025 17.7521 17.6255C17.1729 17.0496 16.8844 16.2839 16.8844 15.3273V3.52318H20.5876V14.8018C20.5876 15.0131 20.6575 15.189 20.7985 15.3284C20.9396 15.4689 21.1161 15.5397 21.3282 15.5397H22.3821V18.4899ZM34.7649 18.2797H31.0618V17.2255C30.3987 17.6609 29.9293 17.9816 29.2318 18.1843C28.5331 18.388 27.9443 18.4899 27.4652 18.4899H26.7246C25.7655 18.4899 24.9969 18.2025 24.4177 17.6255C23.8386 17.0496 23.5501 16.2839 23.5501 15.3273V14.3782C23.5501 13.4227 23.8386 12.657 24.4177 12.08C24.9958 11.5041 25.7644 11.2157 26.7246 11.2157H31.0629V10.3727C31.0629 10.1615 30.9918 9.98666 30.8508 9.84618C30.7098 9.70569 30.5332 9.63491 30.3222 9.63491C29.4051 9.63491 24.6093 9.63491 24.6093 9.63491V6.89594C24.6093 6.89594 29.5181 6.89594 31.5925 6.89594C32.5517 6.89594 33.3203 7.18442 33.8994 7.76032C34.4775 8.33728 34.7671 9.10299 34.7671 10.0585V18.2797H34.7649ZM43.6513 18.7012C43.2423 19.8111 42.7126 20.6508 42.0646 21.2203C41.4155 21.7897 40.5338 22.0739 39.4196 22.0739C38.6715 22.0739 37.2075 22.0739 37.2075 22.0739V19.1226H38.5735C39.1096 19.1226 39.4584 18.9746 39.6209 18.6797C39.7824 18.3848 39.7512 17.9698 39.5262 17.4357L35.188 7.10614H39.1032L41.7481 14.2731L43.97 7.10614H47.8852L43.6513 18.7012ZM56.7716 10.0564C56.7716 10.0564 54.9728 10.0564 54.9717 10.0564C53.4603 10.0349 52.2213 11.2489 52.2213 12.7557V18.2797H48.5181V7.10721H52.2213V8.47777C52.2213 8.47777 52.8639 6.89702 55.8189 6.89702H56.7716V10.0564ZM69.2556 15.1171C69.2556 16.1713 68.9553 16.9971 68.3567 17.5944C67.7571 18.1918 66.9282 18.4899 65.8701 18.4899H61.0032C59.9451 18.4899 59.1162 18.1918 58.5166 17.5944C57.917 16.9971 57.6177 16.1713 57.6177 15.1171V10.2687C57.6177 9.21452 57.917 8.38875 58.5166 7.79142C59.1162 7.19408 59.9451 6.89594 61.0032 6.89594H65.8701C66.9282 6.89594 67.7571 7.19515 68.3567 7.79142C68.9563 8.38875 69.2556 9.21452 69.2556 10.2687V15.1171ZM82.5868 15.1171C82.5868 16.1713 82.2865 16.9971 81.688 17.5944C81.0884 18.1918 80.2595 18.4899 79.2013 18.4899H74.3345C73.2763 18.4899 72.4474 18.1918 71.8478 17.5944C71.2482 16.9971 70.9489 16.1713 70.9489 15.1171V10.2687C70.9489 9.21452 71.2482 8.38875 71.8478 7.79142C72.4474 7.19408 73.2763 6.89594 74.3345 6.89594H79.2013C80.2595 6.89594 81.0884 7.19515 81.688 7.79142C82.2876 8.38875 82.5868 9.21452 82.5868 10.2687V15.1171ZM102.16 10.0585V18.2797H98.4564V10.8103C98.4564 10.3363 98.0711 9.95235 97.5952 9.95235H96.0376C95.5618 9.95235 95.1764 10.3363 95.1764 10.8103V18.2786H91.4733V10.8146C91.4733 10.3384 91.0857 9.95342 90.6088 9.95342H89.0587C88.5807 9.95342 88.1943 10.3395 88.1943 10.8146V18.2797H84.4911V7.10721H88.1943V8.1614C88.7121 7.64664 92.2645 5.71628 94.6478 8.1614C95.1785 7.63699 98.2379 6.26214 100.793 7.30025C101.629 7.63913 102.163 8.46382 102.161 9.36144C102.161 9.58236 102.16 9.81937 102.16 10.0585Z" fill="white"/>
<path d="M78.0366 9.74194H75.4972C74.9331 9.74194 74.6511 10.0229 74.6511 10.5849V14.8006C74.6511 15.3625 74.9331 15.6435 75.4972 15.6435H78.0366C78.6007 15.6435 78.8827 15.3625 78.8827 14.8006V10.5849C78.8827 10.0229 78.6007 9.74194 78.0366 9.74194Z" fill="white"/>
</svg>
