<svg width="36" height="36" viewBox="0 0 36 36" fill="none" xmlns="http://www.w3.org/2000/svg">
<circle cx="17.9209" cy="18.291" r="17.4014" fill="#AC72FF"/>
<circle cx="17.9209" cy="18.291" r="17.4014" fill="url(#paint0_linear_1_208)" fill-opacity="0.4"/>
<path d="M16.3089 29.1328C16.7323 29.3074 17.2021 29.3353 17.6431 29.2115C18.0841 29.0878 18.4708 28.8198 18.7414 28.4504L25.8789 18.5835C26.188 18.1766 26.3339 17.6687 26.2877 17.1599C26.2416 16.651 26.0067 16.1777 25.6292 15.8331C25.2517 15.4887 24.7591 15.2976 24.2481 15.2978H21.8596L23.3916 11.6573V11.6575C23.6572 11.0276 23.5906 10.3067 23.2146 9.73599C22.8383 9.16529 22.2022 8.81997 21.5186 8.81546H14.3538C13.8466 8.81261 13.3566 8.998 12.9784 9.33595C12.6 9.67366 12.3608 10.1399 12.3068 10.6442L11.2832 20.1974C11.2209 20.7769 11.4089 21.3557 11.7997 21.7881C12.1907 22.2207 12.7474 22.4661 13.3302 22.4628H15.7184L15.0361 26.9356C14.9702 27.3918 15.0597 27.8566 15.2908 28.2555C15.5216 28.6541 15.8803 28.9632 16.3089 29.1329L16.3089 29.1328ZM13.3302 20.4155L14.3538 10.8623L21.5187 10.8626L18.7892 17.3451H24.2482L17.0834 27.2394L18.107 20.4157L13.3302 20.4155Z" fill="black"/>
<defs>
<linearGradient id="paint0_linear_1_208" x1="10.5384" y1="6.45885" x2="27.8944" y2="14.7077" gradientUnits="userSpaceOnUse">
<stop stop-color="#7717FF"/>
<stop offset="1" stop-color="#A15FFF" stop-opacity="0"/>
</linearGradient>
</defs>
</svg>
