<svg width="29" height="26" viewBox="0 0 29 26" fill="none" xmlns="http://www.w3.org/2000/svg">
<path d="M26.403 22.3353L28.1527 8.33624V8.33594C28.2656 7.43147 28.0212 6.5181 27.471 5.79096C26.9211 5.06377 26.1091 4.5801 25.2076 4.44246C24.3062 4.30514 23.3868 4.52485 22.6449 5.0549L19.7097 7.15038L17.2422 2.69694C16.8369 1.96426 16.1821 1.40124 15.3969 1.11017C14.6117 0.818745 13.7482 0.818745 12.963 1.11017C12.1778 1.40129 11.523 1.96433 11.1178 2.69694L8.65027 7.14608L5.71501 5.0506C4.97287 4.51994 4.05254 4.30022 3.15081 4.43785C2.24876 4.57578 1.43616 5.06037 0.886588 5.78846C0.336696 6.51655 0.0928927 7.43077 0.207315 8.33586L1.95704 22.3349V22.3352C2.06354 23.1811 2.47549 23.9589 3.11508 24.5229C3.75467 25.0868 4.57803 25.3977 5.43063 25.3974H22.9294C23.782 25.3977 24.6053 25.0868 25.245 24.5229C25.8846 23.959 26.2965 23.1811 26.403 22.3352L26.403 22.3353ZM3.68113 7.89877L6.6164 9.99425C7.42751 10.5734 8.44674 10.7794 9.41894 10.5606C10.3911 10.3418 11.2239 9.71873 11.7085 8.84808L14.1803 4.39894L16.6521 8.84808C17.1367 9.71873 17.9694 10.3418 18.9417 10.5606C19.9139 10.7794 20.9331 10.5734 21.7443 9.99425L24.6795 7.89877L22.9298 21.8978H5.43101L3.68113 7.89877Z" fill="white"/>
</svg>
