<svg width="271" height="85" viewBox="0 0 271 85" fill="none" xmlns="http://www.w3.org/2000/svg">
<path fill-rule="evenodd" clip-rule="evenodd" d="M33.5918 5.71748L17.2194 0.626953L0.716797 5.71371V9.94043V11.0318V28.6976L16.5586 35.4623L33.5918 28.7398V11.0711V9.94043V5.71748ZM29.5918 12.618L16.5627 17.6565L4.7168 12.7041V26.2035L16.625 31.0402L29.5918 26.1614V12.618ZM16.6209 13.3453L5.12689 8.54005L17.2142 4.81424L29.1139 8.5141L16.6209 13.3453Z" fill="#8057FE"/>
<path fill-rule="evenodd" clip-rule="evenodd" d="M49.0137 53.4294L32.6412 48.3389L16.1387 53.4256V57.6523V58.7437V76.4095L31.9804 84.1742L49.0137 76.4517V58.783V57.6523V53.4294ZM45.0137 60.3299L31.9846 65.3684L20.1387 60.416V73.9154L32.0469 79.7521L45.0137 73.8733V60.3299ZM32.0428 61.0572L20.5488 56.252L32.6361 52.5262L44.5358 56.226L32.0428 61.0572Z" fill="#292A2D"/>
<path fill-rule="evenodd" clip-rule="evenodd" d="M107.428 5.71748L91.0553 0.626953L74.5527 5.71371V9.94043V11.0318V28.6976L90.3945 36.4623L107.428 28.7398V11.0711V9.94043V5.71748ZM103.428 12.618L90.3986 17.6565L78.5527 12.7041V26.2035L90.461 32.0402L103.428 26.1614V12.618ZM90.4568 13.3453L78.9628 8.54005L91.0502 4.81424L102.95 8.5141L90.4568 13.3453Z" fill="#292A2D"/>
<path fill-rule="evenodd" clip-rule="evenodd" d="M122.854 53.4294L106.481 48.3389L89.9785 53.4256V57.6523V58.7437V76.4095L105.82 84.1742L122.854 76.4517V58.783V57.6523V53.4294ZM118.854 60.3299L105.824 65.3684L93.9785 60.416V73.9154L105.887 79.7521L118.854 73.8733V60.3299ZM105.883 61.0572L94.3886 56.252L106.476 52.5262L118.376 56.226L105.883 61.0572Z" fill="#292A2D"/>
<path fill-rule="evenodd" clip-rule="evenodd" d="M181.268 5.71748L164.895 0.626953L148.393 5.71371V9.94043V11.0318V28.6976L164.234 36.4623L181.268 28.7398V11.0711V9.94043V5.71748ZM177.268 12.618L164.238 17.6565L152.393 12.7041V26.2035L164.301 32.0402L177.268 26.1614V12.618ZM164.297 13.3453L152.803 8.54005L164.89 4.81424L176.79 8.5141L164.297 13.3453Z" fill="#292A2D"/>
<path fill-rule="evenodd" clip-rule="evenodd" d="M196.693 53.4294L180.321 48.3389L163.818 53.4256V57.6523V58.7437V76.4095L179.66 83.1742L196.693 76.4517V58.783V57.6523V53.4294ZM192.693 60.3299L179.664 65.3684L167.818 60.416V73.9154L179.727 78.7521L192.693 73.8733V60.3299ZM179.722 61.0572L168.228 56.252L180.316 52.5262L192.215 56.226L179.722 61.0572Z" fill="#5BEDB0"/>
<path fill-rule="evenodd" clip-rule="evenodd" d="M255.107 5.71748L238.735 0.626953L222.232 5.71371V9.94043V11.0318V28.6976L238.074 36.4623L255.107 28.7398V11.0711V9.94043V5.71748ZM251.107 12.618L238.078 17.6565L226.232 12.7041V26.2035L238.141 32.0402L251.107 26.1614V12.618ZM238.137 13.3453L226.643 8.54005L238.73 4.81424L250.63 8.5141L238.137 13.3453Z" fill="#292A2D"/>
<path fill-rule="evenodd" clip-rule="evenodd" d="M270.533 53.4294L254.161 48.3389L237.658 53.4256V57.6523V58.7437V76.4095L253.5 84.1742L270.533 76.4517V58.783V57.6523V53.4294ZM266.533 60.3299L253.504 65.3684L241.658 60.416V73.9154L253.566 79.7521L266.533 73.8733V60.3299ZM253.562 61.0572L242.068 56.252L254.156 52.5262L266.055 56.226L253.562 61.0572Z" fill="#292A2D"/>
</svg>
