<svg width="35" height="36" viewBox="0 0 35 36" fill="none" xmlns="http://www.w3.org/2000/svg">
<circle cx="17.3994" cy="17.8574" r="17.4014" fill="#AC72FF"/>
<circle cx="17.3994" cy="17.8574" r="17.4014" fill="url(#paint0_linear_1_162)" fill-opacity="0.4"/>
<path d="M8.66036 13.6697V16.4803C8.66036 20.9175 11.5273 24.8925 15.9646 26.6091C16.4212 26.7867 16.9061 26.877 17.3995 26.877C17.8929 26.877 18.3748 26.7867 18.8344 26.6091C23.2716 24.8923 26.1387 20.9177 26.1387 16.4803V13.6697C26.1387 11.7584 24.7911 10.0895 22.8658 9.61876C21.3829 9.25517 19.4209 8.83789 17.3994 8.83789C15.378 8.83789 13.4161 9.25516 11.933 9.61876C10.0048 10.0923 8.66016 11.7584 8.66016 13.6697H8.66036ZM17.3993 11.0904C19.057 11.0904 20.7087 11.409 22.3269 11.8064C23.2515 12.0347 23.8829 12.8016 23.8829 13.667V16.4776C23.8829 19.9703 21.5769 23.1279 18.0193 24.5032C17.8219 24.5793 17.6105 24.6188 17.3992 24.6188C17.1878 24.6188 16.9764 24.5793 16.779 24.5032C13.2214 23.1275 10.9154 19.9703 10.9154 16.4776V13.667C10.9154 12.8016 11.5468 12.032 12.4714 11.8064C14.0896 11.409 15.7386 11.0904 17.399 11.0904H17.3993Z" fill="black"/>
<path d="M15.0774 19.3814C15.5481 19.8521 16.1711 20.1115 16.8365 20.1115C17.5017 20.1115 18.1276 19.8521 18.5956 19.3814L21.581 16.396C22.0207 15.9563 22.0207 15.2431 21.581 14.8005C21.1413 14.3608 20.4281 14.3608 19.9855 14.8005L17.0001 17.7859C16.9128 17.8732 16.7576 17.8732 16.6703 17.7859L15.3765 16.492C14.9368 16.0523 14.2236 16.0523 13.7809 16.492C13.3413 16.9317 13.3413 17.6449 13.7809 18.0875L15.0748 19.3814H15.0774Z" fill="black"/>
<defs>
<linearGradient id="paint0_linear_1_162" x1="10.017" y1="6.02526" x2="27.3729" y2="14.2742" gradientUnits="userSpaceOnUse">
<stop stop-color="#7717FF"/>
<stop offset="1" stop-color="#A15FFF" stop-opacity="0"/>
</linearGradient>
</defs>
</svg>
