<svg width="43" height="18" viewBox="0 0 43 18" fill="none" xmlns="http://www.w3.org/2000/svg">
<mask id="mask0_1_997" style="mask-type:luminance" maskUnits="userSpaceOnUse" x="0" y="0" width="43" height="18">
<path d="M42.7718 0.345703H0.081543V17.0951H42.7718V0.345703Z" fill="white"/>
</mask>
<g mask="url(#mask0_1_997)">
<path d="M17.771 17.0954V5.57944H14.3282C14.3166 5.57944 14.3044 5.57944 14.2916 5.58002C13.6728 5.60154 13.1756 6.1104 13.1697 6.72917C13.1697 6.73266 13.1697 6.73615 13.1697 6.73906V15.955C13.1697 15.9742 13.1709 15.9957 13.1726 16.0195C13.225 16.6127 13.7216 17.0675 14.3166 17.0931C14.3416 17.0942 14.3654 17.0948 14.3875 17.0948H17.771V17.0954Z" fill="#E72264"/>
<path d="M31.9633 17.0895C32.6048 17.0413 33.1125 16.5132 33.1171 15.8694C33.1171 15.8654 33.1171 15.8613 33.1171 15.8572V6.75237C33.1171 6.74888 33.1171 6.74481 33.1171 6.74132C33.1142 6.1051 32.5966 5.58635 31.9604 5.57996C31.9558 5.57996 31.9511 5.57996 31.9465 5.57996H28.5159V17.0959H31.8197C31.8645 17.0959 31.9127 17.0936 31.9633 17.0901V17.0895Z" fill="#E72264"/>
<path d="M17.1258 5.57996H20.7314C21.085 5.57996 21.5852 5.86608 21.8492 6.21967L29.4949 16.4551C29.7589 16.8086 29.6862 17.0948 29.3332 17.0948H25.7276C25.374 17.0948 24.8739 16.8086 24.6098 16.4551L16.9635 6.21967C16.6995 5.86666 16.7722 5.57996 17.1252 5.57996H17.1258Z" fill="#E72264"/>
<path d="M29.0469 5.57996H25.4412C25.0876 5.57996 24.5875 5.86608 24.3235 6.21967L16.6778 16.4551C16.4137 16.8086 16.4864 17.0948 16.8394 17.0948H20.4451C20.7987 17.0948 21.2988 16.8086 21.5628 16.4551L29.2086 6.21967C29.4726 5.86666 29.3999 5.57996 29.0469 5.57996Z" fill="#E72264"/>
<path d="M30.8505 0.345764C32.0706 0.345764 33.0604 1.33499 33.0604 2.55568C33.0604 3.77636 32.0712 4.76559 30.8505 4.76559C29.6298 4.76559 28.6406 3.77636 28.6406 2.55568C28.6406 1.33499 29.6298 0.345764 30.8505 0.345764Z" fill="#E72264"/>
<path d="M15.4971 0.345764C16.7172 0.345764 17.707 1.33499 17.707 2.55568C17.707 3.77636 16.7178 4.76559 15.4971 4.76559C14.2764 4.76559 13.2872 3.77636 13.2872 2.55568C13.2872 1.33499 14.2764 0.345764 15.4971 0.345764Z" fill="#E72264"/>
<path d="M40.504 0.345764H37.0147C35.762 0.345764 34.7466 1.36116 34.7466 2.61383V6.10317C34.7466 7.35584 35.762 8.37123 37.0147 8.37123H40.504C41.7567 8.37123 42.7721 7.35584 42.7721 6.10317V2.61383C42.7721 1.36116 41.7567 0.345764 40.504 0.345764ZM38.1993 2.63361V4.98891C38.1993 5.30644 38.1359 5.58209 38.0092 5.8153C37.8824 6.0485 37.7015 6.22936 37.4666 6.35789C37.2316 6.48641 36.9531 6.55096 36.6315 6.55096C36.3581 6.55096 36.122 6.50153 35.9225 6.40325C35.7231 6.30497 35.5556 6.16714 35.4189 5.99035C35.4189 5.99035 35.038 5.57919 35.3869 5.28899C35.7434 4.9924 36.0522 5.38087 36.0522 5.38087C36.1243 5.48148 36.2098 5.55709 36.3087 5.6071C36.407 5.6577 36.5186 5.6827 36.6437 5.6827C36.76 5.6827 36.8629 5.65886 36.9513 5.61059C37.0397 5.56232 37.1101 5.49021 37.1624 5.39367C37.2148 5.29713 37.2409 5.17849 37.2409 5.03776V2.63419C37.2409 2.63419 37.2316 2.14917 37.7132 2.14917C38.1947 2.14917 38.1999 2.63419 38.1999 2.63419L38.1993 2.63361ZM41.6253 6.06711C41.3618 6.32765 40.9739 6.48467 40.4622 6.53817C40.1103 6.57539 39.8033 6.55097 39.5416 6.46548C39.2799 6.37999 39.035 6.23169 38.8065 6.02117C38.8065 6.02117 38.4529 5.71643 38.7379 5.33377C38.9519 5.0459 39.3543 5.34482 39.3543 5.34482C39.5067 5.48672 39.6701 5.5914 39.8451 5.66002C40.0202 5.72864 40.2173 5.75133 40.4377 5.72806C40.6337 5.70771 40.7826 5.65421 40.885 5.56872C40.9873 5.48323 41.0315 5.37622 41.0181 5.24828C41.0065 5.13662 40.9617 5.04822 40.8844 4.98367C40.807 4.91912 40.7053 4.86736 40.5796 4.82782C40.454 4.78827 40.3191 4.75338 40.1743 4.72197C40.0295 4.69057 39.8829 4.65044 39.7341 4.60159C39.5852 4.55274 39.4474 4.48819 39.3194 4.40851C39.1915 4.32884 39.0845 4.22125 38.9972 4.08459C38.91 3.94792 38.8553 3.77404 38.8332 3.56235C38.8053 3.29832 38.8449 3.0657 38.9507 2.86448C39.0571 2.66326 39.2188 2.50159 39.4363 2.37947C39.6538 2.25734 39.9068 2.18115 40.1947 2.15091C40.4947 2.11951 40.7721 2.14277 41.0269 2.2207C41.2816 2.29921 41.4985 2.41785 41.677 2.57661C41.677 2.57661 41.9271 2.78655 41.7241 3.1477C41.5665 3.42859 41.124 3.25994 41.124 3.25994C40.9821 3.1413 40.8425 3.05698 40.7064 3.00696C40.5698 2.95695 40.4215 2.94008 40.2615 2.95695C40.0975 2.9744 39.9708 3.01918 39.8812 3.09071C39.7916 3.16282 39.7533 3.25703 39.7655 3.37276C39.7765 3.47686 39.8213 3.5577 39.9004 3.61643C39.9795 3.67459 40.0801 3.7217 40.2034 3.75717C40.3261 3.79265 40.4616 3.82696 40.6081 3.86011C40.7553 3.89325 40.903 3.93338 41.0513 3.98049C41.1996 4.02759 41.3374 4.09505 41.4636 4.18287C41.5898 4.27068 41.698 4.38467 41.7875 4.52482C41.8771 4.66498 41.9335 4.84701 41.9574 5.07091C41.9998 5.47509 41.8893 5.80716 41.6253 6.06711Z" fill="#E72264"/>
<path d="M6.3142 0.366028C2.87197 0.366028 0.081665 3.15633 0.081665 6.59856C0.081665 6.66602 0.0828282 6.7329 0.0851544 6.79977V12.7892C0.0851544 12.7892 0.0851544 12.7898 0.0851544 12.7904V13.3993C0.0851544 13.3993 0.0851544 13.3993 0.0857359 13.3987V14.9043C0.0857359 14.916 0.0851544 14.927 0.0851544 14.9386C0.0851544 14.9503 0.0857359 14.9619 0.0863175 14.9735V15.0015H0.086899C0.120048 16.1582 1.0674 17.0858 2.23226 17.0858C3.39712 17.0858 4.35436 16.1582 4.38751 15.0015V12.7904H6.16823C6.2165 12.7915 6.26535 12.7921 6.31362 12.7921C9.75585 12.7921 12.5462 10.0408 12.5462 6.59856C12.5462 3.15633 9.75643 0.366028 6.3142 0.366028ZM6.3142 8.48861C5.93328 8.48861 4.9679 8.48861 4.56721 8.48861H4.38925V6.59914C4.38925 5.54013 5.25519 4.68117 6.3142 4.68117C7.37321 4.68117 8.23217 5.54013 8.23217 6.59914C8.23217 7.65815 7.37321 8.48919 6.3142 8.48919V8.48861Z" fill="#E72264"/>
<path opacity="0.15" d="M2.17817 12.7914H4.3846V15.0019H4.37471C4.34156 16.1586 3.39421 17.0862 2.22935 17.0862C1.06449 17.0862 0.116558 16.1586 0.0834097 15.0019H0.0828282V14.974C0.0828282 14.9623 0.081665 14.9507 0.081665 14.9391C0.081665 14.9274 0.0822466 14.9164 0.0822466 14.9048V14.7489C0.148544 13.7143 1.12498 12.7914 2.17759 12.7914H2.17817Z" fill="#1D1D1B"/>
<g opacity="0.05">
<path opacity="0.5" d="M0.0847778 10.1324V12.7901C0.0847778 10.4488 2.05218 8.52153 4.38771 8.48954V7.64163C2.65177 7.82424 1.11471 8.7588 0.0847778 10.1324Z" fill="black"/>
<path d="M0.0877075 14.7901C0.594825 14.4179 1.21011 14.1986 1.87425 14.1986H4.38773V12.7901H2.23423C1.09671 12.7901 0.166799 13.6723 0.0877075 14.7901Z" fill="black"/>
</g>
<g opacity="0.05">
<path opacity="0.5" d="M4.38771 8.48952V7.71954C2.63723 7.8911 1.09261 8.84602 0.0847778 10.2481V12.7901C0.0847778 10.4488 2.05218 8.52151 4.38771 8.48952Z" fill="black"/>
<path d="M2.23439 12.79C1.12769 12.79 0.216972 13.6257 0.0960083 14.7004C0.602544 14.305 1.2283 14.0712 1.90697 14.0712H4.38731V12.7906H2.23381L2.23439 12.79Z" fill="black"/>
</g>
<g opacity="0.05">
<path opacity="0.5" d="M4.38771 8.4896V7.79697C2.62152 7.95689 1.06703 8.93507 0.0847778 10.3686V12.7896C0.0847778 10.4483 2.05218 8.521 4.38771 8.48902V8.4896Z" fill="black"/>
<path d="M2.23423 12.79C1.15835 12.79 0.267992 13.5792 0.107483 14.6103C0.61111 14.1922 1.24733 13.9427 1.93938 13.9427H4.38715V12.79H2.23365H2.23423Z" fill="black"/>
</g>
<g opacity="0.05">
<path opacity="0.5" d="M4.38771 8.48909V7.87439C2.6035 8.0221 1.03853 9.02703 0.0847778 10.4955V12.7897C0.0847778 10.4484 2.05218 8.52108 4.38771 8.48909Z" fill="black"/>
<path d="M2.2341 12.7901C1.18904 12.7901 0.31845 13.535 0.123047 14.5225C0.622603 14.0811 1.26755 13.8148 1.9724 13.8148H4.3876V12.7901H2.2341Z" fill="black"/>
</g>
<g opacity="0.05">
<path opacity="0.5" d="M4.38771 8.48956V7.95337C2.58256 8.08713 1.00538 9.12346 0.0847778 10.6303V12.7902C0.0847778 10.4488 2.05218 8.52155 4.38771 8.48956Z" fill="black"/>
<path d="M2.2341 12.7899C1.22044 12.7899 0.371374 13.4907 0.142822 14.4334C0.6354 13.9693 1.28849 13.6861 2.00496 13.6861H4.38702V12.7893H2.23352L2.2341 12.7899Z" fill="black"/>
</g>
<g opacity="0.05">
<path opacity="0.5" d="M4.38771 8.48951V8.03183C2.55872 8.15163 0.966417 9.22344 0.0847778 10.7744V12.7901C0.0847778 10.4488 2.05218 8.5215 4.38771 8.48951Z" fill="black"/>
<path d="M2.23412 12.7898C1.25245 12.7898 0.425479 13.447 0.166687 14.3443C0.650542 13.8575 1.31003 13.558 2.03814 13.558H4.38762V12.7898H2.23412Z" fill="black"/>
</g>
<g opacity="0.05">
<path opacity="0.5" d="M4.38771 8.4894V8.11081C2.5308 8.21491 0.920474 9.32975 0.0847778 10.9308V12.79C0.0847778 10.4487 2.05218 8.52139 4.38771 8.4894Z" fill="black"/>
<path d="M2.23486 12.7898C1.28634 12.7898 0.48147 13.4039 0.194763 14.2559C0.667568 13.747 1.33345 13.4301 2.07086 13.4301H4.38778V12.7898H2.23428H2.23486Z" fill="black"/>
</g>
<g opacity="0.05">
<path opacity="0.5" d="M4.38771 8.48923V8.19031C2.49649 8.27754 0.864644 9.44472 0.0847778 11.1045V12.7898C0.0847778 10.4485 2.05218 8.52121 4.38771 8.48923Z" fill="black"/>
<path d="M2.23465 12.7901C1.3187 12.7901 0.537085 13.3629 0.225952 14.1695C0.685963 13.638 1.35592 13.3024 2.1038 13.3024H4.38815V12.7901H2.23465Z" fill="black"/>
</g>
<g opacity="0.05">
<path opacity="0.5" d="M4.38771 8.48935V8.27185C2.45287 8.34106 0.793113 9.57395 0.0847778 11.3064V12.79C0.0847778 10.4486 2.05218 8.52134 4.38771 8.48935Z" fill="black"/>
<path d="M2.23497 12.7901C1.35217 12.7901 0.593816 13.3222 0.262329 14.0829C0.706057 13.5286 1.38066 13.1745 2.13727 13.1745H4.38847V12.7901H2.23497Z" fill="black"/>
</g>
</g>
</svg>
