<svg width="28" height="28" viewBox="0 0 28 28" fill="none" xmlns="http://www.w3.org/2000/svg">
<path d="M15.6886 0.907227C12.615 0.907227 9.66721 2.12823 7.49381 4.30163C5.32041 6.47504 4.0994 9.4228 4.0994 12.4965V17.4026L2.04339 19.4586C1.15772 20.3443 0.660156 21.5455 0.660156 22.798C0.660156 24.0505 1.15772 25.2517 2.04339 26.1374C2.92906 27.0231 4.13028 27.5206 5.3828 27.5206C6.63533 27.5206 7.83655 27.0231 8.72222 26.1374L10.7739 24.0857H13.1133L13.2291 24.3304C13.7742 25.4712 14.6905 26.3931 15.828 26.9451C16.9655 27.497 18.2567 27.6463 19.4901 27.3685C20.7236 27.0907 21.8261 26.4023 22.6171 25.4159C23.4081 24.4296 23.8407 23.2039 23.844 21.9395C23.8425 21.6403 23.8167 21.3418 23.7668 21.0467L23.7324 20.8321L23.8869 20.6776C25.5032 19.0559 26.603 16.9918 27.0473 14.7457C27.4917 12.4996 27.2608 10.1722 26.3838 8.05722C25.5067 5.94223 24.0229 4.13442 22.1194 2.86191C20.216 1.58941 17.9783 0.909237 15.6886 0.907227ZM13.1133 19.8277C12.9426 20.2495 12.8244 20.6906 12.7613 21.1412L12.684 21.5103H9.6794L6.87223 24.3175C6.67426 24.5225 6.43744 24.686 6.1756 24.7984C5.91376 24.9109 5.63214 24.9701 5.34718 24.9726C5.06221 24.9751 4.77961 24.9208 4.51586 24.8129C4.2521 24.7049 4.01248 24.5456 3.81097 24.3441C3.60946 24.1426 3.4501 23.9029 3.34219 23.6392C3.23428 23.3754 3.17998 23.0928 3.18246 22.8079C3.18493 22.5229 3.24414 22.2413 3.35662 21.9794C3.46909 21.7176 3.63259 21.4808 3.83757 21.2828L6.67479 18.4671V13.0287L13.2077 19.5659L13.1133 19.8277ZM18.264 24.9442C17.6698 24.9442 17.0889 24.7679 16.5947 24.4378C16.1006 24.1076 15.7155 23.6384 15.4881 23.0894C15.2607 22.5403 15.2012 21.9362 15.3171 21.3534C15.4331 20.7705 15.7192 20.2352 16.1394 19.815C16.5596 19.3948 17.095 19.1086 17.6778 18.9927C18.2607 18.8767 18.8648 18.9362 19.4138 19.1636C19.9629 19.391 20.4321 19.7762 20.7623 20.2703C21.0924 20.7644 21.2686 21.3453 21.2686 21.9395C21.2686 22.7364 20.9521 23.5006 20.3886 24.0641C19.8251 24.6276 19.0609 24.9442 18.264 24.9442ZM22.8525 17.952L22.5563 18.3426L22.2087 17.9949C21.2889 17.0758 20.077 16.5068 18.7824 16.3861C17.4877 16.2654 16.1916 16.6006 15.1178 17.3339L14.8216 17.5356L7.09543 9.80947L7.18557 9.55623C7.89007 7.55327 9.279 5.8633 11.1076 4.78418C12.9361 3.70506 15.0869 3.30608 17.1809 3.65755C19.2748 4.00902 21.1775 5.08838 22.5535 6.70539C23.9295 8.3224 24.6906 10.3733 24.7025 12.4965C24.7072 14.4697 24.0565 16.3886 22.8525 17.952Z" fill="white"/>
</svg>
