<svg width="38" height="28" viewBox="0 0 38 28" fill="none" xmlns="http://www.w3.org/2000/svg">
<path d="M20.144 4.97973L20.262 5.78562H21.8696L21.4057 3.62418H19.2527L17.9381 5.78562H19.7004C19.6963 5.78562 20.144 4.97973 20.144 4.97973ZM21.8859 9.26542L21.2876 6.37661H19.68L19.7981 7.1825H18.6544L19.1184 6.37661H17.3561L15.6142 9.26542H17.5108L17.9178 8.51738H20.0097L20.1277 9.26542C20.1236 9.26542 21.8859 9.26542 21.8859 9.26542ZM26.8796 8.91C27.4413 8.67443 27.8686 8.31901 28.1576 7.8892C28.4465 7.45526 28.6012 6.96346 28.6012 6.37661H26.7616C26.7616 6.43447 26.782 6.47579 26.782 6.53365C26.782 6.94693 26.6476 7.26102 26.3546 7.49659C26.0657 7.73216 25.6953 7.85201 25.2313 7.85201H24.5354L24.8243 6.37661H23.0417L22.4679 9.26542H24.9057C25.6627 9.26542 26.318 9.14557 26.8796 8.91ZM25.5651 5.03759H26.2814C26.6517 5.03759 26.9203 5.11611 27.0953 5.25249C27.2296 5.37234 27.3273 5.54592 27.3477 5.78562H29.1832V5.76496C29.1832 5.05825 28.9512 4.52512 28.5035 4.15317C28.0599 3.79776 27.4006 3.60352 26.5093 3.60352H24.0714L23.6278 5.78562H25.3901L25.5651 5.03759ZM31.8571 7.45526L32.7484 6.37247H29.6512L30.0786 7.37674L29.6919 9.26542H31.4908L31.8571 7.45526ZM33.3304 5.78562L35.1496 3.62418H33.2124L31.8001 5.41367L31.1204 3.62418H29.2605L30.2291 5.78562H33.3304ZM7.75123 4.88054H8.52451C8.77684 4.88054 8.96812 4.91774 9.0658 4.97973C9.18383 5.03759 9.22045 5.15744 9.22045 5.31448C9.22045 5.55005 9.10243 5.7071 8.87045 5.78562H10.8281C10.8932 5.59551 10.9257 5.39714 10.9257 5.19463C10.9257 4.70283 10.7507 4.31022 10.3844 4.03332C10.0181 3.75643 9.53383 3.62005 8.91114 3.62005H6.27794L6.0256 4.87641H7.75123V4.88054ZM16.6765 3.62418H12.1874L11.9147 4.90121H16.4241L16.6765 3.62418ZM14.1613 5.97986L14.2183 5.70297H11.7967L11.7397 5.97986L11.5444 6.96346H13.9659L14.1613 5.97986ZM15.3985 7.98839H10.8281L10.5798 9.26542H15.1503C15.1462 9.26542 15.3985 7.98839 15.3985 7.98839ZM12.9607 15.1257H10.4414L10.7304 13.6916H8.93149L8.35357 16.5804H12.6717C12.6676 16.5804 12.9607 15.1257 12.9607 15.1257ZM9.51348 13.1006H11.3124L11.7397 10.9392H9.9571L9.51348 13.1006ZM15.5532 15.8324H17.6247L17.759 16.5804H19.5213L18.9027 13.6875H17.3154L17.4335 14.4934H16.2898L16.7334 13.6875H14.9915L13.2496 16.5804H15.1462L15.5532 15.8324ZM16.8922 10.9351L15.5735 13.0965H17.3154L17.759 12.2906L17.8934 13.0965H19.4806L19.037 10.9351C19.0411 10.9351 16.8922 10.9351 16.8922 10.9351ZM20.8969 14.6917L20.5103 16.5804H22.3092L22.6755 14.7703L23.5668 13.6875H20.4492C20.4533 13.6875 20.8969 14.6917 20.8969 14.6917ZM24.0348 10.9351L22.6225 12.7245L21.9429 10.9351H20.0829L21.0312 13.0965H24.1487L25.968 10.9351C25.972 10.9351 24.0348 10.9351 24.0348 10.9351ZM6.45294 12.117C6.70527 12.117 6.89656 12.1542 6.99423 12.2162C7.11226 12.2741 7.14889 12.3733 7.14889 12.5303C7.14889 12.9023 6.87621 13.08 6.31456 13.1006H8.75242C8.8501 12.8857 8.88672 12.6295 8.88672 12.3526C8.88672 11.8401 8.71172 11.4475 8.38206 11.1913C8.03205 10.9351 7.53146 10.7987 6.85179 10.7987H4.35289L4.0802 12.117C4.09241 12.117 6.45294 12.117 6.45294 12.117ZM8.19892 13.6875H3.31914L2.7168 16.5804H4.43835L4.76801 15.0265H5.52501C6.39596 15.0265 7.07563 14.8488 7.57623 14.4768C7.84891 14.2743 8.06461 14.0016 8.19892 13.6875ZM6.66864 7.61231H7.51925L8.17857 9.28195H10.0751L9.18382 7.33541C9.55011 7.17837 9.84314 6.96346 10.0344 6.68657C10.1118 6.58738 10.1687 6.47166 10.2094 6.35181H5.23605L4.65406 9.26542H6.31863L6.66864 7.61231ZM31.1001 10.9557H26.5907L26.3383 12.2327H30.8315L31.1001 10.9557ZM25.9517 14.3777H28.3733L28.6053 13.1213H26.1837L25.9517 14.3777ZM25.0034 16.597H29.5739L29.8262 15.3199H25.2558L25.0034 16.597ZM36.3299 11.3483C35.9636 11.0714 35.4793 10.9351 34.8566 10.9351H32.2234L31.971 12.1914H34.4699C34.7223 12.1914 34.9136 12.2286 35.0112 12.2906C35.1293 12.3485 35.1659 12.4683 35.1659 12.6254C35.1659 12.8609 35.0479 13.018 34.8159 13.0965H36.7694C36.8345 12.9064 36.8671 12.708 36.8671 12.5055C36.8712 12.0178 36.6799 11.6252 36.3299 11.3483ZM35.9799 13.985C36.0572 13.8859 36.1142 13.7701 36.1549 13.6503H31.1815L30.5995 16.5804H32.2641L32.6141 14.9108H33.4647L34.124 16.5804H36.0206L35.1293 14.6339C35.4956 14.4768 35.7886 14.2578 35.9799 13.985ZM15.0119 19.9197H19.505L19.7777 18.622H15.2642L15.0119 19.9197ZM17.2788 20.7876H14.8572L14.6049 22.044H17.0265L17.2788 20.7876ZM13.677 24.2674H18.2271L18.4998 22.9904H13.9293L13.677 24.2674ZM7.4989 20.7876H10.3844L9.87977 18.6262H7.94658C7.94658 18.622 7.4989 20.7876 7.4989 20.7876ZM14.5276 18.622H12.4764L11.1007 20.7835H14.1002L14.5276 18.622ZM9.9978 22.2217L9.80245 21.3744H6.92098L6.33898 24.2674H7.94658L8.45125 21.8291L8.97219 24.2674H10.2705L11.8008 21.7712L11.2961 24.2674H12.9403L13.5223 21.3786H10.5187C10.5187 21.3744 9.9978 22.2217 9.9978 22.2217Z" fill="white"/>
</svg>
