<svg width="302" height="166" viewBox="0 0 302 166" fill="none" xmlns="http://www.w3.org/2000/svg">
<mask id="mask0_0_1" style="mask-type:alpha" maskUnits="userSpaceOnUse" x="0" y="0" width="302" height="166">
<path d="M0.564453 20.6148C0.564453 9.84469 9.29543 1.09863 20.0645 1.09863H281.705C292.475 1.09863 301.205 9.82908 301.205 20.5986V145.516C301.205 156.285 292.475 165.016 281.705 165.016H20.0645C9.29543 165.016 0.564453 156.27 0.564453 145.499V145.229V144.959V144.689V144.42V144.151V143.882V143.614V143.346V143.078V142.81V142.543V142.276V142.009V141.743V141.477V141.211V140.945V140.68V140.415V140.151V139.886V139.622V139.359V139.095V138.832V138.569V138.306V138.044V137.782V137.52V137.258V136.997V136.736V136.475V136.215V135.955V135.695V135.435V135.176V134.917V134.658V134.399V134.141V133.883V133.625V133.367V133.11V132.853V132.596V132.34V132.083V131.827V131.572V131.316V131.061V130.806V130.551V130.296V130.042V129.788V129.534V129.28V129.027V128.774V128.521V128.268V128.016V127.763V127.511V127.26V127.008V126.757V126.506V126.255V126.004V125.754V125.503V125.253V125.004V124.754V124.505V124.256V124.007V123.758V123.509V123.261V123.013V122.765V122.517V122.27V122.023V121.775V121.529V121.282V121.035V120.789V120.543V120.297V120.051V119.806V119.561V119.315V119.07V118.826V118.581V118.337V118.092V117.848V117.605V117.361V117.117V116.874V116.631V116.388V116.145V115.902V115.66V115.418V115.176V114.934V114.692V114.45V114.209V113.967V113.726V113.485V113.244V113.004V112.763V112.523V112.283V112.043V111.803V111.563V111.323V111.084V110.845V110.605V110.366V110.127V109.889V109.65V109.412V109.173V108.935V108.697V108.459V108.221V107.984V107.746V107.509V107.271V107.034V106.797V106.56V106.324V106.087V105.85V105.614V105.378V105.142V104.905V104.669V104.434V104.198V103.962V103.727V103.491V103.256V103.021V102.786V102.551V102.316V102.081V101.847V101.612V101.377V101.143V100.909V100.675V100.441V100.206V99.9726V99.7387V99.505V99.2713V99.0378V98.8043V98.5709V98.3375V98.1043V97.8711V97.638V97.405V97.1721V96.9392V96.7064V96.4737V96.2411V96.0085V95.776V95.5435V95.3111V95.0788V94.8466V94.6144V94.3823V94.1502V93.9182V93.6862V93.4543V93.2225V92.9907V92.759V92.5273V92.2956V92.0641V91.8325V91.601V91.3696V91.1382V90.9068V90.6755V90.4442V90.213V89.9818V89.7506V89.5195V89.2884V89.0573V88.8263V88.5953V88.3643V88.1333V87.9024V87.6715V87.4407V87.2098V86.979V86.7482V86.5174V86.2866V86.0559V85.8251V85.5944V85.3637V85.133V84.9023V84.6717V84.441V84.2103V83.9797V83.749V83.5184V83.2878V83.0571V82.8265V82.5958V82.3652V82.1346V81.9039V81.6732V81.4426V81.2119V80.9812V80.7505V80.5198V80.2891V80.0584V79.8276V79.5969V79.3661V79.1353V78.9044V78.6736V78.4427V78.2118V77.9809V77.75V77.519V77.288V77.0569V76.8259V76.5948V76.3636V76.1325V75.9013V75.67V75.4388V75.2074V74.9761V74.7447V74.5132V74.2817V74.0502V73.8186V73.587V73.3553V73.1235V72.8917V72.6599V72.428V72.1961V71.964V71.732V71.4998V71.2677V71.0354V70.8031V70.5707V70.3383V70.1058V69.8732V69.6405V69.4078V69.175V68.9422V68.7092V68.4762V68.2431V68.01V67.7767V67.5434V67.31V67.0765V66.8429V66.6092V66.3755V66.1417V65.9077V65.6737V65.4396V65.2054V64.9711V64.7368V64.5023V64.2677V64.033V63.7983V63.5634V63.3284V63.0933V62.8581V62.6228V62.3874V62.1519V61.9163V61.6806V61.4447V61.2088V60.9727V60.7365V60.5002V60.2638V60.0273V59.7906V59.5539V59.317V59.0799V58.8428V58.6055V58.3681V58.1306V57.8929V57.6551V57.4172V57.1791V56.9409V56.7026V56.4641V56.2255V55.9868V55.7479V55.5089V55.2697V55.0304V54.7909V54.5513V54.3115V54.0716V53.8316V53.5914V53.351V53.1105V52.8698V52.629V52.388V52.1468V51.9055V51.6641V51.4224V51.1806V50.9387V50.6965V50.4542V50.2118V49.9691V49.7263V49.4834V49.2402V48.9969V48.7534V48.5097V48.2658V48.0218V47.7776V47.5332V47.2886V47.0438V46.7988V46.5537V46.3084V46.0628V45.8171V45.5712V45.3251V45.0788V44.8323V44.5856V44.3387V44.0917V43.8444V43.5969V43.3492V43.1013V42.8532V42.6049V42.3564V42.1077V41.8587V41.6096V41.3602V41.1107V40.8609V40.6109V40.3606V40.1102V39.8595V39.6087V39.3576V39.1062V38.8547V38.6029V38.3509V38.0987V37.8462V37.5935V37.3406V37.0874V36.834V36.5804V36.3265V36.0724V35.8181V35.5635V35.3087V35.0536V34.7983V34.5427V34.2869V34.0309V33.7746V33.518V33.2612V33.0041V32.7468V32.4892V32.2314V31.9733V31.715V31.4564V31.1975V30.9384V30.679V30.4194V30.1594V29.8993V29.6388V29.3781V29.1171V28.8558V28.5943V28.3324V28.0704V27.808V27.5453V27.2824V27.0192V26.7557V26.4919V26.2279V25.9635V25.6989V25.434V25.1688V24.9033V24.6375V24.3714V24.105V23.8383V23.5714V23.3041V23.0365V22.7687V22.5005V22.232V21.9632V21.6942V21.4248V21.1551V20.8851V20.6148Z" fill="#18191B" stroke="#38393C"/>
</mask>
<g mask="url(#mask0_0_1)">
<circle cx="150.649" cy="16.1465" r="134.538" stroke="#E78EF9" stroke-width="3"/>
<circle cx="150.651" cy="16.1463" r="102.043" stroke="#292A2D" stroke-width="9"/>
<circle cx="150.651" cy="16.1463" r="102.043" stroke="#292A2D" stroke-width="9"/>
<circle cx="150.651" cy="16.1463" r="102.043" stroke="#292A2D" stroke-width="9"/>
<circle cx="150.648" cy="16.1467" r="63.6501" stroke="#292A2D" stroke-width="9"/>
<circle cx="150.648" cy="16.1467" r="63.6501" stroke="#292A2D" stroke-width="9"/>
<circle cx="150.648" cy="16.1467" r="63.6501" stroke="#292A2D" stroke-width="9"/>
</g>
<path d="M231.496 70.7097L232.767 81.3985L240.678 88.6972L230.905 93.2085L226.409 102.988L219.098 95.0876L208.407 93.8332L213.662 84.439L211.552 73.8839L222.11 75.9787L231.496 70.7097Z" fill="#8C72F4"/>
<path d="M81.7007 34.4843C80.6048 29.9974 84.777 26.0067 89.2108 27.301L103.987 31.6147C108.421 32.9091 109.791 38.5177 106.453 41.7102L95.329 52.3501C91.9912 55.5426 86.4491 53.9247 85.3531 49.4378L81.7007 34.4843Z" fill="#5BEDB0"/>
<path d="M154.37 140.11C157.885 136.595 163.583 136.595 167.098 140.11L171.028 144.04C174.542 147.555 174.542 153.253 171.028 156.768L167.098 160.698C163.583 164.212 157.885 164.212 154.37 160.698L150.44 156.768C146.925 153.253 146.925 147.555 150.44 144.04L154.37 140.11Z" fill="#F9AA21"/>
</svg>
