<svg width="110" height="57" viewBox="0 0 110 57" fill="none" xmlns="http://www.w3.org/2000/svg">
<path fill-rule="evenodd" clip-rule="evenodd" d="M79.6211 0.110864C79.707 0.13951 79.8646 0.168156 80.0938 0.196802C80.3229 0.196802 80.5234 0.211125 80.6953 0.239771H80.9961L82.6289 0.368677C83.7461 0.425968 84.4909 0.554875 84.8633 0.755396C85.2357 0.927271 85.4648 1.09915 85.5508 1.27102C85.6367 1.41425 85.7083 3.24758 85.7656 6.77102C85.7943 10.2085 85.8229 12.1135 85.8516 12.4859C85.8516 12.8296 85.8086 14.3622 85.7227 17.0835C85.6367 19.7762 85.5508 21.7958 85.4648 23.1421C85.4076 24.4312 85.293 25.2333 85.1211 25.5484C84.9779 25.8348 84.7344 26.0497 84.3906 26.1929C84.0755 26.3361 83.3021 26.465 82.0703 26.5796C80.8672 26.6942 79.8646 26.7801 79.0625 26.8374C78.2891 26.8947 77.2148 26.9234 75.8398 26.9234C74.4648 26.9234 73.4909 26.8661 72.918 26.7515C72.3451 26.6369 71.6719 26.3934 70.8984 26.021C70.125 25.6486 69.5378 25.3335 69.1367 25.0757C68.7357 24.7892 68.2201 24.2163 67.5898 23.357C66.9883 22.4976 66.6875 21.9676 66.6875 21.7671C66.6875 21.5666 66.6302 21.452 66.5156 21.4234C66.4297 21.3661 66.2292 20.9221 65.9141 20.0913C65.599 19.2606 65.4557 18.3726 65.4844 17.4273C65.513 16.482 65.5846 15.8947 65.6992 15.6656C65.7279 15.6083 65.7852 15.2215 65.8711 14.5054C65.9284 13.9898 66.2578 13.1161 66.8594 11.8843C67.4896 10.6525 68.0768 9.77883 68.6211 9.26321C69.2227 8.71894 69.6667 8.3179 69.9531 8.06008C70.0677 7.97415 70.5117 7.73066 71.2852 7.32961C71.8008 7.04316 72.3451 6.89993 72.918 6.89993C74.4648 6.87128 75.4675 6.85696 75.9258 6.85696C76.3555 6.85696 76.7279 6.89993 77.043 6.98586C77.3581 7.04316 77.6016 7.11477 77.7734 7.20071C77.9453 7.258 78.2461 7.40123 78.6758 7.6304V4.1929C78.6758 1.92987 78.7331 0.683781 78.8477 0.454614C78.9909 0.196802 79.2487 0.0822184 79.6211 0.110864ZM74.9375 12.6577C74.7943 12.715 74.4648 12.8583 73.9492 13.0874C73.4336 13.3166 73.0898 13.5028 72.918 13.646L72.2734 14.4195C72.1016 14.6773 71.987 14.9208 71.9297 15.1499C71.8724 15.3504 71.8294 15.7372 71.8008 16.3101C71.7721 17.1981 71.8581 17.857 72.0586 18.2866C72.2591 18.6877 72.474 19.0601 72.7031 19.4038C72.9609 19.7189 73.3047 19.9767 73.7344 20.1773C74.1927 20.3778 74.6224 20.5497 75.0234 20.6929C75.4531 20.8075 75.9544 20.8504 76.5273 20.8218C77.1289 20.7645 77.53 20.6499 77.7305 20.4781C78.0742 20.1343 78.2891 19.9051 78.375 19.7906C78.4896 19.6473 78.6615 19.2892 78.8906 18.7163C78.9766 18.5445 78.9909 18.0288 78.9336 17.1695C78.905 16.2241 78.862 15.551 78.8047 15.1499C78.7474 14.7202 78.5326 14.2619 78.1602 13.7749C77.931 13.4598 77.7305 13.245 77.5586 13.1304C77.3867 13.0158 77.1289 12.9012 76.7852 12.7866C76.2122 12.6434 75.7969 12.5718 75.5391 12.5718C75.3099 12.5718 75.1094 12.6004 74.9375 12.6577ZM91.7383 28.9429C91.8529 28.6564 92.1536 27.883 92.6406 26.6226C93.1562 25.3622 93.5716 24.4025 93.8867 23.7437C94.0586 23.3999 94.1589 23.0562 94.1875 22.7124C94.2448 22.3687 94.2161 22.0392 94.1016 21.7241C94.0156 21.3804 93.9154 21.0796 93.8008 20.8218C93.6862 20.5353 93.5286 20.2202 93.3281 19.8765L92.9414 19.1031C92.7695 18.702 92.4115 17.9572 91.8672 16.8687C91.3516 15.7801 90.8646 14.7775 90.4062 13.8609C89.9766 12.9156 89.6471 12.1564 89.418 11.5835C89.4466 11.5549 89.1172 10.8101 88.4297 9.34915C87.7422 7.85956 87.4414 7.08613 87.5273 7.02883C87.5846 6.85696 87.8281 6.71373 88.2578 6.59915C88.7161 6.48456 89.2604 6.39863 89.8906 6.34133C90.5208 6.2554 90.8789 6.21243 90.9648 6.21243C91.4805 6.09784 91.9102 6.02623 92.2539 5.99758C92.5977 5.94029 93.013 5.98326 93.5 6.12649C94.0156 6.26972 94.3737 6.5705 94.5742 7.02883C94.6315 7.14342 94.8607 7.5731 95.2617 8.3179C95.6628 9.03404 95.9062 9.54967 95.9922 9.86477C96.2214 10.409 96.5794 11.1968 97.0664 12.2281C97.582 13.2307 97.9401 14.0327 98.1406 14.6343C98.3125 14.8921 98.4557 15.021 98.5703 15.021C98.9427 14.2476 99.487 12.9585 100.203 11.1538C100.919 9.3205 101.478 8.00279 101.879 7.20071C101.936 7.11477 102.008 7.00019 102.094 6.85696C102.18 6.68508 102.237 6.58482 102.266 6.55618C102.294 6.49889 102.337 6.42727 102.395 6.34133C102.48 6.22675 102.566 6.16946 102.652 6.16946C102.738 6.14081 102.839 6.12649 102.953 6.12649C103.096 6.09784 103.24 6.09784 103.383 6.12649C103.555 6.12649 103.77 6.15514 104.027 6.21243C104.4 6.24107 105.13 6.48456 106.219 6.9429C107.336 7.37258 107.938 7.60175 108.023 7.6304C108.31 7.71633 108.582 7.90253 108.84 8.18899C109.098 8.4468 109.141 8.73326 108.969 9.04836C108.969 9.10566 108.94 9.19159 108.883 9.30618C108.854 9.39211 108.84 9.44941 108.84 9.47805C108.84 9.5067 108.826 9.54967 108.797 9.60696C108.797 9.66425 108.783 9.70722 108.754 9.73586L108.711 9.8218C108.711 9.85045 108.697 9.87909 108.668 9.90774L108.625 9.99368C108.596 10.051 108.553 10.1083 108.496 10.1656L108.367 10.4234C108.339 10.5093 108.296 10.6096 108.238 10.7241C108.124 10.896 107.952 11.1682 107.723 11.5406C107.522 11.9129 107.365 12.2137 107.25 12.4429C107.164 12.6434 107.092 12.8583 107.035 13.0874C107.007 13.1447 106.691 13.7606 106.09 14.9351C105.517 16.1096 105.245 16.7684 105.273 16.9116C105.159 17.3413 103.898 20.1057 101.492 25.2046C101.349 25.5197 101.263 25.7346 101.234 25.8491C101.148 25.9924 101.034 26.1929 100.891 26.4507C100.747 26.7085 100.647 26.9234 100.59 27.0952C100.533 27.2671 100.203 27.8973 99.6016 28.9859C99.5156 29.1577 99.3151 29.5445 99 30.146C98.6849 30.7476 98.2695 31.4924 97.7539 32.3804V32.2945C96.1784 32.1799 95.0755 32.0653 94.4453 31.9507C94.3594 31.9507 94.03 31.8648 93.457 31.6929C92.1107 31.2919 91.4232 30.8765 91.3945 30.4468C91.28 30.189 91.3945 29.6877 91.7383 28.9429ZM58.3086 7.45852C57.6784 7.40123 56.8763 7.37258 55.9023 7.37258C54.556 7.37258 53.7826 7.42987 53.582 7.54446C53.4102 7.6304 52.9375 7.77362 52.1641 7.97415C51.3906 8.17467 50.6172 8.47545 49.8438 8.87649C49.099 9.24889 48.4544 9.70722 47.9102 10.2515C47.3659 10.7958 46.8789 11.34 46.4492 11.8843C46.0195 12.3999 45.6615 12.9585 45.375 13.5601C45.1172 14.133 44.8737 14.8635 44.6445 15.7515C44.444 16.6395 44.3294 17.5562 44.3008 18.5015C44.3008 20.0484 44.7161 21.3947 45.5469 22.5406C45.862 22.9416 46.2201 23.314 46.6211 23.6577C47.2799 24.2307 47.681 24.5744 47.8242 24.689C47.9961 24.8036 48.526 25.0614 49.4141 25.4624C50.3021 25.8921 50.9036 26.107 51.2188 26.107C51.5625 26.107 51.9349 26.1642 52.3359 26.2788C53.4245 26.5653 55.3151 26.6799 58.0078 26.6226C60.7005 26.5366 62.1328 26.3934 62.3047 26.1929C62.3333 26.1642 62.362 26.021 62.3906 25.7632C62.4193 25.4767 62.4479 25.1616 62.4766 24.8179C62.5052 24.4741 62.5339 24.245 62.5625 24.1304C62.6484 23.5861 62.7487 22.5119 62.8633 20.9077C62.9779 19.3609 63.0781 17.2554 63.1641 14.5913L63.25 10.6812C63.2214 10.0796 63.0781 9.57831 62.8203 9.17727C62.5911 8.77623 62.276 8.46113 61.875 8.23196C61.5026 8.00279 60.9727 7.83092 60.2852 7.71633C59.6263 7.5731 58.9674 7.48717 58.3086 7.45852ZM50.6602 18.5874C50.1732 17.2697 50.388 16.1096 51.3047 15.107C51.7057 14.6486 52.1211 14.3192 52.5508 14.1187C52.8372 13.9468 53.0951 13.8465 53.3242 13.8179C53.582 13.7893 54.0547 13.7749 54.7422 13.7749C56.0312 13.8322 56.7044 13.8752 56.7617 13.9038C56.7904 13.9611 56.819 14.4051 56.8477 15.2359C56.8763 16.1239 56.8763 17.1981 56.8477 18.4585C56.819 19.3179 56.776 19.8622 56.7188 20.0913C56.6901 20.2919 56.6185 20.4208 56.5039 20.4781C56.2747 20.5926 55.5299 20.6213 54.2695 20.564C53.2669 20.5353 52.5508 20.4208 52.1211 20.2202C51.6914 20.0197 51.3763 19.8049 51.1758 19.5757C51.0039 19.3465 50.832 19.0171 50.6602 18.5874ZM33.4727 4.92336C34.1602 4.98066 34.8047 5.10956 35.4062 5.31008C36.0078 5.5106 36.3659 5.66816 36.4805 5.78274C36.6237 5.86868 36.8672 5.96894 37.2109 6.08352C37.5547 6.16946 37.9844 6.35566 38.5 6.64211C39.0443 6.89993 39.6315 7.4442 40.2617 8.27493C40.9206 9.07701 41.25 9.64993 41.25 9.99368C41.25 10.3374 41.3503 10.7098 41.5508 11.1109C41.7513 11.5119 41.9089 12.0848 42.0234 12.8296C42.138 13.5744 42.1523 14.3335 42.0664 15.107C42.0091 15.7085 41.9375 16.0809 41.8516 16.2241C41.7943 16.3387 41.5651 16.4676 41.1641 16.6109C40.9922 16.6682 40.3906 16.7111 39.3594 16.7398C38.3281 16.7684 37.6836 16.7971 37.4258 16.8257C36.3372 16.9976 35.2773 17.1122 34.2461 17.1695C33.2435 17.2267 32.5273 17.3127 32.0977 17.4273C31.668 17.5419 31.2096 17.6278 30.7227 17.6851C30.4076 17.7424 30.207 17.7997 30.1211 17.857C30.0638 17.9142 30.0495 18.0288 30.0781 18.2007C30.1068 18.4872 30.1641 18.7307 30.25 18.9312C30.3646 19.1031 30.7513 19.3322 31.4102 19.6187C31.8685 19.8478 32.2122 19.9767 32.4414 20.0054C32.6992 20.034 33.1289 20.034 33.7305 20.0054C34.5898 19.9195 35.306 19.7476 35.8789 19.4898C36.4518 19.232 36.8672 18.9312 37.125 18.5874C37.3828 18.215 37.6263 18.0288 37.8555 18.0288C37.9701 18.0288 38.3138 18.1864 38.8867 18.5015C39.4883 18.8166 39.9036 19.0601 40.1328 19.232C40.6771 19.6044 41.1927 20.034 41.6797 20.521C42.1953 20.9794 42.4531 21.3231 42.4531 21.5523C42.4531 21.7814 42.1237 22.2254 41.4648 22.8843C40.8346 23.5145 40.2474 24.0445 39.7031 24.4741C39.1875 24.9038 38.4857 25.3192 37.5977 25.7202C36.7383 26.1213 35.7643 26.4077 34.6758 26.5796C33.6159 26.7228 32.7135 26.7372 31.9688 26.6226C31.224 26.4794 30.3789 26.2502 29.4336 25.9351C28.832 25.7059 28.3594 25.4767 28.0156 25.2476C27.6719 25.0184 27.1992 24.6174 26.5977 24.0445C25.6237 23.0991 24.9219 22.3257 24.4922 21.7241C24.0911 21.0939 23.8906 20.7215 23.8906 20.607C23.8906 20.4637 23.7188 19.9767 23.375 19.146C23.0599 18.2866 22.888 17.6135 22.8594 17.1265C22.8594 16.6682 22.8451 16.0379 22.8164 15.2359C22.8164 14.4911 22.8737 13.8895 22.9883 13.4312C23.1315 12.9728 23.375 12.3713 23.7188 11.6265C24.0911 10.8817 24.2773 10.4663 24.2773 10.3804C24.2773 10.2658 24.5352 9.8218 25.0508 9.04836C25.5951 8.27493 26.1393 7.67336 26.6836 7.24368C27.5716 6.52753 28.0872 6.16946 28.2305 6.16946C28.2878 6.16946 28.3594 6.15514 28.4453 6.12649L28.7891 5.95461C28.9323 5.86868 29.0612 5.81139 29.1758 5.78274C30.0065 5.49628 30.4792 5.32441 30.5938 5.26711C30.9661 5.09524 31.3529 4.98066 31.7539 4.92336C32.2122 4.86607 32.7852 4.86607 33.4727 4.92336ZM30.25 11.3257C30.2214 11.383 30.0924 11.9989 29.8633 13.1734C29.806 13.5171 29.7917 13.732 29.8203 13.8179C29.8776 13.9038 30.1927 13.8895 30.7656 13.7749C31.3385 13.6317 31.9115 13.5601 32.4844 13.5601C33.0859 13.5314 33.7591 13.4598 34.5039 13.3452C35.2773 13.2307 35.7214 13.1447 35.8359 13.0874C35.9792 13.0588 35.9648 12.8869 35.793 12.5718C35.793 12.5145 35.7357 12.3426 35.6211 12.0562C35.5065 11.7697 35.3919 11.5119 35.2773 11.2827C35.1628 11.0249 35.0625 10.8674 34.9766 10.8101C34.5755 10.5523 34.1602 10.3947 33.7305 10.3374C33.3008 10.2515 32.9427 10.1942 32.6562 10.1656C32.3984 10.1369 31.9831 10.2515 31.4102 10.5093C30.8372 10.7671 30.4505 11.0393 30.25 11.3257ZM13.1484 0.798365C13.0339 0.683782 11.5299 0.597844 8.63672 0.540552C5.71484 0.483261 3.82422 0.52623 2.96484 0.669459C1.99089 0.841334 1.43229 0.97024 1.28906 1.05618C0.945312 1.28534 0.730469 1.70071 0.644531 2.30227C0.58724 3.47675 0.558594 4.23587 0.558594 4.57962C0.558594 4.92337 0.58724 5.92597 0.644531 7.58743C0.730469 9.22024 0.773438 10.1226 0.773438 10.2945C0.888021 11.9846 0.916667 14.0184 0.859375 16.396C0.830729 17.7424 0.816406 19.4468 0.816406 21.5093C0.816406 22.0249 0.859375 22.8413 0.945312 23.9585C1.0026 24.7033 1.03125 25.2046 1.03125 25.4624C1.03125 25.7489 1.1888 25.9924 1.50391 26.1929C1.79036 26.3648 2.73568 26.4364 4.33984 26.4077C6.02995 26.3504 7.04688 26.2502 7.39062 26.107C7.84896 25.9064 8.07812 25.6916 8.07812 25.4624C8.07812 25.2619 8.10677 25.0184 8.16406 24.732C8.22135 24.4169 8.27865 23.314 8.33594 21.4234L8.42188 18.2437C8.42188 18.1004 8.59375 18.0288 8.9375 18.0288C9.2526 18.0288 9.51042 18.1721 9.71094 18.4585C9.96875 18.9455 10.2122 19.5327 10.4414 20.2202C10.6992 20.965 10.9427 21.5236 11.1719 21.896C11.401 22.2684 11.6016 22.7697 11.7734 23.3999C12.0026 24.2593 12.2031 24.8036 12.375 25.0327C12.4323 25.1187 12.5898 25.4624 12.8477 26.064C12.9909 26.4364 13.2344 26.6656 13.5781 26.7515C13.8932 26.8374 14.2799 26.7945 14.7383 26.6226C15.1107 26.4794 15.4544 26.4077 15.7695 26.4077C16.0273 26.4077 16.6146 26.2072 17.5312 25.8062C18.5625 25.3478 19.1927 25.0614 19.4219 24.9468C19.7083 24.8036 19.8802 24.6603 19.9375 24.5171C19.9661 24.4312 19.9232 24.0588 19.8086 23.3999C19.7227 22.9416 19.5508 22.4116 19.293 21.8101C19.2643 21.7241 19.1784 21.5236 19.0352 21.2085C18.8919 20.8934 18.7917 20.6786 18.7344 20.564C18.5339 20.1057 18.4336 19.8622 18.4336 19.8335C18.4336 19.633 18.2331 19.1031 17.832 18.2437C17.6029 17.7567 17.3307 17.1981 17.0156 16.5679C16.901 16.3387 17.2161 15.8374 17.9609 15.064C18.7917 14.176 19.3789 13.4312 19.7227 12.8296C20.1523 12.0848 20.4388 11.383 20.582 10.7241C20.7826 9.83613 20.8398 9.10566 20.7539 8.53274C20.6966 7.78795 20.582 7.14342 20.4102 6.59915C20.2096 5.96894 19.9948 5.45331 19.7656 5.05227C19.4219 4.42206 18.9492 3.84915 18.3477 3.33352C17.6602 2.7606 17.1589 2.41685 16.8438 2.30227C16.6719 2.24498 16.1276 2.00149 15.2109 1.5718C14.4089 1.19941 13.9076 1.01321 13.707 1.01321C13.4779 1.01321 13.2917 0.941594 13.1484 0.798365ZM7.04688 10.8101C7.01823 10.3231 7.00391 10.008 7.00391 9.86477C6.97526 9.40644 7.00391 8.87649 7.08984 8.27493C7.20443 7.67337 7.33333 7.35826 7.47656 7.32962C7.70573 7.27232 8.23568 7.24368 9.06641 7.24368C11.0716 7.24368 12.4323 7.78795 13.1484 8.87649C13.5495 9.42076 13.5638 10.1226 13.1914 10.982C12.8477 11.8413 12.4466 12.5002 11.9883 12.9585C11.7305 13.2163 10.9141 13.4025 9.53906 13.5171C8.19271 13.6031 7.47656 13.4885 7.39062 13.1734C7.27604 12.801 7.1901 12.3426 7.13281 11.7984C7.10417 11.5978 7.07552 11.2684 7.04688 10.8101ZM85.3557 40.4116C85.4989 40.4116 85.5705 40.3257 85.5705 40.1538C85.5705 40.0679 85.6421 39.8674 85.7853 39.5523L86.301 38.607C86.4728 38.2632 86.5588 38.077 86.5588 38.0484C86.9598 37.0458 88.0484 36.3439 89.8244 35.9429C91.6291 35.5418 93.2046 35.5848 94.551 36.0718C94.9807 36.1864 95.3817 36.3726 95.7541 36.6304C96.1265 36.8596 96.3986 37.0744 96.5705 37.2749C96.771 37.4468 97.0432 37.7046 97.3869 38.0484C97.8452 38.564 98.2319 39.1226 98.5471 39.7241C98.8908 40.3257 99.1629 41.0418 99.3635 41.8726C99.564 42.7033 99.7215 43.4338 99.8361 44.064C99.9507 44.6655 100.022 45.5392 100.051 46.6851C100.108 47.8309 100.137 48.6903 100.137 49.2632C100.137 49.8361 100.123 50.8244 100.094 52.228C100.065 53.6317 100.051 54.5913 100.051 55.1069L99.0197 55.2359C98.3322 55.2931 97.7593 55.3361 97.301 55.3648C97.2723 55.3648 96.9142 55.3934 96.2267 55.4507C95.5679 55.4793 95.1668 55.4793 95.0236 55.4507C94.7372 55.3934 94.551 55.3361 94.465 55.2788C94.3791 55.1929 94.2932 55.021 94.2072 54.7632C94.1213 54.5054 94.0497 53.9898 93.9924 53.2163C93.9351 52.4142 93.8778 51.5549 93.8205 50.6382C93.7918 49.7215 93.7775 49.1486 93.7775 48.9194C93.577 46.6278 93.0757 45.2241 92.2736 44.7085C91.8439 44.4221 91.4859 44.3075 91.1994 44.3648C90.9416 44.4221 90.6122 44.6512 90.2111 45.0523C89.7241 45.4819 89.3804 46.0119 89.1799 46.6421C89.008 47.2723 88.9077 48.7905 88.8791 51.1968C88.8791 53.603 88.8648 54.9208 88.8361 55.1499C88.8361 55.3504 88.7072 55.508 88.4494 55.6226C88.4208 55.6512 87.4325 55.6799 85.4846 55.7085C84.9976 55.7085 84.4533 55.7372 83.8517 55.7944C83.2502 55.8517 82.8635 55.8804 82.6916 55.8804C82.5484 55.8804 82.3765 55.8517 82.176 55.7944C82.0614 55.6799 81.9754 55.3361 81.9182 54.7632C81.8609 54.1903 81.8179 53.5601 81.7892 52.8726C81.7606 52.1851 81.7463 51.7554 81.7463 51.5835C81.6603 50.9819 81.6317 50.3517 81.6603 49.6929C81.7463 47.9455 81.3166 46.6564 80.3713 45.8257C80.2853 45.7684 80.1994 45.6968 80.1135 45.6109L79.9416 45.439C79.9129 45.4103 79.8557 45.3817 79.7697 45.353C79.6838 45.2958 79.5835 45.2671 79.4689 45.2671C79.3543 45.2385 79.1968 45.2241 78.9963 45.2241C78.051 45.1382 77.4924 45.353 77.3205 45.8687C77.1773 46.3843 77.1343 47.9741 77.1916 50.6382C77.2202 52.758 77.2346 54.577 77.2346 56.0952L76.3322 56.1812C74.2984 56.3817 72.8661 56.3674 72.0353 56.1382C71.7775 56.0809 71.5913 55.995 71.4767 55.8804C71.3908 55.7658 71.3049 55.5796 71.2189 55.3218C71.1043 54.8635 71.0184 54.0471 70.9611 52.8726C70.8752 51.6408 70.7892 49.4494 70.7033 46.2984C70.646 43.1473 70.6603 40.9129 70.7463 39.5952C70.7749 39.3088 70.8036 39.0796 70.8322 38.9077C70.8895 38.7359 70.9754 38.5926 71.09 38.478C71.2046 38.3635 71.2905 38.2918 71.3478 38.2632C71.4051 38.2059 71.5484 38.12 71.7775 38.0054C72.0353 37.8908 72.2215 37.8192 72.3361 37.7905C72.5939 37.6473 72.952 37.4898 73.4103 37.3179C73.8687 37.1174 74.2124 36.9598 74.4416 36.8452C74.9572 36.5874 75.7307 36.4155 76.7619 36.3296C77.7932 36.215 78.7241 36.2293 79.5549 36.3726C80.4142 36.5158 81.2593 36.7593 82.09 37.103C82.6057 37.3036 83.1356 37.6903 83.6799 38.2632C84.2241 38.8075 84.6395 39.2944 84.926 39.7241L85.3557 40.4116ZM65.0744 37.3179C64.5588 37.0028 63.857 36.745 62.9689 36.5445C61.3934 36.1434 59.4025 36.2437 56.9963 36.8452C56.6239 36.9312 56.0796 37.2749 55.3635 37.8765C54.676 38.4494 54.2892 38.8075 54.2033 38.9507C54.1174 39.0653 53.9025 39.3088 53.5588 39.6812C53.2437 40.0536 52.857 40.6122 52.3986 41.357C51.9689 42.0445 51.6682 42.6603 51.4963 43.2046C51.3244 43.7489 51.1812 44.5653 51.0666 45.6538C50.952 46.4273 50.909 47.2007 50.9377 47.9741C50.995 48.9481 51.2671 49.8791 51.7541 50.7671C52.2411 51.6265 52.8856 52.4715 53.6877 53.3023C54.2033 53.8465 54.59 54.1903 54.8478 54.3335C55.077 54.4767 55.4924 54.6916 56.0939 54.9781C56.6955 55.2645 57.4689 55.4794 58.4142 55.6226C59.3596 55.7372 59.9754 55.7801 60.2619 55.7515C60.577 55.6942 60.9064 55.6226 61.2502 55.5366C61.6226 55.4507 61.9807 55.3504 62.3244 55.2359C62.6968 55.1213 63.1408 54.9351 63.6564 54.6773C64.4872 54.3049 65.1603 53.8752 65.676 53.3882C66.2202 52.8726 66.7359 52.1994 67.2228 51.3687C67.8244 50.3661 68.3114 49.2632 68.6838 48.0601C68.827 47.5731 68.9416 46.8856 69.0275 45.9976C69.1421 45.1096 69.1994 44.5223 69.1994 44.2359C69.1994 43.9208 69.1564 43.5054 69.0705 42.9898C69.0132 42.4455 68.9129 42.0301 68.7697 41.7437C68.6551 41.4286 68.5406 41.1564 68.426 40.9273C68.34 40.784 68.2111 40.5405 68.0392 40.1968C67.9247 39.9676 67.7098 39.6812 67.3947 39.3374C67.1083 38.9937 66.7932 38.6499 66.4494 38.3062C66.077 37.9624 65.6187 37.633 65.0744 37.3179ZM58.0705 43.7632C58.357 43.4195 58.7007 43.1616 59.1017 42.9898C59.5314 42.7892 59.8895 42.7176 60.176 42.7749C60.4624 42.8322 60.7346 42.9182 60.9924 43.0327C61.2502 43.1187 61.5223 43.3049 61.8088 43.5913C62.0952 43.8491 62.3101 44.2072 62.4533 44.6656C62.7971 45.6109 62.6252 46.5991 61.9377 47.6304C61.6799 48.0028 61.3504 48.2749 60.9494 48.4468C60.577 48.6187 60.2046 48.7189 59.8322 48.7476C59.4885 48.7476 59.159 48.676 58.8439 48.5327C58.5288 48.3609 58.271 48.189 58.0705 48.0171C57.8986 47.8166 57.7267 47.5731 57.5549 47.2866C57.383 46.9715 57.2971 46.5848 57.2971 46.1265C57.2971 45.6682 57.3544 45.2528 57.4689 44.8804C57.5835 44.4794 57.784 44.107 58.0705 43.7632ZM43.7189 36.5445C44.607 36.745 45.3088 37.0028 45.8244 37.3179C46.3687 37.633 46.827 37.9624 47.1994 38.3062C47.5432 38.6499 47.8583 38.9937 48.1447 39.3374C48.4598 39.6812 48.6747 39.9676 48.7892 40.1968C48.9611 40.5405 49.09 40.784 49.176 40.9273C49.2905 41.1564 49.4051 41.4286 49.5197 41.7437C49.6629 42.0301 49.7632 42.4455 49.8205 42.9898C49.9064 43.5054 49.9494 43.9208 49.9494 44.2359C49.9494 44.5223 49.8921 45.1096 49.7775 45.9976C49.6916 46.8856 49.577 47.5731 49.4338 48.0601C49.0614 49.2632 48.5744 50.3661 47.9728 51.3687C47.4859 52.1994 46.9702 52.8726 46.426 53.3882C45.9103 53.8752 45.2372 54.3049 44.4064 54.6773C43.8908 54.9351 43.4468 55.1213 43.0744 55.2359C42.7307 55.3504 42.3726 55.4507 42.0002 55.5366C41.6564 55.6226 41.327 55.6942 41.0119 55.7515C40.7254 55.7801 40.1096 55.7372 39.1642 55.6226C38.2189 55.4794 37.4455 55.2645 36.8439 54.9781C36.2424 54.6916 35.827 54.4767 35.5978 54.3335C35.34 54.1903 34.9533 53.8465 34.4377 53.3023C33.6356 52.4715 32.9911 51.6265 32.5041 50.7671C32.0171 49.8791 31.745 48.9481 31.6877 47.9741C31.659 47.2007 31.702 46.4273 31.8166 45.6538C31.9312 44.5653 32.0744 43.7489 32.2463 43.2046C32.4182 42.6603 32.7189 42.0445 33.1486 41.357C33.607 40.6122 33.9937 40.0536 34.3088 39.6812C34.6525 39.3088 34.8674 39.0653 34.9533 38.9507C35.0392 38.8075 35.426 38.4494 36.1135 37.8765C36.8296 37.2749 37.3739 36.9312 37.7463 36.8452C40.1525 36.2437 42.1434 36.1434 43.7189 36.5445ZM39.8517 42.9898C39.4507 43.1616 39.107 43.4195 38.8205 43.7632C38.534 44.107 38.3335 44.4794 38.2189 44.8804C38.1043 45.2528 38.0471 45.6682 38.0471 46.1265C38.0471 46.5848 38.133 46.9715 38.3049 47.2866C38.4767 47.5731 38.6486 47.8166 38.8205 48.0171C39.021 48.189 39.2788 48.3609 39.5939 48.5327C39.909 48.676 40.2385 48.7476 40.5822 48.7476C40.9546 48.7189 41.327 48.6187 41.6994 48.4468C42.1004 48.2749 42.4299 48.0028 42.6877 47.6304C43.3752 46.5991 43.5471 45.6109 43.2033 44.6656C43.0601 44.2072 42.8452 43.8491 42.5588 43.5913C42.2723 43.3049 42.0002 43.1187 41.7424 43.0327C41.4846 42.9182 41.2124 42.8322 40.926 42.7749C40.6395 42.7176 40.2814 42.7892 39.8517 42.9898ZM21.8049 29.7984C21.6903 29.6838 20.1864 29.5978 17.2932 29.5405C14.3713 29.4833 12.4807 29.5262 11.6213 29.6695C10.6473 29.8413 10.0887 29.9702 9.9455 30.0562C9.60175 30.2853 9.3869 30.7007 9.30096 31.3023C9.24367 32.4767 9.21503 33.2359 9.21503 33.5796C9.21503 33.9234 9.24367 34.926 9.30096 36.5874C9.3869 38.2202 9.42987 39.1226 9.42987 39.2944C9.54445 40.9846 9.5731 43.0184 9.51581 45.396C9.48716 46.7424 9.47284 48.4468 9.47284 50.5093C9.47284 51.0249 9.51581 51.8413 9.60175 52.9585C9.65904 53.7033 9.68768 54.2046 9.68768 54.4624C9.68768 54.7489 9.84523 54.9924 10.1603 55.1929C10.4468 55.3648 11.3921 55.4364 12.9963 55.4077C14.6864 55.3504 15.7033 55.2502 16.0471 55.1069C16.5054 54.9064 16.7346 54.6916 16.7346 54.4624C16.7346 54.2619 16.7632 54.0184 16.8205 53.7319C16.8778 53.4168 16.9351 52.314 16.9924 50.4234L17.0783 47.2437C17.0783 47.1004 17.2502 47.0288 17.5939 47.0288C17.909 47.0288 18.1668 47.1721 18.3674 47.4585C18.6252 47.9455 18.8687 48.5327 19.0978 49.2202C19.3557 49.965 19.5991 50.5236 19.8283 50.896C20.0575 51.2684 20.258 51.7697 20.4299 52.3999C20.659 53.2593 20.8596 53.8036 21.0314 54.0327C21.0887 54.1187 21.2463 54.4624 21.5041 55.064C21.6473 55.4364 21.8908 55.6655 22.2346 55.7515C22.5497 55.8374 22.9364 55.7944 23.3947 55.6226C23.7671 55.4793 24.1109 55.4077 24.426 55.4077C24.6838 55.4077 25.271 55.2072 26.1877 54.8062C27.2189 54.3478 27.8491 54.0614 28.0783 53.9468C28.3648 53.8036 28.5366 53.6603 28.5939 53.5171C28.6226 53.4312 28.5796 53.0588 28.465 52.3999C28.3791 51.9416 28.2072 51.4116 27.9494 50.8101C27.9208 50.7241 27.8348 50.5236 27.6916 50.2085C27.5484 49.8934 27.4481 49.6786 27.3908 49.564C27.1903 49.1056 27.09 48.8622 27.09 48.8335C27.09 48.633 26.8895 48.103 26.4885 47.2437C26.2593 46.7567 25.9872 46.1981 25.6721 45.5679C25.5575 45.3387 25.8726 44.8374 26.6174 44.064C27.4481 43.176 28.0353 42.4312 28.3791 41.8296C28.8088 41.0848 29.0952 40.383 29.2385 39.7241C29.439 38.8361 29.4963 38.1056 29.4103 37.5327C29.353 36.7879 29.2385 36.1434 29.0666 35.5991C28.8661 34.9689 28.6512 34.4533 28.4221 34.0523C28.0783 33.4221 27.6057 32.8491 27.0041 32.3335C26.3166 31.7606 25.8153 31.4168 25.5002 31.3023C25.3283 31.245 24.784 31.0015 23.8674 30.5718C23.0653 30.1994 22.564 30.0132 22.3635 30.0132C22.1343 30.0132 21.9481 29.9416 21.8049 29.7984ZM15.7033 39.8101C15.6747 39.3231 15.6603 39.008 15.6603 38.8648C15.6317 38.4064 15.6603 37.8765 15.7463 37.2749C15.8609 36.6734 15.9898 36.3583 16.133 36.3296C16.3622 36.2723 16.8921 36.2437 17.7228 36.2437C19.728 36.2437 21.0887 36.7879 21.8049 37.8765C22.2059 38.4208 22.2202 39.1226 21.8478 39.9819C21.5041 40.8413 21.103 41.5002 20.6447 41.9585C20.3869 42.2163 19.5705 42.4025 18.1955 42.5171C16.8491 42.603 16.133 42.4885 16.0471 42.1734C15.9325 41.801 15.8465 41.3426 15.7892 40.7984C15.7606 40.5978 15.732 40.2684 15.7033 39.8101Z" fill="black"/>
</svg>
