<?xml version="1.0" ?><svg height="58px" version="1.1" viewBox="0 0 56 58" width="56px" xmlns="http://www.w3.org/2000/svg" xmlns:xlink="http://www.w3.org/1999/xlink"><title/><desc/><defs/><g fill="none" fill-rule="evenodd" id="Page-1" stroke="none" stroke-width="1"><g fill-rule="nonzero" id="028---Snowman"><path d="M9.59961,31.08545 L9.59961,27 C9.59961,26.7238576 9.37575237,26.5 9.09961,26.5 C8.82346763,26.5 8.59961,26.7238576 8.59961,27 L8.59961,30.08533 L5.39648,26.88184 C5.2062799,26.6937962 5.09935583,26.437383 5.09961,26.16992 L5.09961,19.707 L8.45312,16.35349 C8.64500157,16.1576923 8.64341668,15.8438924 8.44956715,15.6500429 C8.25571761,15.4561933 7.94191772,15.4546084 7.74612,15.64649 L5.09961,18.293 L5.09961,16 C5.09961,15.4477153 4.65189475,15 4.09961,15 C3.54732525,15 3.09961,15.4477153 3.09961,16 L3.09961,19.293 L1.24609,17.43945 C1.1528263,17.3453605 1.1002268,17.2184186 1.09961,17.08594 L1.09961,14 C1.09961,13.7238576 0.875752375,13.5 0.59961,13.5 C0.323467625,13.5 0.09961,13.7238576 0.09961,14 L0.09961,17.08594 C0.0986477125,17.4839419 0.256877425,17.8658032 0.53906,18.14648 L3.09961,20.707 L3.09961,26.16989 C3.09788884,26.9685542 3.41619676,27.7346196 3.9834,28.29689 L12.5127,36.82716 C12.7652975,37.0797575 13.1334664,37.1784081 13.478521,37.085951 C13.8235756,36.9934939 14.0930939,36.7239756 14.185551,36.378921 C14.2780081,36.0338664 14.1793575,35.6656975 13.92676,35.4131 L9.59961,31.08545 Z" fill="#D6A292" id="Shape"/><path d="M55.40039,13.5 C55.2677582,13.499923 55.1405365,13.5525767 55.0467516,13.6463616 C54.9529667,13.7401465 54.900313,13.8673682 54.90039,14 L54.90039,17.08594 C54.8997732,17.2184186 54.8471737,17.3453605 54.75391,17.43945 L52.90039,19.293 L52.90039,16 C52.90039,15.4477153 52.4526747,15 51.90039,15 C51.3481053,15 50.90039,15.4477153 50.90039,16 L50.90039,18.293 L48.25391,15.64651 C48.0581123,15.4546284 47.7443124,15.4562133 47.5504629,15.6500629 C47.3566133,15.8439124 47.3550284,16.1577123 47.54691,16.35351 L50.90039,19.707 L50.90039,26.16989 C50.9005555,26.4378135 50.7932638,26.6946113 50.60254,26.88278 L47.40039,30.0853 L47.40039,27 C47.40039,26.7238576 47.1765324,26.5 46.90039,26.5 C46.6242476,26.5 46.40039,26.7238576 46.40039,27 L46.40039,31.08545 L42.07324,35.41309 C41.8206425,35.6656875 41.721992,36.0338564 41.8144491,36.3789109 C41.9069062,36.7239655 42.1764245,36.9934838 42.5214791,37.0859409 C42.8665336,37.178398 43.2347025,37.0797475 43.4873,36.82715 L52.01562,28.29785 C52.5833379,27.7354648 52.9020127,26.9690308 52.90039,26.16992 L52.90039,20.707 L55.46094,18.14645 C55.7431226,17.8657732 55.9013523,17.4839119 55.90039,17.08591 L55.90039,14 C55.900467,13.8673682 55.8478133,13.7401465 55.7540284,13.6463616 C55.6602435,13.5525767 55.5330218,13.499923 55.40039,13.5 Z" fill="#D6A292" id="Shape"/><path d="M28,58 C11,58 12,50.84 12,42 C11.9942438,37.1627808 14.182522,32.5839466 17.95,29.55 C18.01,29.51 18.06,29.46 18.12,29.42 C18.7000282,28.9528884 19.1138619,28.3110954 19.3,27.59 C19.5131397,26.5770204 20.0848571,25.6750563 20.91,25.05 C17.5127395,21.6354641 17.0334886,16.2838289 19.77,12.32 C22,12.15624 34,12.15624 36.23,12.32 C38.9665114,16.2838289 38.4872605,21.6354641 35.09,25.05 C35.9151429,25.6750563 36.4868603,26.5770204 36.7,27.59 C36.8861381,28.3110954 37.2999718,28.9528884 37.88,29.42 C37.94,29.46 37.99,29.51 38.05,29.55 C41.817478,32.5839466 44.0057562,37.1627808 44,42 C44,50.84 45,58 28,58 Z" fill="#EBECED" id="Shape"/><path d="M36.52,39.9 L32.68,39.9 C33.5506948,37.1405403 33.4196679,34.1623332 32.31,31.49 C32.833563,31.4019129 33.3512083,31.2816856 33.86,31.13 L33.86,31.14 C35.7834327,33.6388563 36.7292209,36.7535571 36.52,39.9 Z" fill="#944143" id="Shape"/><path d="M40.9,42.9 L35.9,42.9 C36.1850122,41.9226008 36.359437,40.9163037 36.42,39.9 C36.6292209,36.7535571 35.6834327,33.6388563 33.76,31.14 L33.76,31.13 C34.8589934,30.8495036 35.927533,30.4609438 36.95,29.97 C42.89,37.93 40.9,42.9 40.9,42.9 Z" fill="#D8625E" id="Shape"/><path d="M38.05,29.55 C37.73,29.73 37.4,29.91 37.05,30.07 C36.027533,30.5609438 34.9589934,30.9495036 33.86,31.23 C33.3512083,31.3816856 32.833563,31.5019129 32.31,31.59 C30.8901272,31.8667937 29.4465949,32.0041135 28,32 C24.495594,32.0563268 21.0353209,31.2127776 17.95,29.55 C18.01,29.51 18.06,29.46 18.12,29.42 C18.7000282,28.9528884 19.1138619,28.3110954 19.3,27.59 C19.5131397,26.5770204 20.0848571,25.6750563 20.91,25.05 C22.7862342,26.9382101 25.3381524,28.000008 28.00003,28.000008 C30.6619076,28.000008 33.2138258,26.9382101 35.09006,25.05 C35.9152029,25.6750563 36.4869203,26.5770204 36.70006,27.59 C36.8861981,28.3110954 37.3000318,28.9528884 37.88006,29.42 C37.94,29.46 37.99,29.51 38.05,29.55 Z" fill="#D8625E" id="Shape"/><circle cx="28" cy="37" fill="#3A3E48" id="Oval" r="2"/><circle cx="28" cy="44" fill="#3A3E48" id="Oval" r="2"/><circle cx="28" cy="51" fill="#3A3E48" id="Oval" r="2"/><path d="M40,10.5 C40,11.22 38.55,11.86 36.23,12.32 C33.5133883,12.7990645 30.7583998,13.0266942 28,13 C25.2416002,13.0266942 22.4866117,12.7990645 19.77,12.32 C17.45,11.86 16,11.22 16,10.5 C16,9.58 18.41,8.77 22,8.34 L22,2 C22.0032238,0.896768606 22.8967686,0.00322381203 24,0 L32,0 C33.1032314,0.00322381203 33.9967762,0.896768606 34,2 L34,8.34 C37.59,8.77 40,9.58 40,10.5 Z" fill="#445C71" id="Shape"/><circle cx="24.5" cy="17.5" fill="#3A3E48" id="Oval" r="1.5"/><circle cx="31.5" cy="17.5" fill="#3A3E48" id="Oval" r="1.5"/><path d="M30,21.5 C30,22.60457 28,25 28,25 C28,25 26,22.60457 26,21.5 C26,20.3954305 26.8954305,19.5 28,19.5 C29.1045695,19.5 30,20.3954305 30,21.5 Z" fill="#EC9130" id="Shape"/><rect fill="#D8625E" height="2" id="Rectangle-path" width="12" x="22" y="5"/></g></g></svg>